<svg width="667" height="498" viewBox="0 0 667 498" fill="none" xmlns="http://www.w3.org/2000/svg">
<path d="M0 437.197H666.667V436.865H0V437.197Z" fill="#ECECEC"/>
<path d="M555.705 458.659H599.868V458.327H555.705V458.659Z" fill="#ECECEC"/>
<path d="M430.036 462.277H441.627V461.944H430.036V462.277Z" fill="#ECECEC"/>
<path d="M528.781 446.277H554.371V445.944H528.781V446.277Z" fill="#ECECEC"/>
<path d="M69.9453 448.519H127.536V448.185H69.9453V448.519Z" fill="#ECECEC"/>
<path d="M139.408 448.519H147.852V448.185H139.408V448.519Z" fill="#ECECEC"/>
<path d="M175.295 454.148H300.196V453.815H175.295V454.148Z" fill="#ECECEC"/>
<path d="M58.5533 0.602844C54.54 0.602844 51.276 3.86819 51.276 7.88019V369.79C51.276 373.802 54.54 377.067 58.5533 377.067H316.019C320.029 377.067 323.295 373.802 323.295 369.79V7.88019C323.295 3.86819 320.029 0.602844 316.019 0.602844H58.5533ZM316.019 377.4H58.5533C54.3573 377.4 50.9427 373.986 50.9427 369.79V7.88019C50.9427 3.68552 54.3573 0.269501 58.5533 0.269501H316.019C320.213 0.269501 323.628 3.68552 323.628 7.88019V369.79C323.628 373.986 320.213 377.4 316.019 377.4Z" fill="#ECECEC"/>
<path d="M346.949 0.602844C342.937 0.602844 339.673 3.86819 339.673 7.88019V369.79C339.673 373.802 342.937 377.067 346.949 377.067H604.415C608.427 377.067 611.692 373.802 611.692 369.79V7.88019C611.692 3.86819 608.427 0.602844 604.415 0.602844H346.949ZM604.415 377.4H346.949C342.755 377.4 339.34 373.986 339.34 369.79V7.88019C339.34 3.68552 342.755 0.269501 346.949 0.269501H604.415C608.611 0.269501 612.025 3.68552 612.025 7.88019V369.79C612.025 373.986 608.611 377.4 604.415 377.4Z" fill="#ECECEC"/>
<path d="M88.028 248.212H148.517V436.864H88.028V248.212Z" fill="#F0F0F0"/>
<path d="M91.348 252.944H145.197V308.476H91.348V252.944Z" fill="#E7E7E7"/>
<path d="M91.348 313.463H145.197V368.995H91.348V313.463Z" fill="#E7E7E7"/>
<path d="M91.348 373.979H145.197V429.512H91.348V373.979Z" fill="#E7E7E7"/>
<path d="M124.016 252.944H145.197V308.476H124.016V252.944Z" fill="#E1E1E1"/>
<path d="M124.016 313.463H145.197V368.995H124.016V313.463Z" fill="#E1E1E1"/>
<path d="M137.119 286.295H122.447V308.477H137.119V286.295Z" fill="#F0F0F0"/>
<path d="M116.252 286.295H122.447V308.477H116.252V286.295Z" fill="#E1E1E1"/>
<path d="M119.349 292.064H100.505V308.477H119.349V292.064Z" fill="#F0F0F0"/>
<path d="M92.5493 292.064H100.505V308.477H92.5493V292.064Z" fill="#E1E1E1"/>
<path d="M124.016 373.979H145.197V429.512H124.016V373.979Z" fill="#E1E1E1"/>
<path d="M71.6027 248.212H88.028V436.864H71.6027V248.212Z" fill="#F5F5F5"/>
<path d="M99.168 396.953H139.167V429.509H99.168V396.953Z" fill="#F0F0F0"/>
<path d="M99.168 396.953H91.3453V429.509H99.168V396.953Z" fill="#E1E1E1"/>
<path d="M96.6067 343.161H132.148V368.995H96.6067V343.161Z" fill="#FAFAFA"/>
<path d="M96.6067 343.161H91.348V368.995H96.6067V343.161Z" fill="#F0F0F0"/>
<path d="M534.717 248.212H595.208V436.864H534.717V248.212Z" fill="#F0F0F0"/>
<path d="M538.037 252.944H591.887V308.476H538.037V252.944Z" fill="#E7E7E7"/>
<path d="M538.037 313.463H591.887V368.995H538.037V313.463Z" fill="#E7E7E7"/>
<path d="M538.037 373.979H591.887V429.512H538.037V373.979Z" fill="#E7E7E7"/>
<path d="M570.705 252.944H591.887V308.476H570.705V252.944Z" fill="#E1E1E1"/>
<path d="M570.705 313.463H591.887V368.995H570.705V313.463Z" fill="#E1E1E1"/>
<path d="M561.223 352.872H546.552V368.995H561.223V352.872Z" fill="#F0F0F0"/>
<path d="M540.357 352.872H546.552V368.995H540.357V352.872Z" fill="#E1E1E1"/>
<path d="M574.493 336.751H559.821V352.872H574.493V336.751Z" fill="#F0F0F0"/>
<path d="M553.627 336.751H559.821V352.872H553.627V336.751Z" fill="#E1E1E1"/>
<path d="M584.927 352.872H570.256V368.995H584.927V352.872Z" fill="#F0F0F0"/>
<path d="M564.06 352.872H570.255V368.995H564.06V352.872Z" fill="#E1E1E1"/>
<path d="M570.705 373.979H591.887V429.512H570.705V373.979Z" fill="#E1E1E1"/>
<path d="M518.293 248.212H534.717V436.864H518.293V248.212Z" fill="#F5F5F5"/>
<path d="M544.507 385.424H577.589V429.512H544.507V385.424Z" fill="#F0F0F0"/>
<path d="M544.507 385.424H538.036V429.512H544.507V385.424Z" fill="#E1E1E1"/>
<path d="M544.507 273.481H588.231V308.476H544.507V273.481Z" fill="#FAFAFA"/>
<path d="M544.507 273.481H538.036V308.476H544.507V273.481Z" fill="#F0F0F0"/>
<path d="M483.048 238.556H174.308V35.7667H483.048V238.556Z" fill="#E7E7E7"/>
<path d="M487.215 238.556H178.475V35.7667H487.215V238.556Z" fill="#F5F5F5"/>
<path d="M185.955 44.168H479.735V230.153H185.955V44.168Z" fill="white"/>
<path d="M476.585 44.168H479.736V230.153H476.585V44.168Z" fill="#E7E7E7"/>
<path d="M484.121 183.168H181.569V171.889H484.121V183.168Z" fill="#F5F5F5"/>
<path d="M495.37 21.8607H166.155C165.522 21.8607 165.004 22.3794 165.004 23.0114C165.004 23.646 165.522 24.1647 166.155 24.1647H495.37C496.003 24.1647 496.52 23.646 496.52 23.0114C496.52 22.3794 496.003 21.8607 495.37 21.8607Z" fill="#E7E7E7"/>
<path d="M499.4 23.0117C499.4 24.6011 498.11 25.8904 496.521 25.8904C494.93 25.8904 493.642 24.6011 493.642 23.0117C493.642 21.4224 494.93 20.1331 496.521 20.1331C498.11 20.1331 499.4 21.4224 499.4 23.0117Z" fill="#E7E7E7"/>
<path d="M175.863 29.461C175.007 29.461 174.309 28.761 174.309 27.9063V24.5663C174.309 23.7116 175.007 23.0116 175.863 23.0116C176.718 23.0116 177.418 23.7116 177.418 24.5663V27.9063C177.418 28.761 176.718 29.461 175.863 29.461Z" fill="#E7E7E7"/>
<path d="M478.004 29.461C477.148 29.461 476.449 28.761 476.449 27.9063V24.5663C476.449 23.7116 477.148 23.0116 478.004 23.0116C478.859 23.0116 479.559 23.7116 479.559 24.5663V27.9063C479.559 28.761 478.859 29.461 478.004 29.461Z" fill="#E7E7E7"/>
<g opacity="0.399994">
<path opacity="0.399994" d="M495.001 222.265H181.568V23.0121H495.001V222.265Z" fill="#E1E1E1"/>
</g>
<path d="M197.259 23.0117C197.259 24.6011 195.971 25.8904 194.38 25.8904C192.79 25.8904 191.502 24.6011 191.502 23.0117C191.502 21.4224 192.79 20.1331 194.38 20.1331C195.971 20.1331 197.259 21.4224 197.259 23.0117Z" fill="#E7E7E7"/>
<path d="M217.287 329H500.371V317.369H217.287V329Z" fill="#F0F0F0"/>
<path d="M217.287 329H183.769V317.369H217.287V329Z" fill="#E7E7E7"/>
<path d="M495.716 335.744H188.947V329H495.716V335.744Z" fill="#E1E1E1"/>
<path d="M495.716 436.864H492.429V334.259H495.716V436.864Z" fill="#E1E1E1"/>
<path d="M220.573 436.864H217.287V334.259H220.573V436.864Z" fill="#E1E1E1"/>
<path d="M192.232 436.864H188.945V334.259H192.232V436.864Z" fill="#E1E1E1"/>
<path d="M467.375 436.864H464.088V334.259H467.375V436.864Z" fill="#E1E1E1"/>
<path d="M399.797 210.711L411.173 230.984C410.825 274.802 414.725 277.327 414.761 284.864H402.725C401.628 248.188 394.537 251.31 399.797 210.711Z" fill="#E1E1E1"/>
<path d="M408.567 263.839C404.526 221.584 338.01 228.352 331.694 248.195C325.378 268.036 410.891 288.141 408.567 263.839Z" fill="#E1E1E1"/>
<path d="M403.548 246.699C412.34 215.525 372.293 209.642 354.407 218.657C343.875 229.235 398.491 264.629 403.548 246.699Z" fill="#E1E1E1"/>
<path d="M392.521 227.059C413.138 220.364 399.786 198.739 387.481 193.184C377.362 191.771 380.662 230.909 392.521 227.059Z" fill="#E1E1E1"/>
<path d="M415.173 247.559C391.854 229.909 420.133 212.955 438.898 213.045C452.729 216.569 428.585 257.708 415.173 247.559Z" fill="#E1E1E1"/>
<path d="M410.984 229.806C379.912 221.955 398.496 199.807 416.476 194.474C431.445 193.398 428.854 234.321 410.984 229.806Z" fill="#E1E1E1"/>
<path d="M405.274 266.401C399.487 228.276 462.043 230.11 467.105 245.222C472.166 260.333 408.602 288.326 405.274 266.401Z" fill="#E1E1E1"/>
<path d="M401.995 317.37C379.357 317.37 360.254 316.378 355.607 294.891C354.379 289.207 352.979 283.562 350.773 278.18L350.417 277.314H453.574L453.218 278.18C451.011 283.562 449.613 289.207 448.383 294.891C443.737 316.378 424.635 317.37 401.995 317.37Z" fill="#FAFAFA"/>
<path d="M460.255 279.283H343.739L340.401 269.553H463.592L460.255 279.283Z" fill="#F0F0F0"/>
<path d="M247.405 56.7331C308.674 96.1251 334.794 95.2545 403.038 111.158C458.832 124.161 519.746 157.582 550.985 206.881C633.278 336.756 440.869 387.746 341.584 381.261C271.682 376.696 235.418 344.798 202.164 287.272C189.229 264.898 180.338 239.825 163.54 219.302C145.492 197.254 118.877 189.576 101.416 170.493C16.7823 78.0051 165.736 4.22247 247.405 56.7331Z" fill="#0A4E98"/>
<g opacity="0.899994">
<g opacity="0.899994">
<path opacity="0.899994" d="M247.405 56.7331C308.674 96.1251 334.794 95.2545 403.038 111.158C458.832 124.161 519.746 157.582 550.985 206.881C633.278 336.756 440.869 387.746 341.584 381.261C271.682 376.696 235.418 344.798 202.164 287.272C189.229 264.898 180.338 239.825 163.54 219.302C145.492 197.254 118.877 189.576 101.416 170.493C16.7823 78.0051 165.736 4.22247 247.405 56.7331Z" fill="white"/>
</g>
</g>
<path d="M591.852 481.984C591.852 490.323 476.11 497.082 333.334 497.082C190.558 497.082 74.8149 490.323 74.8149 481.984C74.8149 473.646 190.558 466.887 333.334 466.887C476.11 466.887 591.852 473.646 591.852 481.984Z" fill="#F5F5F5"/>
<path d="M507.329 471.017L496.645 470.849L496.601 446.024L507.285 446.192L507.329 471.017Z" fill="#FFB670"/>
<path d="M561.63 471.056H550.927L547.752 446.272H558.454L561.63 471.056Z" fill="#FFB670"/>
<path d="M549.801 469.818H562.849C563.286 469.818 563.651 470.122 563.729 470.548L565.442 480.062C565.619 481.048 564.805 481.982 563.794 481.964C559.599 481.892 556.547 481.646 551.259 481.646C548.006 481.646 538.182 481.984 533.69 481.984C529.297 481.984 528.798 477.542 530.654 477.139C538.977 475.336 545.295 472.847 548.035 470.475C548.529 470.047 549.161 469.818 549.801 469.818Z" fill="#1A2E35"/>
<path d="M496.121 469.612L507.797 469.795C508.234 469.803 508.593 470.112 508.657 470.54L510.117 480.084C510.268 481.075 509.456 481.997 508.448 481.965C504.241 481.827 498.172 481.484 492.877 481.401C486.688 481.304 486.004 481.557 478.744 481.444C474.354 481.375 473.441 476.915 475.306 476.541C483.796 474.841 485.954 474.752 493.488 470.405C494.308 469.932 495.198 469.597 496.121 469.612Z" fill="#1A2E35"/>
<path d="M500.867 152.501C497.947 160.317 494.737 167.707 491.069 175.108C489.241 178.789 487.319 182.449 485.22 186.055C483.163 189.673 480.888 193.248 478.361 196.76L476.341 199.465C475.232 200.88 473.697 202.309 471.796 203.327C469.905 204.369 467.732 204.852 465.832 204.9C463.912 204.957 462.228 204.651 460.769 204.229C457.855 203.355 455.613 202.112 453.617 200.775C451.629 199.433 449.873 198.007 448.229 196.536C441.741 190.576 436.771 184.088 432.243 176.996L438.581 172.055C441.313 174.688 444.2 177.412 447.107 179.899C450.011 182.408 452.963 184.811 455.951 186.832C457.431 187.852 458.927 188.763 460.365 189.477C461.793 190.187 463.184 190.717 464.144 190.843C464.619 190.917 464.941 190.871 465.016 190.811C465.105 190.745 464.923 190.728 464.765 190.767C464.608 190.804 464.563 190.841 464.651 190.66L466.055 188.445C469.884 182.181 473.308 175.217 476.517 168.171C479.728 161.144 482.823 153.833 485.697 146.755L500.867 152.501Z" fill="#FFC6B2"/>
<path d="M504.873 145.518C508.394 155.125 489.872 183.158 489.872 183.158L468.57 171.344C468.57 171.344 473.686 157.324 481.162 146.401C488.838 135.184 501.009 134.974 504.873 145.518Z" fill="#0A4E98"/>
<g opacity="0.5">
<g opacity="0.5">
<path opacity="0.5" d="M504.873 145.518C508.394 155.125 489.872 183.158 489.872 183.158L468.57 171.344C468.57 171.344 473.686 157.324 481.162 146.401C488.838 135.184 501.009 134.974 504.873 145.518Z" fill="white"/>
</g>
</g>
<g opacity="0.199997">
<g opacity="0.199997">
<path opacity="0.199997" d="M493.046 156.036C488.96 158.108 479.649 168.26 476.921 175.975L489.868 183.156C489.868 183.156 497.004 172.36 501.569 161.867C498.63 159.039 495.206 154.947 493.046 156.036Z" fill="#0A4E98"/>
</g>
</g>
<path d="M439.318 172.208L432.816 166.324L426.673 176.846C426.673 176.846 432.917 184.176 439.845 180.607L440.776 177.987C441.502 175.943 440.928 173.663 439.318 172.208Z" fill="#FFC6B2"/>
<path d="M422.307 161.897L420.502 172.116L426.673 176.845L432.815 166.324L422.307 161.897Z" fill="#FFC6B2"/>
<g opacity="0.199997">
<g opacity="0.199997">
<path opacity="0.199997" d="M496.602 446.03L496.624 458.827L507.313 458.995L507.292 446.198L496.602 446.03Z" fill="black"/>
</g>
</g>
<g opacity="0.199997">
<g opacity="0.199997">
<path opacity="0.199997" d="M558.458 446.279H547.751L549.392 459.053H560.099L558.458 446.279Z" fill="black"/>
</g>
</g>
<path d="M552.195 138.07C543.347 179.389 548.485 222.297 548.017 231.077C539.624 231.017 508.008 230.732 490.773 230.573C479.323 170.277 492.233 138.069 492.233 138.069C492.233 138.069 495.849 137.117 500.797 136.28C502.349 136.018 504.025 135.766 505.773 135.56C506.739 135.438 507.721 135.342 508.719 135.258C515.156 134.73 525.747 135.065 533.056 135.477C534.585 135.566 536.147 135.693 537.656 135.838C539.059 135.985 540.437 136.148 541.735 136.321C547.625 137.098 552.195 138.07 552.195 138.07Z" fill="#0A4E98"/>
<g opacity="0.5">
<g opacity="0.5">
<path opacity="0.5" d="M552.195 138.07C543.347 179.389 548.485 222.297 548.017 231.077C539.624 231.017 508.008 230.732 490.773 230.573C479.323 170.277 492.233 138.069 492.233 138.069C492.233 138.069 495.849 137.117 500.797 136.28C502.349 136.018 504.025 135.766 505.773 135.56C506.739 135.438 507.721 135.342 508.719 135.258C515.156 134.73 525.747 135.065 533.056 135.477C534.585 135.566 536.147 135.693 537.656 135.838C539.059 135.985 540.437 136.148 541.735 136.321C547.625 137.098 552.195 138.07 552.195 138.07Z" fill="white"/>
</g>
</g>
<g opacity="0.199997">
<g opacity="0.199997">
<path opacity="0.199997" d="M541.18 156.268C540.412 160.259 542.756 178.092 547.143 182.24C547.326 176.47 547.68 170.434 548.263 164.248L541.18 156.268Z" fill="black"/>
</g>
</g>
<path d="M530.885 108.053C529.279 115.869 527.619 130.2 533.051 135.473C528.758 139.665 523.151 144.503 513.851 144.748C504.551 144.991 506.233 138.611 508.718 135.257C517.467 133.251 517.301 126.771 515.833 120.675L530.885 108.053Z" fill="#FFC6B2"/>
<path d="M531.466 132.482C531.466 132.482 528.643 139.89 513.486 144.751C517.393 146.407 519.115 150.259 519.115 150.259C519.115 150.259 536.843 145.746 535.497 134.527C534.374 133.539 531.466 132.482 531.466 132.482Z" fill="white"/>
<path d="M507.689 149.628C507.689 149.628 509.762 145.964 513.486 144.752C511.77 143.186 509.019 138.32 510.227 134.528C507.829 134.573 506.667 134.984 506.667 134.984C506.667 134.984 500.334 141.053 507.689 149.628Z" fill="white"/>
<path d="M513.052 153.378C512.937 154.435 512.383 155.242 511.812 155.18C511.244 155.118 510.875 154.21 510.991 153.152C511.105 152.095 511.661 151.29 512.229 151.35C512.8 151.412 513.167 152.32 513.052 153.378Z" fill="white"/>
<path d="M512.021 164.337C511.999 165.401 511.518 166.253 510.945 166.243C510.373 166.231 509.926 165.36 509.946 164.296C509.967 163.232 510.45 162.38 511.022 162.391C511.595 162.403 512.042 163.273 512.021 164.337Z" fill="white"/>
<g opacity="0.199997">
<g opacity="0.199997">
<path opacity="0.199997" d="M524.749 113.203L515.841 120.668C516.193 122.111 516.463 123.572 516.553 124.994C519.891 124.54 524.506 120.92 524.891 117.431C525.083 115.691 525.026 114.016 524.749 113.203Z" fill="black"/>
</g>
</g>
<path d="M515.064 90.2227C509.983 95.7107 510.195 102.215 510.768 104.177C508.305 106.303 503.847 105.925 503.847 105.925L502.433 104.508C501.061 103.131 500.361 101.229 500.519 99.292C500.775 96.172 501.484 91.4414 503.456 88.444C506.608 83.6574 515.064 90.2227 515.064 90.2227Z" fill="#1A2E35"/>
<path d="M531.921 96.28C531.176 106.875 531.277 113.115 525.875 118.508C517.748 126.621 504.705 121.649 502.271 111.044C500.079 101.5 501.667 85.776 512.081 81.6493C522.341 77.5853 532.667 85.6853 531.921 96.28Z" fill="#FFC6B2"/>
<path d="M523.069 89.8516C525.31 94.9716 524.574 99.657 523.565 102.394C522.92 104.141 523.817 106.122 525.596 106.669C527.074 107.124 528.44 107.058 528.44 107.058L533.55 106.085C533.55 106.085 535.698 98.4823 534.292 92.9263C532.884 87.3703 523.069 89.8516 523.069 89.8516Z" fill="#1A2E35"/>
<path d="M523.032 91.2591C510.858 92.5205 499.588 90.0365 499.588 90.0365C499.588 90.0365 502.094 82.1111 507.721 79.3898C513.346 76.6671 525.236 76.8898 528.902 78.4445C532.569 80.0005 537.365 84.7031 535.558 96.2231C531.778 100.39 523.032 91.2591 523.032 91.2591Z" fill="#1A2E35"/>
<path d="M537.165 94.5091C537.165 94.5091 507.303 90.1745 494.932 88.0025C494.017 87.8425 494.055 86.5251 494.973 86.3985C501.971 85.4305 510.487 87.0958 510.487 87.0958L537.165 94.5091Z" fill="#0A4E98"/>
<path d="M499.799 86.418C500.339 83.7674 504.952 69.9687 524.312 74.1554C542.24 78.0314 537.165 94.5087 537.165 94.5087L499.799 86.418Z" fill="#0A4E98"/>
<path d="M511.932 74.573L518.416 72.653L526.223 73.2917V74.6423L521.264 75.7917L511.932 74.573Z" fill="#0A4E98"/>
<g opacity="0.199997">
<g opacity="0.199997">
<path opacity="0.199997" d="M512.902 87.806H512.901C512.626 87.8047 512.402 87.582 512.402 87.306C512.402 87.198 512.549 76.4767 525.237 73.6327C525.508 73.5767 525.774 73.7433 525.834 74.0113C525.894 74.2807 525.725 74.5487 525.456 74.61C513.568 77.274 513.404 86.898 513.402 87.3073C513.401 87.582 513.178 87.806 512.902 87.806Z" fill="black"/>
</g>
</g>
<path d="M536.447 107.082C535.019 109.563 532.577 111.157 530.296 111.731C526.863 112.598 525.236 109.506 526.264 106.314C527.189 103.441 530.091 99.526 533.501 100.077C536.86 100.618 538.08 104.243 536.447 107.082Z" fill="#FFC6B2"/>
<path d="M493.294 456.293L511.412 456.568C511.412 456.568 516.326 384.874 515.779 351.529C515.615 341.384 516.719 327.109 518.398 311.777C520.52 292.46 521.644 284.736 524.428 260.314C526.412 242.9 528.404 230.91 528.404 230.91L490.774 230.578C490.774 230.578 485.955 317.906 486.944 350.556C487.968 384.504 493.294 456.293 493.294 456.293Z" fill="#1A2E35"/>
<g opacity="0.199997">
<g opacity="0.199997">
<path opacity="0.199997" d="M516.723 254.582C511.087 271.786 513.526 311.071 517.35 321.925C517.667 318.617 518.021 315.226 518.395 311.781C520.525 292.454 521.65 284.738 524.434 260.318C524.483 259.833 524.546 259.361 524.594 258.89C522.146 257.006 519.493 255.455 516.723 254.582Z" fill="black"/>
</g>
</g>
<path d="M511.077 230.758C511.077 230.758 523.854 320.641 528.405 351.667C533.389 385.643 544.438 456.579 544.438 456.579H564.041C564.041 456.579 560.355 389.723 556.139 356.507C551.337 318.671 548.013 231.087 548.013 231.087L511.077 230.758Z" fill="#1A2E35"/>
<path d="M542.092 457.004H565.175V450.108L539.372 449.659L542.092 457.004Z" fill="#0A4E98"/>
<path d="M490.567 456.678L512.118 457.017L513.106 450.04L489.068 449.296L490.567 456.678Z" fill="#0A4E98"/>
<path d="M515.814 99.099C515.806 99.9616 515.342 100.659 514.78 100.654C514.214 100.648 513.764 99.9443 513.772 99.0803C513.78 98.219 514.242 97.5216 514.806 97.527C515.37 97.5323 515.822 98.2376 515.814 99.099Z" fill="#1A2E35"/>
<path d="M506.058 99.0131C506.05 99.8758 505.586 100.572 505.022 100.566C504.458 100.561 504.006 99.8584 504.014 98.9944C504.022 98.1318 504.486 97.4344 505.05 97.4398C505.614 97.4451 506.066 98.1504 506.058 99.0131Z" fill="#1A2E35"/>
<path d="M508.861 99.914C508.861 99.914 506.855 104.877 504.672 107.261C506.187 108.699 508.788 108.07 508.788 108.07L508.861 99.914Z" fill="#FF8A35"/>
<path d="M512.701 110.638C515.988 110.223 517.532 107.958 517.603 107.851C517.68 107.735 517.648 107.578 517.532 107.501C517.416 107.423 517.259 107.454 517.18 107.57C517.163 107.598 515.359 110.227 511.581 110.195C511.441 110.194 511.327 110.306 511.325 110.445C511.324 110.586 511.437 110.701 511.577 110.702C511.972 110.705 512.347 110.682 512.701 110.638Z" fill="#1A2E35"/>
<path d="M518.851 95.9753C518.935 95.9646 519.018 95.9339 519.09 95.8793C519.315 95.7126 519.362 95.3939 519.195 95.1699C517.523 92.9179 515.184 93.0353 515.086 93.0406C514.806 93.0579 514.594 93.2979 514.611 93.5779C514.628 93.8566 514.867 94.0686 515.146 94.0539C515.223 94.0499 517.046 93.9779 518.38 95.7753C518.494 95.9273 518.676 95.9979 518.851 95.9753Z" fill="#1A2E35"/>
<path d="M501.883 95.6186C502.047 95.5986 502.197 95.4999 502.274 95.3413C503.271 93.3373 505.078 93.0866 505.155 93.0759C505.431 93.0399 505.629 92.7879 505.595 92.5106C505.562 92.2346 505.311 92.0359 505.034 92.0693C504.934 92.0839 502.614 92.3786 501.367 94.8906C501.242 95.1413 501.345 95.4453 501.595 95.5706C501.689 95.6159 501.789 95.6319 501.883 95.6186Z" fill="#1A2E35"/>
<path d="M548.279 470.947C546.445 471.311 545.052 471.245 544.487 470.752C544.239 470.537 544.14 470.237 544.181 469.833C544.201 469.637 544.284 469.571 544.355 469.536C544.983 469.22 546.911 470.136 548.279 470.947ZM546.181 471.688C547.172 471.688 548.248 471.481 548.999 471.303C549.099 471.279 549.177 471.197 549.197 471.096C549.219 470.996 549.177 470.896 549.093 470.841C548.713 470.597 545.351 468.476 544.141 469.085C543.953 469.18 543.721 469.38 543.676 469.803C543.617 470.368 543.775 470.819 544.144 471.141C544.612 471.548 545.367 471.688 546.181 471.688Z" fill="#0A4E98"/>
<path d="M546.962 466.971C547.171 466.971 547.359 467.045 547.535 467.194C548.304 467.845 548.571 469.645 548.656 470.547C547.591 469.711 546.302 467.941 546.466 467.234C546.482 467.17 546.516 467.019 546.847 466.979C546.886 466.974 546.924 466.971 546.962 466.971ZM548.939 471.31C548.987 471.31 549.036 471.295 549.079 471.269C549.159 471.219 549.207 471.129 549.203 471.037C549.199 470.905 549.072 467.818 547.872 466.801C547.56 466.537 547.2 466.427 546.806 466.475C546.196 466.55 546.022 466.923 545.972 467.139C545.695 468.333 547.738 470.677 548.819 471.278C548.856 471.299 548.898 471.31 548.939 471.31Z" fill="#0A4E98"/>
<path d="M489.378 469.214C490.204 468.947 492.473 469.874 494.113 470.708C491.726 471.064 489.973 470.935 489.354 470.342C489.137 470.131 489.056 469.863 489.105 469.52C489.125 469.388 489.178 469.308 489.284 469.252C489.313 469.239 489.345 469.226 489.378 469.214ZM494.968 471.075C495.058 471.044 495.129 470.967 495.15 470.872C495.172 470.766 495.125 470.66 495.033 470.61C494.565 470.351 490.416 468.103 489.068 468.806C488.808 468.943 488.646 469.174 488.602 469.474V469.475C488.53 469.979 488.661 470.396 488.993 470.715C490.094 471.772 493.188 471.399 494.934 471.082C494.945 471.08 494.957 471.076 494.968 471.075Z" fill="#0A4E98"/>
<path d="M492.411 466.461L492.406 466.462L492.411 466.461ZM492.158 466.762C492.225 466.74 492.31 466.722 492.419 466.713C492.805 466.681 493.135 466.792 493.43 467.052C494.273 467.801 494.535 469.53 494.614 470.374C493.351 469.561 491.738 467.714 491.906 466.99C491.915 466.945 491.942 466.83 492.158 466.762ZM494.967 471.074C494.991 471.066 495.014 471.056 495.034 471.042C495.111 470.989 495.158 470.902 495.155 470.813C495.151 470.69 495.061 467.804 493.778 466.665C493.386 466.318 492.923 466.164 492.403 466.209C491.702 466.268 491.477 466.618 491.411 466.901C491.133 468.109 493.53 470.464 494.782 471.062C494.839 471.09 494.906 471.094 494.967 471.074Z" fill="#0A4E98"/>
<path d="M537.059 132.725C535.695 132.535 534.33 133.012 533.391 134.019C529.71 137.969 520.935 150.239 519.115 178.777C516.799 215.111 525.003 242.889 525.003 242.889L547.799 236.42C549.313 235.989 550.29 234.531 550.11 232.969C549.487 227.587 548.167 214.803 547.799 200.444C547.541 190.328 548.302 181.231 548.263 177.097C545.762 172.185 541.249 164.173 542.874 155.444C544.689 145.697 550.058 144.357 553.702 142.572C555.826 141.531 555.755 138.456 553.627 137.424C547.531 134.472 540.462 133.199 537.059 132.725Z" fill="#0A4E98"/>
<path d="M504.966 242.889L489.334 237.988C488.142 237.615 487.277 236.584 487.114 235.344C485.759 225.028 480.213 177.656 487.413 142.484C487.909 140.065 489.615 138.079 491.949 137.271C495.006 136.215 499.771 134.88 505.821 134.237C506.417 134.175 506.883 134.737 506.726 135.315C503.754 146.155 498.83 205.72 504.966 242.889Z" fill="#0A4E98"/>
<path d="M484.466 206.626C484.746 211.613 485.106 216.213 485.466 220.253C491.133 220.893 496.933 221.333 502.693 221.613C502.426 217.2 502.239 212.68 502.146 208.133C496.173 207.814 490.226 207.333 484.466 206.626Z" fill="white"/>
<path d="M502.293 183.107C495.96 182.84 489.733 182.347 483.813 181.586C483.773 186.199 483.826 190.734 483.96 195.094C489.84 195.814 495.92 196.28 502.053 196.532C502.066 191.987 502.16 187.48 502.293 183.107Z" fill="white"/>
<path d="M548.04 207.24C539.706 208.053 529.8 208.546 519.373 208.56C519.746 213.453 520.253 217.96 520.826 221.974C531.026 221.906 540.666 221.374 548.933 220.56C548.586 216.506 548.266 211.974 548.04 207.24Z" fill="white"/>
<path d="M548.146 181.667C539.279 182.585 529.199 183.213 518.879 183.347C518.693 188 518.666 192.493 518.759 196.773C528.959 196.64 538.879 196.04 547.759 195.147C547.773 189.947 547.999 185.24 548.146 181.667Z" fill="white"/>
<path d="M589.996 250.997L529.427 261.101C527.735 261.384 526.256 260.232 526.125 258.527L523.231 220.983C523.1 219.279 524.365 217.669 526.057 217.387L586.627 207.283C588.319 207 589.799 208.152 589.929 209.857L592.823 247.401C592.955 249.105 591.689 250.715 589.996 250.997Z" fill="#0A4E98"/>
<g opacity="0.399994">
<g opacity="0.399994">
<path opacity="0.399994" d="M589.996 250.997L530.827 260.868C529.135 261.151 527.656 259.997 527.524 258.295L524.631 220.749C524.499 219.045 525.765 217.435 527.457 217.152L586.627 207.283C588.319 207 589.799 208.152 589.929 209.857L592.823 247.401C592.955 249.105 591.689 250.715 589.996 250.997Z" fill="black"/>
</g>
</g>
<path d="M554.62 144.861C557.988 152.541 560.98 160.191 563.685 168.074C565.064 171.998 566.314 175.973 567.54 179.978C568.136 181.991 568.708 184.005 569.25 186.05L569.661 187.578L570.093 189.337C570.406 190.537 570.57 191.73 570.785 192.922C572.086 202.483 570.682 211.426 568.421 219.787C567.274 223.977 565.844 228.03 564.214 231.975C563.38 233.941 562.5 235.881 561.572 237.795C560.642 239.735 559.69 241.558 558.54 243.519L551.284 240.069C552.44 236.458 553.616 232.566 554.486 228.757C555.429 224.939 556.188 221.099 556.756 217.291C557.284 213.481 557.686 209.694 557.67 206.005C557.722 202.318 557.396 198.737 556.66 195.441C556.445 194.635 556.286 193.803 556.016 193.041L555.632 191.845L555.129 190.445C554.476 188.579 553.749 186.718 553.062 184.847C551.678 181.102 550.169 177.378 548.709 173.63L539.7 151.23L554.62 144.861Z" fill="#FFC6B2"/>
<path d="M552.193 138.072C561.799 141.596 568.031 169.254 568.031 169.254L546.757 183.92C546.757 183.92 540.225 167.586 536.63 154.86C532.715 140.996 540.555 133.804 552.193 138.072Z" fill="#0A4E98"/>
<g opacity="0.5">
<g opacity="0.5">
<path opacity="0.5" d="M552.193 138.072C561.799 141.596 568.031 169.254 568.031 169.254L546.757 183.92C546.757 183.92 540.225 167.586 536.63 154.86C532.715 140.996 540.555 133.804 552.193 138.072Z" fill="white"/>
</g>
</g>
<path d="M550.441 241.742L548.585 249.942L561.405 249.573C561.405 249.573 562.429 239.668 557.357 238.104L553.401 238.872C551.933 239.157 550.772 240.282 550.441 241.742Z" fill="#FFC6B2"/>
<path d="M552.605 260.181L560.301 258.612C561.238 258.422 561.89 257.57 561.833 256.617L561.405 249.573L548.586 249.942L550.342 258.68C550.55 259.72 551.565 260.392 552.605 260.181Z" fill="#FFC6B2"/>
<path d="M440.637 80.3711H210.469C207.727 80.3711 205.527 82.6351 205.609 85.3764L214.893 402.367C214.97 404.996 217.123 407.087 219.753 407.087H449.921C452.663 407.087 454.862 404.823 454.782 402.082L445.498 85.0911C445.421 82.4617 443.267 80.3711 440.637 80.3711Z" fill="#0A4E98"/>
<g opacity="0.199997">
<g opacity="0.199997">
<path opacity="0.199997" d="M440.637 80.3711H210.469C207.727 80.3711 205.527 82.6351 205.609 85.3764L214.893 402.367C214.97 404.996 217.123 407.087 219.753 407.087H449.921C452.663 407.087 454.862 404.823 454.782 402.082L445.498 85.0911C445.421 82.4617 443.267 80.3711 440.637 80.3711Z" fill="black"/>
</g>
</g>
<path d="M261.003 77.0374H239.408V75.7041H261.003V77.0374Z" fill="#0A4E98"/>
<path d="M231.703 77.0374H226.223V75.7041H231.703V77.0374Z" fill="#0A4E98"/>
<path d="M442.857 80.3711H212.689C209.947 80.3711 207.747 82.6351 207.829 85.3764L217.113 402.367C217.19 404.996 219.343 407.087 221.974 407.087H452.141C454.883 407.087 457.082 404.823 457.002 402.082L447.718 85.0911C447.641 82.4617 445.487 80.3711 442.857 80.3711Z" fill="#0A4E98"/>
<g opacity="0.199997">
<g opacity="0.199997">
<path opacity="0.199997" d="M217.69 97.547L226.338 392.794C226.414 395.414 228.603 397.54 231.225 397.54H439.65C442.273 397.54 444.335 395.414 444.258 392.794L435.61 97.547C435.534 94.9243 433.346 92.7976 430.723 92.7976H222.299C219.677 92.7976 217.613 94.9243 217.69 97.547Z" fill="black"/>
</g>
</g>
<path d="M219.131 96.1055L227.779 391.352C227.855 393.974 230.044 396.099 232.665 396.099H441.091C443.713 396.099 445.776 393.974 445.699 391.352L437.051 96.1055C436.975 93.4828 434.787 91.3575 432.164 91.3575H223.74C221.117 91.3575 219.053 93.4828 219.131 96.1055Z" fill="white"/>
<path d="M283.212 191.195H243.156L241.984 151.139H282.039L283.212 191.195Z" fill="#F5F5F5"/>
<path d="M413.616 167.047H300.363L300.144 159.572H413.396L413.616 167.047Z" fill="#E1E1E1"/>
<path d="M389.444 182.763H300.823L300.604 175.288H389.225L389.444 182.763Z" fill="#E1E1E1"/>
<path d="M285.317 263.053H245.261L244.089 222.999H284.144L285.317 263.053Z" fill="#F5F5F5"/>
<path d="M344.073 238.906H302.466L302.248 231.432H343.854L344.073 238.906Z" fill="#E1E1E1"/>
<path d="M383.482 238.906H352.878L352.66 231.432H383.262L383.482 238.906Z" fill="#E1E1E1"/>
<path d="M402.032 254.621H302.927L302.708 247.148H401.813L402.032 254.621Z" fill="#E1E1E1"/>
<path d="M287.422 334.913H247.366L246.193 294.857H286.249L287.422 334.913Z" fill="#F5F5F5"/>
<path d="M418.066 319.005H304.813L305.032 326.48H418.286L418.066 319.005Z" fill="#E1E1E1"/>
<path d="M392.975 303.289H304.353L304.572 310.764H393.193L392.975 303.289Z" fill="#E1E1E1"/>
<path d="M265.17 180.79C264.462 181.82 262.906 181.746 262.238 180.65C259.637 176.38 254.666 172.49 251.807 170.561C251.034 170.04 250.793 169.02 251.245 168.232L251.247 168.228C251.743 167.365 252.871 167.125 253.721 167.696C256.155 169.333 259.559 171.989 262.341 175.104C263.069 175.918 264.33 175.933 264.993 175.105C269.83 169.07 276.51 162.848 285.263 156.216C286.023 155.64 287.133 155.81 287.726 156.593C288.313 157.369 288.169 158.453 287.415 159.025C277.179 166.78 269.894 173.91 265.17 180.79Z" fill="#FF9825"/>
<path d="M267.275 252.65C266.567 253.679 265.011 253.604 264.343 252.51C261.741 248.239 256.771 244.348 253.912 242.42C253.139 241.899 252.897 240.878 253.349 240.09L253.352 240.086C253.848 239.224 254.976 238.984 255.824 239.555C258.26 241.192 261.664 243.847 264.445 246.963C265.173 247.778 266.435 247.792 267.097 246.964C271.935 240.93 278.615 234.707 287.368 228.074C288.128 227.499 289.237 227.67 289.831 228.451V228.452C290.417 229.227 290.273 230.312 289.519 230.884C279.284 238.638 271.999 245.768 267.275 252.65Z" fill="#FF9825"/>
<path d="M269.384 324.664C268.676 325.692 267.12 325.619 266.452 324.524C263.851 320.253 258.88 316.363 256.021 314.435C255.248 313.913 255.007 312.892 255.459 312.104L255.461 312.1C255.956 311.237 257.085 310.999 257.933 311.569C260.369 313.207 263.773 315.861 266.555 318.977C267.283 319.792 268.544 319.807 269.207 318.979C274.044 312.943 280.724 306.721 289.477 300.088C290.237 299.513 291.347 299.684 291.94 300.465V300.467C292.527 301.241 292.383 302.327 291.628 302.899C281.393 310.652 274.108 317.783 269.384 324.664Z" fill="#FF9825"/>
<path d="M361.887 378.16C355.748 378.16 352.467 375.892 349.571 373.891C346.803 371.976 344.188 370.168 338.999 370.168C333.812 370.168 331.303 371.976 328.645 373.891C325.868 375.892 322.72 378.16 316.581 378.16C310.443 378.16 307.161 375.892 304.267 373.891C301.499 371.976 298.884 370.168 293.696 370.168C288.509 370.168 286.001 371.976 283.345 373.891C280.568 375.892 277.42 378.16 271.281 378.16C265.144 378.16 261.863 375.892 258.968 373.891C256.2 371.976 253.585 370.168 248.399 370.168L248.311 367.171C254.449 367.171 257.729 369.44 260.625 371.441C263.393 373.355 266.008 375.164 271.193 375.164C276.381 375.164 278.889 373.355 281.545 371.441C284.323 369.44 287.471 367.171 293.609 367.171C299.747 367.171 303.028 369.44 305.923 371.441C308.692 373.355 311.305 375.164 316.493 375.164C321.68 375.164 324.191 373.355 326.847 371.441C329.624 369.44 332.773 367.171 338.912 367.171C345.051 367.171 348.332 369.44 351.227 371.441C353.996 373.355 356.611 375.164 361.799 375.164L361.887 378.16Z" fill="#ECECEC"/>
<path d="M381.714 89.5091H381.471L381.45 89.4371C378.376 79.6638 370.991 73.1851 362.926 73.1851H346.507C344.055 73.1851 341.791 71.4811 340.867 68.8704C338.66 62.6384 333.268 58.1984 327.071 58.1984C320.874 58.1984 315.71 62.6384 313.824 68.8704C313.035 71.4811 310.858 73.1851 308.408 73.1851H291.988C283.923 73.1851 276.872 79.6638 274.303 89.4371L274.283 89.5091H274.043C272.187 89.5091 270.715 91.2331 270.77 93.3411C270.824 95.4491 272.384 97.1731 274.239 97.1731H381.911C383.766 97.1731 385.239 95.4491 385.184 93.3411C385.13 91.2331 383.568 89.5091 381.714 89.5091Z" fill="#1A2E35"/>
<path d="M257.421 121.083C257.634 120.678 257.729 120.075 257.705 119.271C257.678 118.347 257.487 117.687 257.131 117.291C256.777 116.895 256.297 116.698 255.694 116.698C255.131 116.698 254.681 116.899 254.343 117.303C254.005 117.709 253.849 118.338 253.874 119.197C253.903 120.195 254.094 120.897 254.449 121.302C254.801 121.706 255.275 121.907 255.871 121.907C256.062 121.907 256.243 121.889 256.413 121.851C256.169 121.622 255.787 121.406 255.269 121.202L255.683 120.183C255.934 120.229 256.13 120.285 256.273 120.351C256.414 120.419 256.69 120.594 257.102 120.877C257.199 120.943 257.306 121.011 257.421 121.083ZM259.63 122.533C259.991 122.778 260.227 122.933 260.338 122.994C260.503 123.086 260.725 123.191 261.003 123.313L260.262 124.899C259.861 124.707 259.463 124.479 259.067 124.215C258.673 123.95 258.395 123.753 258.238 123.618C257.622 123.889 256.842 124.025 255.902 124.025C254.511 124.025 253.403 123.663 252.578 122.938C251.603 122.081 251.094 120.875 251.049 119.322C251.005 117.814 251.385 116.643 252.191 115.809C252.998 114.973 254.146 114.555 255.637 114.555C257.157 114.555 258.342 114.963 259.193 115.779C260.043 116.597 260.49 117.765 260.534 119.283C260.574 120.637 260.273 121.721 259.63 122.533Z" fill="#1A2E35"/>
<path d="M267.883 114.712H270.707L270.866 120.168C270.883 120.708 270.813 121.219 270.659 121.699C270.503 122.18 270.251 122.6 269.902 122.962C269.553 123.322 269.182 123.574 268.791 123.719C268.246 123.923 267.59 124.024 266.819 124.024C266.374 124.024 265.887 123.994 265.358 123.931C264.83 123.868 264.386 123.744 264.026 123.56C263.667 123.374 263.335 123.112 263.033 122.771C262.729 122.428 262.518 122.076 262.398 121.716C262.206 121.132 262.105 120.616 262.091 120.168L261.931 114.712H264.754L264.918 120.296C264.933 120.796 265.082 121.187 265.367 121.467C265.653 121.747 266.041 121.888 266.533 121.888C267.019 121.888 267.398 121.75 267.666 121.472C267.935 121.198 268.062 120.804 268.047 120.296L267.883 114.712Z" fill="#1A2E35"/>
<path d="M277.352 120.378L276.244 117.086L275.342 120.378H277.352ZM277.996 122.356H274.784L274.383 123.868H271.494L274.667 114.712H277.754L281.463 123.868H278.499L277.996 122.356Z" fill="#1A2E35"/>
<path d="M282.094 114.712H284.923L285.124 121.614H289.54L289.607 123.868H282.362L282.094 114.712Z" fill="#1A2E35"/>
<path d="M290.738 114.712H293.573L293.842 123.868H291.006L290.738 114.712Z" fill="#1A2E35"/>
<path d="M294.96 114.712H303.562L303.627 116.972H300.742L300.944 123.868H298.115L297.912 116.972H295.027L294.96 114.712Z" fill="#1A2E35"/>
<path d="M303.917 114.712H307.06L308.996 117.8L310.753 114.712H313.88L310.475 120.034L310.588 123.868H307.752L307.64 120.034L303.917 114.712Z" fill="#1A2E35"/>
<path d="M324.266 120.378L323.16 117.086L322.256 120.378H324.266ZM324.912 122.356H321.7L321.297 123.868H318.408L321.581 114.712H324.668L328.377 123.868H325.413L324.912 122.356Z" fill="#1A2E35"/>
<path d="M328.694 120.84L331.381 120.671C331.451 121.108 331.581 121.441 331.766 121.671C332.069 122.04 332.49 122.225 333.031 122.225C333.435 122.225 333.745 122.132 333.957 121.941C334.17 121.753 334.274 121.533 334.266 121.283C334.259 121.045 334.149 120.833 333.935 120.645C333.722 120.459 333.233 120.281 332.47 120.115C331.222 119.836 330.326 119.465 329.783 119.003C329.237 118.54 328.953 117.952 328.931 117.236C328.918 116.764 329.041 116.32 329.302 115.903C329.562 115.483 329.963 115.153 330.503 114.916C331.045 114.676 331.791 114.556 332.745 114.556C333.915 114.556 334.813 114.773 335.441 115.208C336.067 115.644 336.453 116.336 336.597 117.285L333.935 117.441C333.851 117.029 333.694 116.729 333.462 116.541C333.229 116.355 332.914 116.26 332.514 116.26C332.185 116.26 331.939 116.331 331.777 116.471C331.614 116.609 331.535 116.78 331.542 116.979C331.546 117.125 331.618 117.256 331.759 117.372C331.895 117.493 332.215 117.605 332.718 117.709C333.963 117.977 334.857 118.247 335.399 118.519C335.943 118.792 336.342 119.131 336.598 119.535C336.853 119.937 336.989 120.389 337.002 120.889C337.019 121.477 336.873 122.019 336.563 122.513C336.253 123.009 335.81 123.384 335.234 123.641C334.659 123.897 333.927 124.025 333.041 124.025C331.483 124.025 330.395 123.725 329.778 123.125C329.162 122.527 328.801 121.764 328.694 120.84Z" fill="#1A2E35"/>
<path d="M337.932 120.84L340.62 120.671C340.69 121.108 340.818 121.441 341.005 121.671C341.306 122.04 341.729 122.225 342.269 122.225C342.674 122.225 342.982 122.132 343.196 121.941C343.408 121.753 343.512 121.533 343.504 121.283C343.497 121.045 343.386 120.833 343.173 120.645C342.96 120.459 342.47 120.281 341.709 120.115C340.46 119.836 339.564 119.465 339.021 119.003C338.474 118.54 338.19 117.952 338.17 117.236C338.156 116.764 338.28 116.32 338.54 115.903C338.8 115.483 339.201 115.153 339.741 114.916C340.282 114.676 341.029 114.556 341.982 114.556C343.153 114.556 344.052 114.773 344.678 115.208C345.305 115.644 345.69 116.336 345.836 117.285L343.173 117.441C343.09 117.029 342.932 116.729 342.7 116.541C342.468 116.355 342.152 116.26 341.752 116.26C341.422 116.26 341.177 116.331 341.014 116.471C340.852 116.609 340.773 116.78 340.78 116.979C340.784 117.125 340.856 117.256 340.997 117.372C341.133 117.493 341.454 117.605 341.957 117.709C343.201 117.977 344.094 118.247 344.638 118.519C345.181 118.792 345.58 119.131 345.836 119.535C346.092 119.937 346.226 120.389 346.24 120.889C346.258 121.477 346.112 122.019 345.801 122.513C345.49 123.009 345.048 123.384 344.472 123.641C343.897 123.897 343.165 124.025 342.278 124.025C340.721 124.025 339.634 123.725 339.017 123.125C338.4 122.527 338.038 121.764 337.932 120.84Z" fill="#1A2E35"/>
<path d="M353.443 114.712H356.265L356.425 120.168C356.441 120.708 356.372 121.219 356.217 121.699C356.063 122.18 355.811 122.6 355.461 122.962C355.111 123.322 354.741 123.574 354.349 123.719C353.805 123.923 353.149 124.024 352.379 124.024C351.933 124.024 351.445 123.994 350.917 123.931C350.388 123.868 349.944 123.744 349.585 123.56C349.225 123.374 348.895 123.112 348.591 122.771C348.288 122.428 348.076 122.076 347.957 121.716C347.765 121.132 347.663 120.616 347.649 120.168L347.491 114.712H350.313L350.476 120.296C350.492 120.796 350.641 121.187 350.927 121.467C351.212 121.747 351.6 121.888 352.091 121.888C352.579 121.888 352.956 121.75 353.225 121.472C353.495 121.198 353.621 120.804 353.607 120.296L353.443 114.712Z" fill="#1A2E35"/>
<path d="M361.128 118.422H362.321C362.45 118.422 362.698 118.381 363.066 118.297C363.253 118.259 363.404 118.165 363.517 118.009C363.632 117.855 363.685 117.678 363.68 117.479C363.672 117.183 363.572 116.955 363.378 116.798C363.186 116.639 362.833 116.561 362.317 116.561H361.073L361.128 118.422ZM358.445 123.869L358.177 114.713H362.893C363.766 114.713 364.437 114.786 364.905 114.937C365.372 115.087 365.752 115.365 366.046 115.771C366.342 116.177 366.498 116.671 366.516 117.254C366.53 117.762 366.434 118.201 366.229 118.569C366.022 118.938 365.734 119.235 365.361 119.465C365.124 119.611 364.796 119.731 364.378 119.827C364.718 119.941 364.968 120.053 365.125 120.165C365.23 120.239 365.386 120.399 365.592 120.647C365.796 120.893 365.933 121.082 366.004 121.215L367.452 123.869H364.254L362.661 121.07C362.458 120.709 362.281 120.473 362.128 120.365C361.92 120.223 361.686 120.153 361.429 120.153H361.178L361.288 123.869H358.445Z" fill="#1A2E35"/>
<path d="M373.298 120.378L372.19 117.086L371.287 120.378H373.298ZM373.943 122.356H370.73L370.329 123.868H367.439L370.613 114.712H373.699L377.409 123.868H374.445L373.943 122.356Z" fill="#1A2E35"/>
<path d="M378.058 114.712H380.701L384.297 119.778L384.149 114.712H386.815L387.083 123.868H384.417L380.839 118.842L380.987 123.868H378.327L378.058 114.712Z" fill="#1A2E35"/>
<path d="M394.95 120.121L397.451 120.87C397.306 121.566 397.061 122.148 396.715 122.613C396.371 123.08 395.937 123.43 395.413 123.669C394.89 123.906 394.217 124.025 393.397 124.025C392.402 124.025 391.585 123.88 390.945 123.592C390.306 123.302 389.746 122.793 389.267 122.065C388.787 121.337 388.531 120.404 388.498 119.268C388.454 117.754 388.822 116.59 389.605 115.776C390.386 114.962 391.514 114.556 392.989 114.556C394.142 114.556 395.055 114.789 395.729 115.256C396.402 115.721 396.914 116.437 397.262 117.404L394.781 117.96C394.685 117.681 394.587 117.477 394.487 117.348C394.323 117.132 394.125 116.965 393.893 116.848C393.659 116.732 393.402 116.673 393.118 116.673C392.478 116.673 391.994 116.93 391.667 117.446C391.421 117.829 391.31 118.43 391.333 119.25C391.363 120.264 391.537 120.96 391.857 121.337C392.175 121.712 392.614 121.901 393.173 121.901C393.714 121.901 394.118 121.749 394.386 121.445C394.654 121.141 394.842 120.7 394.95 120.121Z" fill="#1A2E35"/>
<path d="M398.639 114.712H406.222L406.279 116.667H401.531L401.575 118.123H405.978L406.033 119.99H401.63L401.682 121.795H406.567L406.627 123.868H398.907L398.639 114.712Z" fill="#1A2E35"/>
<path d="M167.661 229.97C167.661 229.97 163.879 312.945 163.158 346.55C162.406 381.502 162.071 463.129 162.071 463.129H153.25C153.25 463.129 139.179 395.289 143.343 346.55C137.042 309.122 132.786 229.97 132.786 229.97H167.661Z" fill="#FFB3A0"/>
<path d="M155.965 229.97C155.965 229.97 134.947 316.863 126.355 349.358C117.331 383.485 105.142 460.598 105.071 463.129H97.4435C97.4435 463.129 95.0408 374.042 107.115 343.739C107.165 305.787 122.907 229.97 122.907 229.97H155.965Z" fill="#FFB3A0"/>
<path d="M97.2493 458.5C95.8027 460.155 94.6493 468.715 96.8213 472.529C98.992 476.344 96.8213 481.984 104.161 481.984C111.501 481.984 112.225 480.387 110.364 476.975C108.504 473.564 106.372 467.141 106.44 463.129C106.525 457.967 108.513 455.297 97.2493 458.5Z" fill="#1A2E35"/>
<path d="M96.3503 467.422C96.1903 471.821 96.2836 479.014 96.2836 479.014L97.4436 478.981C97.4436 478.981 98.3049 471.122 99.0436 468.206L96.3503 467.422Z" fill="#1A2E35"/>
<path d="M175.177 176.897C176.126 183.661 176.964 190.439 177.732 197.228C178.537 204.012 179.261 210.808 179.938 217.613C180.11 219.307 180.244 221.092 180.538 222.501C180.652 223.241 180.798 224.007 180.973 224.811C181.144 225.601 181.274 226.395 181.477 227.189C182.204 230.363 183.116 233.551 184.093 236.732C185.066 239.919 186.112 243.112 187.28 246.269C188.413 249.429 189.63 252.628 190.848 255.712L185.928 258.344C182.068 252.395 178.849 246.237 175.977 239.759C174.581 236.509 173.26 233.208 172.181 229.764C171.888 228.919 171.657 228.033 171.394 227.165C171.125 226.315 170.898 225.407 170.682 224.464C170.168 222.536 169.976 220.903 169.698 219.197C168.63 212.401 167.613 205.596 166.674 198.779C165.698 191.967 164.793 185.143 163.998 178.305L175.177 176.897Z" fill="#FFB3A0"/>
<path d="M173.236 167.016C176.042 172.253 177.499 192.928 179.834 207.141C180.003 208.172 179.399 209.162 178.418 209.524C174.94 210.804 171.899 213.009 169.854 214.748C168.603 215.812 166.675 215.145 166.328 213.54L159.676 182.713L162.57 176.884C164.024 171.874 168.127 168.076 173.236 167.016Z" fill="#1A2E35"/>
<path d="M190.766 254.645L200.468 260.097L189.975 264.029C189.975 264.029 184.604 259.421 185.592 254.949L190.766 254.645Z" fill="#FFB3A0"/>
<path d="M204.032 268.647L195.068 271.463L189.975 264.029L200.468 260.097L204.032 268.647Z" fill="#FFB3A0"/>
<path d="M174.221 170.837C174.395 178.827 173.909 201.404 168.293 235.929H121.51C122.261 217.715 124.546 200.345 115.839 162.964C115.839 162.964 124.351 161.103 133.978 160.64C141.509 160.276 147.679 160.035 154.301 160.64C158.677 161.039 163.347 161.748 166.917 162.355C171.073 163.061 174.127 166.623 174.221 170.837Z" fill="#1A2E35"/>
<g opacity="0.199997">
<g opacity="0.199997">
<path opacity="0.199997" d="M150.224 236.096C150.219 236.096 150.212 236.096 150.205 236.095C150.115 236.086 150.048 236.004 150.059 235.911C154.316 196.211 150.575 180.38 150.536 180.226C150.515 180.135 150.569 180.046 150.657 180.023C150.756 179.999 150.837 180.056 150.86 180.144C150.899 180.3 154.653 196.188 150.389 235.948C150.38 236.032 150.308 236.096 150.224 236.096Z" fill="white"/>
</g>
</g>
<path d="M154.3 160.639H133.979C133.979 160.639 140.965 172.37 150.224 178.557C156.001 169.889 154.3 160.639 154.3 160.639Z" fill="#E1E1E1"/>
<path d="M142.774 131.745C147.343 139.471 145.515 149.005 138.691 153.041C131.867 157.075 122.633 154.085 118.063 146.358C113.494 138.633 115.322 129.098 122.146 125.062C128.969 121.027 138.205 124.019 142.774 131.745Z" fill="#1A2E35"/>
<path d="M114.047 140.181C113.83 135.764 115.146 131.534 117.754 128.27C120.371 124.996 123.975 123.088 127.902 122.893C131.842 122.696 135.603 124.246 138.528 127.249C141.444 130.24 143.17 134.32 143.387 138.737L142.72 138.77C142.511 134.516 140.852 130.589 138.051 127.713C135.26 124.85 131.664 123.376 127.935 123.56C124.202 123.744 120.771 125.564 118.275 128.688C115.768 131.822 114.504 135.893 114.714 140.148L114.047 140.181Z" fill="#1A2E35"/>
<path d="M166.464 143.995C162.839 151.481 154.132 154.759 147.017 151.313C139.901 147.868 137.073 139.007 140.699 131.519C144.324 124.031 153.031 120.753 160.145 124.199C167.261 127.644 170.089 136.507 166.464 143.995Z" fill="#1A2E35"/>
<path d="M135.992 137.757C137.273 144.295 138.553 156.277 133.978 160.639C133.978 160.639 137.513 167.557 147.958 170.001C154.458 165.945 154.3 160.639 154.3 160.639C147.009 158.898 147.197 153.489 148.466 148.407L135.992 137.757Z" fill="#FFB3A0"/>
<path d="M143.695 168.629L134.587 157.889L131.439 159.556L130.921 175.074L137.662 166.222L143.695 168.629Z" fill="white"/>
<path d="M149.872 168.622L152.832 158.973L156.55 160.64L160.624 173.704L154.544 166.222L149.872 168.622Z" fill="white"/>
<g opacity="0.199997">
<g opacity="0.199997">
<path opacity="0.199997" d="M141.077 142.103L148.461 148.403C148.156 149.604 147.919 150.824 147.835 152.009C145.049 151.607 141.223 148.549 140.927 145.632C140.779 144.179 140.84 142.78 141.077 142.103Z" fill="black"/>
</g>
</g>
<path d="M129.095 125.763C131.659 136.395 132.518 140.95 138.923 145.504C148.559 152.356 161.056 146.882 161.72 135.699C162.318 125.632 158.026 109.938 146.747 107.523C135.635 105.146 126.531 115.131 129.095 125.763Z" fill="#FFB3A0"/>
<path d="M131.523 130.667C138.179 126.667 137.307 114.712 137.307 114.712C148.846 114.556 153.349 114.729 156.819 115.197C160.291 115.667 158.189 111.005 153.018 107.169C147.846 103.333 133.958 104.444 129.625 111.777C124.291 113.889 119.201 126 131.523 130.667Z" fill="#1A2E35"/>
<g opacity="0.199997">
<g opacity="0.199997">
<path opacity="0.199997" d="M163.415 336.521L141.121 331.086C140.513 326.348 139.942 321.31 139.397 316.124L163.937 320.417C163.738 326.173 163.565 331.62 163.415 336.521Z" fill="black"/>
</g>
</g>
<g opacity="0.199997">
<g opacity="0.199997">
<path opacity="0.199997" d="M109.497 310.901L135.017 315.356C133.851 320.008 132.721 324.512 131.655 328.766L108.219 323.046C108.579 319.114 109.001 315.045 109.497 310.901Z" fill="black"/>
</g>
</g>
<path d="M147.903 125.879C148.058 126.754 148.648 127.382 149.22 127.28C149.792 127.18 150.13 126.388 149.975 125.512C149.819 124.636 149.231 124.01 148.658 124.111C148.087 124.212 147.748 125.004 147.903 125.879Z" fill="#1A2E35"/>
<path d="M157.796 124.126C157.95 125.002 158.541 125.629 159.112 125.529C159.685 125.428 160.022 124.636 159.868 123.761C159.712 122.885 159.124 122.258 158.55 122.36C157.978 122.46 157.641 123.252 157.796 124.126Z" fill="#1A2E35"/>
<path d="M158.307 122.452L160.301 121.475C160.301 121.475 159.513 123.308 158.307 122.452Z" fill="#1A2E35"/>
<path d="M155.447 126.094C155.447 126.094 157.601 129.599 159.557 131.126C158.593 132.41 156.541 132.266 156.541 132.266L155.447 126.094Z" fill="#FF5551"/>
<path d="M151.312 136.391C151.78 136.391 152.277 136.351 152.803 136.257C152.944 136.232 153.039 136.096 153.013 135.955C152.988 135.813 152.857 135.719 152.711 135.744C148.873 136.425 146.601 134.059 146.579 134.035C146.48 133.928 146.315 133.923 146.209 134.023C146.104 134.121 146.099 134.287 146.197 134.391C146.284 134.484 148.113 136.391 151.312 136.391Z" fill="#1A2E35"/>
<path d="M127.608 131.824C128.463 133.924 130.208 135.434 131.937 136.13C134.537 137.175 136.143 134.923 135.677 132.308C135.259 129.956 133.4 126.575 130.667 126.644C127.973 126.711 126.631 129.424 127.608 131.824Z" fill="#FFB3A0"/>
<path d="M143.548 121.892C143.685 121.88 143.819 121.813 143.911 121.697C145.359 119.873 147.272 120.031 147.295 120.032C147.579 120.056 147.836 119.849 147.863 119.561C147.889 119.273 147.68 119.02 147.392 118.992C147.292 118.983 144.889 118.784 143.093 121.048C142.915 121.273 142.952 121.601 143.177 121.781C143.287 121.867 143.42 121.904 143.548 121.892Z" fill="#1A2E35"/>
<path d="M159.645 118.658C159.767 118.614 159.872 118.523 159.935 118.399C160.061 118.139 159.955 117.827 159.696 117.699C157.105 116.426 155.019 117.632 154.931 117.686C154.683 117.834 154.601 118.154 154.749 118.402C154.896 118.648 155.216 118.731 155.464 118.584C155.544 118.536 157.175 117.624 159.235 118.636C159.368 118.702 159.516 118.706 159.645 118.658Z" fill="#1A2E35"/>
<path d="M148.414 124.204L150.409 123.227C150.409 123.227 149.621 125.059 148.414 124.204Z" fill="#1A2E35"/>
<path d="M168.293 235.93L166.37 328.767L106.518 320.239C104.125 271.687 112.516 246.215 121.51 235.93H168.293Z" fill="#1A2E35"/>
<g opacity="0.199997">
<g opacity="0.199997">
<path opacity="0.199997" d="M152.59 290.258L138.338 273.111V259.57L152.59 290.258Z" fill="black"/>
</g>
</g>
<path d="M121.701 174.964C119.916 180.306 118.199 185.861 116.572 191.325C114.977 196.814 113.501 202.338 112.348 207.813C111.807 210.546 111.261 213.282 110.979 215.934L110.916 216.434L110.884 216.685C110.873 216.762 110.877 216.708 110.871 216.725C110.849 216.729 110.831 216.738 110.821 216.776C110.793 216.842 110.815 217.037 110.913 217.32C111.128 217.896 111.731 218.73 112.523 219.529C114.108 221.174 116.321 222.757 118.616 224.216C120.911 225.678 123.432 227.094 125.856 228.364L124.147 233.676C121.036 233.082 118.144 232.266 115.195 231.158C112.268 230.022 109.368 228.68 106.5 226.532C105.085 225.428 103.643 224.116 102.396 222.154C101.785 221.162 101.237 219.99 100.951 218.616C100.803 217.937 100.723 217.214 100.724 216.49L100.733 215.984L100.753 215.689L100.792 215.1C100.885 213.518 101.009 211.953 101.204 210.43C101.352 208.88 101.615 207.386 101.84 205.874C102.795 199.856 104.213 194.048 105.751 188.285C106.513 185.404 107.335 182.546 108.237 179.714C109.131 176.864 110.029 174.078 111.08 171.205L121.701 174.964Z" fill="#FFB3A0"/>
<path d="M124.676 227.958L136.555 228.741L128.787 236.817C128.787 236.817 121.954 234.978 120.915 230.517L124.676 227.958Z" fill="#FFB3A0"/>
<path d="M140.412 234.986L137.072 239.704C136.461 240.568 135.296 240.831 134.373 240.312L127.091 236.222L136.555 228.74L140.179 232.323C140.897 233.034 140.996 234.162 140.412 234.986Z" fill="#FFB3A0"/>
<path d="M125.484 172.833C124.647 167.684 120.783 164.635 115.84 162.964C108.562 168.231 104.999 185.64 100.974 205.919C100.734 207.131 101.386 208.347 102.526 208.821C105.708 210.148 108.423 211.44 110.252 212.349C111.604 213.023 113.236 212.396 113.8 210.995L126.812 178.711L125.484 172.833Z" fill="#1A2E35"/>
<path d="M178.824 479.816C177.716 478.89 175.94 478.122 174.37 477.568H174.374C174.374 477.568 166.476 473.111 162.366 459.703L153.239 457.422C152.275 457.18 151.315 457.835 151.198 458.82C151.111 459.543 151.058 460.367 150.966 461.036C150.795 462.28 150.944 464.164 150.966 465.395C151.044 469.926 151.55 480.111 151.55 480.111H152.61C152.61 480.111 152.643 473.848 153.171 470.864C153.699 467.88 155.806 471.414 156.988 474.79C158.17 478.168 162.916 481.768 169.816 481.936C177.895 482.132 181.17 481.78 178.824 479.816Z" fill="#1A2E35"/>
</svg>
