<svg width="593" height="485" viewBox="0 0 593 485" fill="none" xmlns="http://www.w3.org/2000/svg">
<path d="M217.049 423.849C248.579 427.904 280.38 428.51 312.107 429.725C326.653 430.282 340.913 429.612 354.344 434.829C366.917 439.716 376.959 449.524 389.933 453.728C400.004 456.989 410.865 456.876 421.383 455.678C465.867 450.617 507.744 425.844 533.601 389.294C557.283 355.82 567.171 312.986 560.967 272.489C557.205 247.926 545.903 225.02 543.192 200.27C540.328 174.106 550.321 151.296 556.635 126.414C561.039 109.065 562.963 91.0877 562.331 73.1983C561.965 62.893 560.671 52.329 555.796 43.241C542.551 18.5583 509.155 13.901 481.28 16.6823C446.777 20.1263 412.355 30.7703 382 47.5317C358.032 60.7663 334.293 80.0316 306.787 85.253C275.771 91.1423 251.78 69.8863 223.867 60.1917C161.061 38.3783 85.2335 81.2276 57.5468 138.218C23.3668 208.573 27.2575 323.665 91.2335 375.877C126.097 404.33 171.023 417.778 215.637 423.664C216.108 423.726 216.579 423.788 217.049 423.849Z" fill="#D1DEEC"/>
<path d="M472.582 336.615C472.681 336.557 473.294 337.369 474.203 338.968C475.118 340.561 476.254 342.981 477.31 346.104C479.474 352.328 480.831 361.517 480.027 371.536C479.227 381.555 476.911 390.349 475.125 396.609C473.298 402.872 471.951 406.673 471.721 406.609C471.463 406.539 472.371 402.605 473.871 396.281C475.333 389.959 477.419 381.211 478.201 371.397C478.986 361.587 477.869 352.657 476.071 346.484C474.327 340.28 472.294 336.765 472.582 336.615Z" fill="white"/>
<path d="M478.754 286.473C478.87 286.422 479.614 287.783 480.854 290.294C482.095 292.806 483.837 296.463 485.898 301.029C489.989 310.159 495.493 322.941 499.483 337.779C501.447 345.202 502.783 352.419 503.462 359.045C504.145 365.67 504.214 371.69 503.873 376.715C503.541 381.741 502.906 385.774 502.295 388.518C501.691 391.265 501.213 392.745 501.106 392.721C500.767 392.655 502.262 386.606 502.578 376.654C502.973 366.722 501.67 352.923 497.714 338.251C493.766 323.574 488.489 310.786 484.71 301.542C482.807 296.917 481.267 293.173 480.203 290.585C479.162 287.986 478.638 286.525 478.754 286.473Z" fill="white"/>
<path d="M250.295 345.324C250.507 345.554 248.43 347.534 245.734 351.212C245.064 352.136 244.338 353.148 243.658 354.302C242.914 355.414 242.267 356.69 241.547 358.007C240.208 360.692 238.938 363.744 237.958 367.067C237.02 370.402 236.474 373.662 236.179 376.648C236.09 378.146 235.959 379.571 235.996 380.908C235.959 382.247 236.036 383.491 236.111 384.63C236.438 389.178 237.144 391.96 236.843 392.042C236.66 392.104 235.498 389.416 234.823 384.762C234.662 383.6 234.507 382.322 234.478 380.939C234.374 379.558 234.448 378.08 234.495 376.524C234.706 373.423 235.223 370.023 236.198 366.56C237.214 363.11 238.583 359.955 240.056 357.216C240.843 355.872 241.564 354.583 242.388 353.468C243.147 352.314 243.959 351.312 244.714 350.414C247.76 346.831 250.175 345.175 250.295 345.324Z" fill="white"/>
<path d="M255.171 361.378C255.324 361.623 254.167 362.508 252.655 364.202C251.889 365.039 251.083 366.122 250.289 367.378C249.529 368.655 248.801 370.12 248.229 371.736C247.683 373.36 247.355 374.963 247.165 376.439C247.015 377.916 246.983 379.266 247.069 380.398C247.216 382.663 247.583 384.074 247.309 384.172C247.113 384.255 246.289 382.963 245.785 380.57C245.523 379.376 245.415 377.915 245.483 376.296C245.589 374.683 245.899 372.914 246.497 371.139C247.12 369.372 247.968 367.79 248.879 366.452C249.821 365.135 250.808 364.052 251.749 363.275C253.621 361.699 255.067 361.19 255.171 361.378Z" fill="white"/>
<path d="M187.486 211.772C187.58 211.689 188.4 212.496 189.807 214.036C190.522 214.797 191.366 215.755 192.259 216.937C193.162 218.109 194.247 219.411 195.266 220.975C195.791 221.747 196.343 222.555 196.916 223.399C197.484 224.245 197.999 225.173 198.572 226.111C199.746 227.972 200.798 230.073 201.942 232.265C204.102 236.712 206.167 241.759 207.812 247.231C209.404 252.716 210.415 258.076 211.019 262.983C211.25 265.444 211.508 267.78 211.535 269.98C211.563 271.077 211.635 272.137 211.619 273.157C211.596 274.176 211.572 275.155 211.551 276.088C211.546 277.956 211.342 279.636 211.222 281.112C211.114 282.589 210.927 283.853 210.74 284.879C210.396 286.936 210.147 288.059 210.022 288.041C209.699 287.999 210.307 283.44 210.256 276.073C210.239 275.152 210.223 274.189 210.206 273.184C210.184 272.181 210.078 271.137 210.018 270.06C209.927 267.897 209.615 265.605 209.344 263.192C208.658 258.381 207.618 253.135 206.055 247.749C204.439 242.38 202.462 237.409 200.423 232.999C199.339 230.825 198.354 228.733 197.256 226.868C196.719 225.929 196.242 224.997 195.715 224.143C195.183 223.291 194.674 222.472 194.187 221.691C190.226 215.479 187.236 211.984 187.486 211.772Z" fill="white"/>
<path d="M208.23 220.355C208.386 220.216 210.49 222.184 213.166 225.978C214.513 227.866 215.931 230.246 217.313 232.99C218.654 235.752 219.934 238.89 220.955 242.291C221.946 245.699 222.575 249.03 222.951 252.078C223.282 255.132 223.385 257.9 223.279 260.216C223.094 264.855 222.397 267.651 222.191 267.619C221.897 267.583 222.133 264.752 221.983 260.216C221.923 257.948 221.69 255.258 221.278 252.298C220.821 249.343 220.159 246.122 219.199 242.81C218.206 239.507 217.01 236.443 215.789 233.715C214.526 231.004 213.259 228.619 212.078 226.683C209.738 222.794 208.003 220.546 208.23 220.355Z" fill="white"/>
<path d="M135.591 370.258L133.997 367.003L89.6019 400.922L108.97 432.299L153.162 395.038L135.591 370.258Z" fill="#FF7B5B"/>
<path d="M91.4623 401.647L108.477 431.071L109.565 430.586L94.4129 403.075L91.4623 401.647Z" fill="#D7D4D4"/>
<path d="M134.714 369.613L91.4621 401.647C91.4621 401.647 91.6435 402.335 92.7168 402.759C93.7915 403.183 94.4128 403.076 94.4128 403.076L139.885 371.953C139.885 371.953 137.263 371.344 136.313 370.635C135.361 369.923 134.714 369.613 134.714 369.613Z" fill="#F5F3F3"/>
<path d="M531.858 152.141L533.198 149.407L570.477 177.891L554.214 204.239L517.105 172.949L531.858 152.141Z" fill="#0A4E98"/>
<path d="M568.915 178.499L554.627 203.207L553.714 202.801L566.438 179.698L568.915 178.499Z" fill="#D7D4D4"/>
<path d="M532.595 151.6L568.915 178.5C568.915 178.5 568.763 179.077 567.86 179.433C566.959 179.789 566.438 179.698 566.438 179.698L528.252 153.565C528.252 153.565 530.454 153.053 531.252 152.457C532.051 151.86 532.595 151.6 532.595 151.6Z" fill="#F5F3F3"/>
<path d="M527.319 152.511L567.119 179.094L554.194 203.592L552.111 206.984L512.308 177.527C512.308 177.527 516.502 171.271 519.018 167.494C521.535 163.715 526.475 154.806 526.744 154.235C527.014 153.666 527.319 152.511 527.319 152.511Z" fill="#0A4E98"/>
<path d="M82.5892 100.874C82.5892 100.874 79.7745 102.822 81.1825 106.07C82.5892 109.318 88.7599 118.953 97.0959 118.628C97.4372 118.616 86.5945 100.874 86.5945 100.874H82.5892Z" fill="#FF7B5B"/>
<path d="M69.8372 278.493C69.8372 278.493 59.4132 269.18 56.0759 270.848C51.9985 272.887 28.6612 295.752 29.5732 306.524C29.9479 310.936 35.0839 307.156 44.2359 297.663C53.3905 288.171 64.9172 292.239 64.9172 292.239L69.8372 278.493Z" fill="#0A4E98"/>
<path d="M95.1635 294.197L82.5795 286.647C82.5795 286.647 49.9608 317.227 55.0568 321.305C58.9221 324.397 61.1941 321.623 70.3475 312.131C79.4995 302.639 91.0955 308.097 91.0955 308.097L95.1635 294.197Z" fill="#0A4E98"/>
<path d="M172.034 193.591L174.394 227.1L122.01 213.453L172.034 193.591Z" fill="#F3A783"/>
<path d="M122.01 214.605C122.01 214.605 167.831 217.493 173.932 215.457C173.932 215.457 182.888 303.427 166.954 312.917C151.019 322.411 115.262 308.511 115.262 308.511L124.916 289.528L145.732 288.171V254.271L144.239 254.609L122.01 214.605Z" fill="#112129"/>
<path d="M64.5716 274.611C64.5716 274.611 53.0463 279.357 56.7756 290.884C56.7756 290.884 96.1183 321.733 115.262 314.613C125.988 310.627 137.509 280.196 145.569 254.2L173.933 215.457C173.933 215.457 160.556 216.127 156.093 216.109C147.564 216.077 122.01 214.605 122.01 214.605C122.01 214.605 108.662 284.443 103.906 286.137C99.1503 287.831 64.5716 274.611 64.5716 274.611Z" fill="#22343D"/>
<path d="M132.687 127.014C132.687 127.014 160.149 101.249 164.894 94.4676C169.639 87.6876 179.813 64.9756 192.354 55.4823L186.251 42.5996C186.251 42.5996 189.982 40.5663 192.354 45.989C192.354 45.989 201.166 28.3623 203.201 28.6997C205.237 29.0383 199.134 42.261 199.134 42.261C199.134 42.261 207.611 30.0557 209.983 30.3957C212.354 30.7357 203.881 44.117 203.881 44.117C203.881 44.117 213.371 33.1076 214.729 34.4636C216.085 35.8196 207.27 44.117 207.27 44.117C207.27 44.117 216.762 38.6663 217.779 40.4623C218.797 42.261 208.287 47.0063 208.287 47.0063C208.287 47.0063 207.27 54.8036 200.83 58.1943C200.83 58.1943 188.077 92.649 176.55 103.836L139.522 142.32L132.687 127.014Z" fill="#FFC6B2"/>
<path d="M99.9069 140.368C99.9069 140.368 73.8883 167.587 67.0629 172.268C60.2376 176.948 37.4323 186.909 27.8229 199.363L14.9976 193.14C14.9976 193.14 12.9296 196.849 18.3309 199.272C18.3309 199.272 0.621602 207.921 0.941602 209.96C1.26027 211.997 14.5389 206.019 14.5389 206.019C14.5389 206.019 2.25493 214.381 2.57227 216.756C2.8896 219.131 16.3483 210.781 16.3483 210.781C16.3483 210.781 5.25226 220.169 6.59626 221.537C7.9376 222.908 16.3176 214.172 16.3176 214.172C16.3176 214.172 10.7789 223.612 12.5683 224.645C14.3549 225.679 19.1989 215.216 19.1989 215.216C19.1989 215.216 27.0043 214.273 30.4563 207.863C30.4563 207.863 63.0923 194.879 74.3883 183.456L115.002 154.679L99.9069 140.368Z" fill="#FFC6B2"/>
<path d="M109.661 129.52L96.5015 142.402L99.8388 156.926C99.8388 156.926 112.804 188.052 114.764 195.646C117.811 207.454 112.883 225.456 112.883 225.456C112.883 225.456 134.863 223.632 154.863 222.954C174.861 222.276 181.404 215.834 181.404 215.834C181.404 215.834 164.064 158.08 152.093 141.938C140.119 125.796 135.764 120.743 135.764 120.743L118.136 124.596L109.661 129.52Z" fill="white"/>
<path d="M148.284 140.033L161.996 131.272C161.996 131.272 164.091 121.885 147.555 110.815L128.164 122.964L148.284 140.033Z" fill="white"/>
<path d="M99.2748 141.383C91.7575 142.438 78.0201 161.49 76.4881 161.454C76.4881 161.454 86.1561 177.231 93.8148 177.743C93.8148 177.743 127.517 137.422 99.2748 141.383" fill="white"/>
<path d="M125.811 128.987C125.811 128.987 114.884 120.823 115.263 117.568C115.359 116.748 116.873 115.418 117.267 114.236C119.385 107.88 109.171 91.503 102.895 88.051C97.9572 85.3363 100.121 85.0963 89.7305 91.271C79.3399 97.4457 85.2599 108.124 89.8999 113.646C94.2865 118.866 99.3105 121.103 103.831 121.479L110.257 135.754L125.811 128.987Z" fill="#FFC6B2"/>
<path d="M106.094 140.32C104.028 135.25 107.941 128.865 114.836 126.053C121.733 123.24 128.996 125.069 131.066 130.137C133.132 135.204 126.193 142.822 122.32 144.402C118.446 145.982 108.16 145.386 106.094 140.32Z" fill="#FFC6B2"/>
<path d="M89.9004 113.646C89.9004 113.646 86.3564 113.45 85.9631 115.813C85.5684 118.174 92.4591 118.174 95.0191 116.402L89.9004 113.646Z" fill="#FFC6B2"/>
<path d="M91.6725 115.812C90.9992 111.544 86.4512 108.371 86.6779 104.212C88.8579 104.228 90.2579 101.528 89.2659 99.2212C88.8752 98.3145 88.2139 97.5372 87.7912 96.6439C87.3699 95.7492 87.2579 94.5785 87.9045 94.0745C88.2112 93.8359 88.6259 93.7945 89.0232 93.7545C92.2552 93.4225 97.7925 94.3919 100.767 93.2892C103.599 92.2399 106.634 90.1972 106.339 86.7279C106.082 83.7079 103.414 81.2572 100.963 79.4079C99.5592 78.3465 95.5472 75.5719 94.0339 75.8225C91.7232 76.2079 91.1632 79.2892 90.9965 81.8705C89.3805 80.3305 86.9965 80.5785 85.5912 81.8305C84.1859 83.0812 83.5205 85.0705 82.9085 86.9919C82.2952 88.9132 81.6459 90.9079 80.2592 92.1825C78.9672 93.3732 76.9232 94.2732 77.1912 96.2959C77.5099 98.7065 80.6592 99.5639 82.1152 101.619C81.7565 101.115 81.4525 104.333 81.6592 104.88C82.2805 106.524 83.8312 107.612 84.9525 108.869C87.3405 111.549 88.5085 114.248 91.6725 115.812Z" fill="#FF7B5B"/>
<path d="M111.471 106.052L103.396 110.228C103.396 110.228 113.095 117.268 111.471 106.052Z" fill="white"/>
<path d="M100.362 107.708C100.803 108.545 100.15 109.756 98.9033 110.412C97.6567 111.069 96.2887 110.921 95.8473 110.084C95.4073 109.246 96.0593 108.037 97.306 107.38C98.554 106.724 99.9207 106.87 100.362 107.708Z" fill="#FFB3A0"/>
<path d="M112.152 99.6536C112.594 100.491 111.94 101.702 110.694 102.358C109.447 103.015 108.079 102.867 107.638 102.03C107.198 101.192 107.85 99.983 109.096 99.3256C110.344 98.6696 111.711 98.8163 112.152 99.6536Z" fill="#FFB3A0"/>
<path d="M105.834 105.757C105.797 105.709 105.947 105.51 106.297 105.259C106.63 105.001 107.21 104.725 107.641 104.261C108.067 103.81 108.221 102.873 107.567 102.742C106.889 102.51 106.118 103.29 105.234 104.03C105.015 104.211 104.799 104.391 104.585 104.569C104.385 104.751 103.963 105.021 103.526 104.967C102.693 104.833 102.338 104.275 102.018 103.905C101.378 103.082 100.983 102.222 100.765 101.479C100.331 99.9752 100.526 99.0045 100.63 99.0125C100.775 99.0059 100.823 99.9392 101.374 101.262C101.651 101.919 102.066 102.665 102.67 103.37C102.965 103.729 103.335 104.062 103.599 104.073C103.71 104.077 103.797 104.041 104.005 103.866C104.217 103.689 104.43 103.509 104.646 103.326C105.091 102.967 105.477 102.603 105.986 102.265C106.481 101.931 107.186 101.719 107.818 101.935C108.493 102.111 108.889 102.898 108.771 103.446C108.695 104.003 108.418 104.414 108.103 104.714C107.438 105.27 106.843 105.405 106.469 105.571C106.085 105.717 105.874 105.809 105.834 105.757Z" fill="#FF7B5B"/>
<path d="M103.831 121.479C103.831 121.479 108.981 121.509 111.776 119.789C111.776 119.789 109.412 122.691 104.681 123.443L103.831 121.479Z" fill="#FFA192"/>
<path d="M106.064 98.3809C106.018 98.6355 105.298 98.7142 104.536 99.0502C103.766 99.3622 103.207 99.8249 102.992 99.6822C102.772 99.5649 103.136 98.6462 104.179 98.2075C105.22 97.7649 106.132 98.1409 106.064 98.3809Z" fill="#22343D"/>
<path d="M95.9707 105.002C95.776 104.858 96.0813 104.029 96.8227 103.198C97.5733 102.351 98.532 102.069 98.6333 102.305C98.74 102.535 98.156 103.073 97.4987 103.818C96.8307 104.561 96.1813 105.159 95.9707 105.002Z" fill="#22343D"/>
<path d="M92.058 103.722C91.6407 103.413 91.3153 102.089 92.9127 100.305C94.5247 98.4807 96.326 98.802 96.542 99.3087C96.774 99.806 96.174 100.514 94.7593 102.118C93.3233 103.717 92.51 104.062 92.058 103.722Z" fill="#FF7B5B"/>
<path d="M100.537 96.6947C100.306 96.2627 100.561 95.0053 102.638 94.1293C104.745 93.224 106.149 94.2227 106.129 94.7413C106.125 95.2573 105.332 95.6187 103.482 96.416C101.617 97.1987 100.786 97.1653 100.537 96.6947Z" fill="#FF7B5B"/>
<path d="M543.62 109.203C543.757 109.337 541.518 111.855 536.876 114.595C532.292 117.335 525.076 120.049 516.777 120.109C508.478 120.171 501.222 117.564 496.598 114.892C491.917 112.22 489.642 109.736 489.776 109.599C489.969 109.353 492.514 111.451 497.201 113.745C501.844 116.048 508.84 118.336 516.762 118.277C524.686 118.219 531.648 115.828 536.257 113.457C540.91 111.093 543.424 108.96 543.62 109.203Z" fill="#0A4E98"/>
<path d="M492.992 105.399C492.864 105.678 490.388 104.65 486.215 103.719C484.135 103.228 481.612 102.85 478.799 102.5C475.979 102.188 472.86 101.942 469.568 101.707C466.272 101.475 463.119 101.21 460.253 100.855C457.392 100.475 454.817 100.023 452.697 99.4497C448.441 98.3391 446.031 97.0244 446.116 96.8391C446.225 96.5591 448.76 97.4244 452.975 98.1831C455.077 98.5844 457.615 98.8951 460.44 99.1764C463.272 99.4351 466.4 99.6471 469.699 99.8791C473 100.115 476.157 100.416 479.02 100.827C481.879 101.276 484.447 101.799 486.543 102.467C490.759 103.752 493.085 105.224 492.992 105.399Z" fill="#0A4E98"/>
<path d="M442.79 51.2579C450.702 49.5806 458.9 51.0246 466.877 52.3539C474.856 53.6832 483.14 54.8819 490.938 52.7406C505.021 48.8752 515.712 34.6472 530.316 34.7619C536.328 34.8099 541.997 37.3766 547.856 38.7352C555.13 40.4232 562.708 40.2419 570.08 41.4459C577.449 42.6499 585.062 45.6139 589.228 51.8126C594.169 59.1686 592.814 69.5446 587.629 76.7312C582.444 83.9192 574.14 88.2952 565.632 90.7752C559.698 92.5046 553.374 93.5046 548.238 96.9459C543.044 100.427 539.652 106.03 534.812 109.989C522.666 119.921 503.765 117.074 491.22 107.654C488.068 105.286 485.146 102.539 481.604 100.807C467.201 93.7566 446.485 103.091 434.08 90.2619C421.484 77.2352 423.277 55.3966 442.79 51.2579Z" fill="#22343D"/>
<path d="M438.837 303.564C438.837 303.564 452.035 331.851 453.579 326.615C455.119 321.373 454.609 308.795 453.783 306.997C452.952 305.201 447.557 297.267 447.557 297.267L438.837 303.564Z" fill="#FFB3A0"/>
<path d="M534.266 74.8261C535.486 76.3915 534.671 74.7101 536.054 76.9675C541.799 76.7661 545.658 71.9035 545.658 71.9035C545.658 71.9035 554.78 72.1448 554.674 70.5155C554.57 68.8835 545.93 69.4928 545.93 69.4928C545.93 69.4928 555.07 66.6221 554.568 65.1888C554.07 63.7568 543.516 68.3248 543.516 68.3248C543.516 68.3248 554.166 61.7155 552.592 60.6555C551.019 59.5981 540.775 65.3688 540.775 65.3688C540.775 65.3688 549.679 58.0541 548.344 57.1115C547.012 56.1688 534.663 65.6875 534.663 65.6875C534.843 61.0048 531.483 61.1688 531.483 61.1688L531.623 72.6021C531.623 72.6021 533.703 74.1061 534.266 74.8261" fill="#FFC6B2"/>
<path d="M399.061 23.0801C397.108 23.4388 398.624 22.7601 396.089 23.5334C391.928 19.5654 392.48 13.3308 392.48 13.3308C392.48 13.3308 385.501 7.45611 386.659 6.30811C387.823 5.15745 393.877 11.3481 393.877 11.3481C393.877 11.3481 388.952 3.13345 390.276 2.39345C391.599 1.65611 396.46 12.0774 396.46 12.0774C396.46 12.0774 392.883 0.0654485 394.763 0.316115C396.641 0.569448 400.473 11.6828 400.473 11.6828C400.473 11.6828 398.671 0.30545 400.292 0.48545C401.913 0.664116 404.832 15.9828 404.832 15.9828C407.807 12.3614 410.207 14.7148 410.207 14.7148L402.669 23.0028C402.669 23.0028 399.959 22.9161 399.061 23.0801Z" fill="#FFC6B2"/>
<path d="M446.405 70.8378C443.88 70.4245 437.777 74.4792 434.724 81.0898C433.016 84.7898 431.838 88.5485 433.801 94.5658C434.724 97.3965 436.658 97.7512 437.089 99.0192C437.636 100.625 435.828 105.685 435.828 105.685L443.033 108.594C443.501 105.118 444.032 101.621 447.574 100.111C448.9 99.5458 450.318 99.1885 451.568 98.4725C454.944 96.5365 456.746 92.3045 458.132 88.8392C459.166 86.2512 452.732 71.8752 446.405 70.8378Z" fill="#FFC6B2"/>
<path d="M437.829 169.083L425.76 164.239C425.76 164.239 389.941 230.663 390.089 249.091C390.239 267.52 439.285 304.416 439.285 304.416L447.557 297.267C447.557 297.267 432.413 270.863 424.319 261.553C416.224 252.241 437.829 169.083 437.829 169.083Z" fill="#FFB3A0"/>
<path d="M497.755 244.747C497.755 244.747 524.355 232.126 519.01 231.011C513.666 229.902 501.165 231.431 499.443 232.402C497.718 233.374 490.249 239.395 490.249 239.395L497.755 244.747Z" fill="#FFC6B2"/>
<path d="M449.684 168.507L431.376 175.168C431.376 175.168 413.06 255.723 420.052 268.369C427.042 281.021 446.677 272.648 474.644 257.385L498.068 244.599L490.249 239.396C490.249 239.396 462.992 244.736 455.337 250.063C455.337 250.063 459.33 238.743 464.658 222.765C469.984 206.787 473.656 190.476 449.684 168.507Z" fill="#FFC6B2"/>
<path d="M427.147 113.627C427.147 108.274 428.87 104.403 434.223 104.403C439.575 104.403 446.973 106.28 446.973 111.632C446.973 116.987 442.755 125.68 437.401 125.68C432.05 125.68 427.147 118.982 427.147 113.627Z" fill="#FFC6B2"/>
<path d="M431.375 103.637C431.375 103.637 414.732 85.626 411.403 67.982C408.071 50.3407 402.415 21.7127 402.415 21.7127L396.09 23.534C396.09 23.534 393.092 62.658 396.09 68.65C399.084 74.6407 413.723 114.531 418.18 125.009L431.375 103.637Z" fill="#FFC6B2"/>
<path d="M449.255 117.675C449.255 117.675 450.534 112.072 471.579 104.457C492.625 96.8425 532.329 72.1652 532.329 72.1652L536.29 76.6972C536.29 76.6972 514.718 101.615 502.167 105.987C489.617 110.359 462.958 127.591 460.217 128.971C456.069 131.056 456.119 133.683 449.255 117.675Z" fill="#FFC6B2"/>
<path d="M431.375 103.637C431.375 103.637 414.464 109.117 414.464 134.846C414.464 134.846 414.476 170.085 418.46 176.495C418.46 176.495 424.94 178.155 433.016 176.495C441.487 174.754 449.683 168.506 449.683 168.506L462.984 128.575L461.394 109.865L443.308 106.373C443.308 106.373 448.498 130.618 429.727 120.194C426.078 118.169 435.092 104.414 435.092 104.414L431.375 103.637Z" fill="#22343D"/>
<path d="M417.066 124.563L408.734 107.204C408.734 107.204 409.929 96.6746 425.225 92.8999C425.225 92.8999 426.772 98.2079 428.468 100.236C430.162 102.264 435.098 104.42 435.098 104.42L417.066 124.563Z" fill="#22343D"/>
<path d="M448.566 131.54L475.061 126.109C475.061 126.109 479.668 116.566 468.745 105.213C468.745 105.213 448.08 106.46 445.405 106.682C442.77 106.902 444.58 108.929 444.58 108.929L448.566 131.54Z" fill="#22343D"/>
<path d="M418.419 167.912C418.419 167.912 393.358 214.244 389.219 222.523C389.219 222.523 463.151 256.484 493.163 215.605C493.163 215.605 476.09 179.472 449.698 165.716L438.313 162.308L418.865 167.689" fill="#22343D"/>
<path d="M457.161 88.4011C457.161 88.4011 460.016 85.5464 461.772 87.5224C463.528 89.4984 455.407 92.3531 455.407 92.3531L457.161 88.4011Z" fill="#FFC6B2"/>
<path d="M509.378 49.4681C509.406 49.5681 508.303 50.0441 506.198 50.5441C504.098 51.0495 500.98 51.5081 497.111 51.5868C493.242 51.6641 488.643 51.3201 483.608 50.6375C478.571 49.9695 473.096 48.9881 467.338 48.3601C461.588 47.7455 456.06 47.6335 451.164 48.4241C446.267 49.2015 442.027 50.8055 438.79 52.6788C435.548 54.5668 433.294 56.6615 431.91 58.2468C430.516 59.8335 429.892 60.8468 429.75 60.7615C429.674 60.7215 430.09 59.5801 431.352 57.8015C432.606 56.0281 434.818 53.6895 438.116 51.5721C441.411 49.4695 445.794 47.6628 450.884 46.7588C455.982 45.8415 461.683 45.9121 467.532 46.5388C473.387 47.1775 478.866 48.2148 483.847 48.9668C488.827 49.7335 493.326 50.2028 497.115 50.2921C504.711 50.5028 509.308 49.1548 509.378 49.4681Z" fill="#0A4E98"/>
<path d="M442.625 86.7813C442.617 86.8933 441.804 86.9706 440.562 86.5599C440.256 86.4519 439.893 86.3093 439.556 86.0013C439.388 85.8466 439.234 85.6413 439.14 85.3933C439.004 85.0479 439.014 84.6573 439.149 84.3586C439.189 84.2973 439.188 84.1546 439.265 84.1519L439.505 84.1453C439.661 84.1226 439.844 84.1746 440.024 84.2079C440.35 84.2706 440.454 84.2599 440.689 84.2759C441.097 84.2853 441.524 84.2439 441.946 84.1493C443.678 83.7853 444.84 82.5239 445.36 81.4866C445.906 80.4426 445.953 79.6573 446.098 79.6666C446.201 79.6533 446.404 80.4879 445.953 81.7479C445.724 82.3639 445.325 83.0733 444.681 83.6946C444.041 84.3146 443.154 84.8239 442.148 85.0439C441.645 85.1559 441.14 85.1986 440.653 85.1719C440.441 85.1626 440.108 85.1199 440.009 85.0986C439.921 85.0826 439.932 85.0626 439.916 85.0746C439.905 85.0839 439.898 85.1026 439.9 85.1266C439.936 85.2479 440.001 85.3626 440.094 85.4653C440.278 85.6733 440.546 85.8306 440.81 85.9613C441.884 86.4866 442.646 86.6439 442.625 86.7813Z" fill="#FF7B5B"/>
<path d="M436.682 87.0892L446.441 90.9346C446.441 90.9346 437.865 96.8492 436.682 87.0892Z" fill="white"/>
<path d="M450.609 88.9395C450.263 89.5981 449.188 89.7141 448.207 89.1981C447.228 88.6821 446.713 87.7301 447.061 87.0728C447.408 86.4141 448.481 86.2995 449.463 86.8141C450.441 87.3301 450.956 88.2821 450.609 88.9395Z" fill="#FFB3A0"/>
<path d="M439.717 83.164C439.421 83.8467 438.357 84.044 437.343 83.604C436.325 83.164 435.741 82.2547 436.036 81.572C436.332 80.8893 437.395 80.692 438.412 81.132C439.427 81.572 440.012 82.4813 439.717 83.164Z" fill="#FFB3A0"/>
<path d="M436.102 97.793C436.102 97.793 439.523 100.658 443.092 99.7356C443.092 99.7356 441.862 101.581 437.124 100.904C437.124 100.904 437.518 98.8703 436.102 97.793" fill="#FFA192"/>
<path d="M449.673 82.8099C449.673 83.2365 449.327 83.5832 448.9 83.5832C448.473 83.5832 448.128 83.2365 448.128 82.8099C448.128 82.3832 448.473 82.0365 448.9 82.0365C449.327 82.0365 449.673 82.3832 449.673 82.8099Z" fill="#22343D"/>
<path d="M443.345 80.5305C443.345 80.9572 442.998 81.3038 442.572 81.3038C442.146 81.3038 441.8 80.9572 441.8 80.5305C441.8 80.1038 442.146 79.7572 442.572 79.7572C442.998 79.7572 443.345 80.1038 443.345 80.5305Z" fill="#22343D"/>
<path d="M452.158 80.75C451.919 80.8514 451.458 80.2927 450.759 79.842C450.075 79.3687 449.382 79.1567 449.383 78.898C449.359 78.65 450.328 78.4487 451.267 79.0807C452.21 79.706 452.396 80.6754 452.158 80.75Z" fill="#0A4E98"/>
<path d="M441.005 76.998C440.989 76.7567 441.82 76.4527 442.932 76.4833C444.064 76.506 444.9 77.0553 444.785 77.2847C444.677 77.5167 443.889 77.418 442.896 77.398C441.897 77.3687 441.021 77.2607 441.005 76.998Z" fill="#0A4E98"/>
<path d="M444.491 315.059C444.491 315.059 448.551 329.468 452.742 328.288C456.935 327.109 453.783 306.997 453.783 306.997L449.599 300.387C449.599 300.387 453.528 334.052 444.491 315.059Z" fill="#22343D"/>
<path d="M495.685 235.165C495.685 235.165 498.638 231.944 502.216 231.408C505.796 230.871 518.59 229.349 520.469 231.049C522.348 232.749 510.1 238.449 510.1 238.449C510.1 238.449 514.368 235.731 512.596 234.719C509.464 232.928 495.685 235.165 495.685 235.165Z" fill="#22343D"/>
<path d="M490.609 239.024L494.615 247.156L496.8 245.942L491.459 237.932L490.609 239.024Z" fill="#22343D"/>
<path d="M445.822 294.008L435.99 302.868L438.903 305.296L447.156 296.313L445.822 294.008Z" fill="#22343D"/>
<path d="M240.268 205.79C237.472 198.852 236.398 191.126 232.226 184.917C226.222 175.981 214.69 171.548 209.818 161.948C207.748 157.872 207.099 153.208 207.078 148.636C207.038 139.589 209.746 129.973 216.732 124.225C224.76 117.621 236.806 117.713 246.208 122.15C255.608 126.588 262.791 134.642 268.899 143.054C275.006 151.468 280.352 160.496 287.464 168.077C292.738 173.698 298.992 178.545 302.964 185.15C313.854 203.254 302.65 226.162 283.426 232.697C266.534 238.438 246.112 220.296 240.268 205.79Z" fill="#22343D"/>
<path d="M216.204 333.483C217.876 334.858 216.052 333.906 218.484 335.49C217.941 341.566 212.321 345.394 212.321 345.394C212.321 345.394 212.084 355.067 210.278 354.868C208.469 354.672 209.628 345.555 209.628 345.555C209.628 345.555 205.928 355.082 204.362 354.475C202.798 353.871 208.462 342.938 208.462 342.938C208.462 342.938 200.524 353.864 199.433 352.143C198.344 350.422 205.329 339.876 205.329 339.876C205.329 339.876 196.704 348.919 195.729 347.455C194.756 345.995 206.022 333.419 206.022 333.419C200.808 333.362 201.177 329.812 201.177 329.812L213.878 330.566C213.878 330.566 215.434 332.848 216.204 333.483" fill="#FFC6B2"/>
<path d="M337.543 151.045C339.716 151.426 338.03 150.706 340.85 151.526C345.482 147.32 344.867 140.706 344.867 140.706C344.867 140.706 352.635 134.477 351.347 133.26C350.051 132.04 343.312 138.605 343.312 138.605C343.312 138.605 348.795 129.893 347.322 129.109C345.848 128.326 340.439 139.377 340.439 139.377C340.439 139.377 344.419 126.64 342.327 126.906C340.238 127.174 335.971 138.96 335.971 138.96C335.971 138.96 337.978 126.894 336.174 127.085C334.368 127.276 331.448 143.082 331.448 143.082C327.194 139.62 324.218 141.836 324.218 141.836L333.527 150.964C333.527 150.964 336.544 150.872 337.543 151.045" fill="#FFC6B2"/>
<path d="M284.37 203.874C288.299 203.261 300.283 211.026 297.232 226.796C296.978 228.12 295.248 231.034 294.818 232.24C294.274 233.768 298.512 239.354 298.512 239.354L287.57 242.85C287.103 239.545 287.888 234.714 284.352 233.278C283.03 232.741 281.614 232.401 280.366 231.72C276.996 229.88 275.198 225.854 273.814 222.56C272.78 220.097 271.994 217.449 272.023 214.777C272.095 208.049 278.054 204.861 284.37 203.874Z" fill="#FFC6B2"/>
<path d="M306.283 247.063C306.283 241.387 304.481 239.22 298.525 239.22C292.568 239.22 284.704 241.387 284.704 247.063C284.704 252.74 288.911 259.844 294.871 259.844C300.827 259.844 306.283 252.74 306.283 247.063Z" fill="#FFC6B2"/>
<path d="M301.578 236.469C301.578 236.469 320.102 217.369 323.807 198.661C327.513 179.953 333.81 149.595 333.81 149.595L340.85 151.527C340.85 151.527 344.186 193.013 340.85 199.368C337.515 205.721 318.619 249.847 318.991 261.14L301.578 236.469Z" fill="#FFC6B2"/>
<path d="M268.558 245.716C268.558 245.716 262.259 246.775 252.626 268.661C242.993 290.547 213.353 331.291 213.353 331.291L218.17 335.727C218.17 335.727 247.069 314.196 252.626 301.136C258.182 288.076 265.222 271.839 268.558 272.543C271.891 273.251 285.971 253.833 268.558 245.716Z" fill="#FFC6B2"/>
<path d="M318.151 264.059L326.776 240.253C326.776 240.253 325.447 229.086 308.422 225.083L298.778 238.979L318.151 264.059Z" fill="#FF7B5B"/>
<path d="M271.434 243.89C271.434 243.89 261.258 244.747 253.01 262.863C253.01 262.863 262.08 275.386 268.716 275.809C268.716 275.809 293.363 254.741 271.434 243.89" fill="#FF7B5B"/>
<path d="M299.393 458.727C299.393 458.727 284.704 488.721 282.987 483.168C281.272 477.612 281.839 464.271 282.76 462.367C283.683 460.461 289.688 452.048 289.688 452.048L299.393 458.727Z" fill="#FFC6B2"/>
<path d="M300.516 316.119L313.948 310.983C313.948 310.983 353.816 381.42 353.65 400.963C353.485 420.504 298.896 459.631 298.896 459.631L289.688 452.048C289.688 452.048 315.562 414.007 324.572 404.133C329.077 399.196 296.824 375.001 291.938 351.721C287.053 328.441 300.516 316.119 300.516 316.119Z" fill="#09396D"/>
<path d="M219.747 443.012C219.747 443.012 192.27 463.265 193.413 457.581C194.559 451.892 201.477 440.281 203.211 438.989C204.949 437.7 214.33 432.841 214.33 432.841L219.747 443.012Z" fill="#FFC6B2"/>
<path d="M263.967 341.061L303.711 318.029C303.711 318.029 305.289 398.039 295.747 415.339C286.207 432.639 218.87 443.599 218.87 443.599L214.33 432.841C214.33 432.841 255.874 408.089 268.629 403.245C281.385 398.399 263.967 341.061 263.967 341.061Z" fill="#0A4E98"/>
<path d="M287.637 302.272C287.637 302.272 258.373 312.633 263.968 341.061C269.561 369.488 278.885 374.817 278.885 374.817L295.668 347.28L312.519 311.217L295.668 309.08L287.637 302.272Z" fill="#0A4E98"/>
<path d="M301.578 236.469C301.578 236.469 323.122 248.544 323.122 275.827C323.122 275.827 320.385 306.932 315.95 313.731C315.95 313.731 308.739 315.489 299.749 313.731C290.322 311.884 281.199 305.257 281.199 305.257L273.837 267.176L268.109 244.94L271.214 243.915L287.418 242.136C287.418 242.136 285.09 266.341 303.183 254.32C306.994 251.788 298.439 239.168 298.439 239.168L301.578 236.469Z" fill="#FF7B5B"/>
<path d="M314.766 133.367L359.939 159.718L385.35 111.722L342.999 88.1939L314.766 133.367Z" fill="white"/>
<path d="M377.609 363.125L409.917 343.125L383.227 296.534L353.692 315.685L377.609 363.125Z" fill="white"/>
<path d="M218.535 164.592C218.62 164.516 219.617 165.422 221.195 167.268C222.765 169.118 224.908 171.93 227.059 175.724C229.217 179.503 231.355 184.298 232.879 189.863C234.457 195.387 235.516 201.596 237.943 207.578C239.203 210.532 240.729 213.283 242.547 215.715C244.38 218.131 246.413 220.252 248.507 222.102C252.784 225.7 257.265 228.176 261.259 229.608C265.248 231.058 268.665 231.708 271.041 231.943C273.415 232.204 274.756 232.244 274.757 232.399C274.764 232.496 273.427 232.7 270.989 232.654C268.553 232.635 265.008 232.17 260.832 230.831C256.653 229.511 251.932 227.068 247.417 223.39C245.204 221.499 243.051 219.311 241.112 216.794C239.189 214.263 237.565 211.37 236.247 208.272C233.719 202.02 232.72 195.756 231.249 190.306C229.845 184.836 227.893 180.13 225.92 176.343C223.959 172.546 222.012 169.667 220.632 167.704C219.244 165.746 218.431 164.684 218.535 164.592Z" fill="#22343D"/>
<path d="M274.035 133.762C274.367 133.712 274.689 138.158 277.177 144.736C278.42 148.012 280.268 151.781 282.923 155.56C284.249 157.452 285.776 159.316 287.504 161.173C289.22 163.038 291.089 164.933 292.856 167.058C296.399 171.348 298.836 175.984 301.132 180.076C303.409 184.208 305.224 188.138 306.147 191.654C307.108 195.16 307.165 198.177 306.861 200.178C306.541 202.189 306.041 203.208 305.959 203.18C305.8 203.138 306.059 202.064 306.149 200.114C306.228 198.169 305.98 195.334 304.905 192.021C303.864 188.694 301.993 184.945 299.659 180.901C297.288 176.858 294.829 172.316 291.445 168.229C289.747 166.182 287.904 164.294 286.177 162.382C284.441 160.48 282.863 158.498 281.531 156.516C278.859 152.546 277.075 148.592 275.957 145.17C274.815 141.752 274.328 138.868 274.097 136.878C273.869 134.886 273.931 133.772 274.035 133.762Z" fill="#22343D"/>
<path d="M287.883 221.015C287.866 220.887 288.602 220.771 289.297 219.954C289.457 219.766 289.618 219.491 289.615 219.331C289.611 219.159 289.491 218.86 289.285 218.688C289.07 218.496 288.833 218.403 288.517 218.435C288.191 218.459 287.795 218.62 287.278 218.698C286.145 218.848 285.261 218.208 284.679 217.69C284.082 217.144 283.626 216.591 283.286 216.095C282.609 215.096 282.398 214.375 282.502 214.322C282.622 214.258 283.03 214.855 283.794 215.692C284.175 216.108 284.657 216.586 285.225 217.046C285.785 217.492 286.471 217.899 287.154 217.791C287.517 217.744 287.939 217.575 288.454 217.54C288.978 217.488 289.561 217.73 289.881 218.09C290.221 218.458 290.411 218.891 290.371 219.404C290.27 219.93 289.991 220.175 289.761 220.404C288.765 221.276 287.851 221.134 287.883 221.015Z" fill="#FF7B5B"/>
<path d="M293.222 221.766L284.546 224.921C284.546 224.921 291.907 231.362 293.222 221.766Z" fill="white"/>
<path d="M283.68 221.23C284.027 221.887 283.514 222.839 282.534 223.355C281.554 223.871 280.479 223.757 280.132 223.098C279.786 222.439 280.299 221.487 281.279 220.973C282.259 220.457 283.334 220.571 283.68 221.23Z" fill="#FFB3A0"/>
<path d="M293.965 215.955C294.249 216.643 293.649 217.543 292.627 217.966C291.603 218.388 290.543 218.174 290.259 217.486C289.975 216.798 290.575 215.899 291.599 215.476C292.621 215.054 293.681 215.268 293.965 215.955Z" fill="#FFB3A0"/>
<path d="M284.803 233.509C284.803 233.509 287.705 234.1 291.405 233.176C291.405 233.176 289.581 234.948 286.601 235.36C286.601 235.36 285.933 234.125 284.803 233.509" fill="#FFA192"/>
<path d="M287.768 214.007C288.094 214.283 288.134 214.771 287.858 215.097C287.582 215.422 287.095 215.462 286.768 215.187C286.443 214.911 286.403 214.423 286.679 214.098C286.955 213.771 287.443 213.731 287.768 214.007Z" fill="#22343D"/>
<path d="M281.938 217.361C282.263 217.637 282.303 218.125 282.027 218.451C281.753 218.776 281.265 218.816 280.938 218.541C280.613 218.265 280.573 217.777 280.849 217.451C281.125 217.125 281.613 217.085 281.938 217.361Z" fill="#22343D"/>
<path d="M287.803 210.78C287.725 211.028 287.001 211.019 286.205 211.26C285.403 211.476 284.793 211.868 284.596 211.699C284.392 211.557 284.865 210.689 285.953 210.38C287.04 210.065 287.9 210.551 287.803 210.78Z" fill="#22343D"/>
<path d="M277.731 216.863C277.536 216.719 277.842 215.889 278.583 215.06C279.332 214.212 280.292 213.929 280.392 214.165C280.5 214.396 279.915 214.933 279.258 215.679C278.591 216.421 277.942 217.021 277.731 216.863Z" fill="#22343D"/>
<path d="M274.459 223.305C274.459 223.305 271.676 220.968 270.34 223.083C269.006 225.197 276.351 226.311 276.351 226.311L274.459 223.305Z" fill="#FFC6B2"/>
<path d="M207.55 436.43C207.55 436.43 203.561 438.164 202.521 439.206C201.479 440.246 191.939 456.723 193.154 458.804C194.369 460.886 203.935 453.82 203.935 453.82C203.935 453.82 195.93 455.336 207.55 436.43" fill="#0A4E98"/>
<path d="M285.397 458.219C285.397 458.219 282.563 461.283 282.126 462.688C281.689 464.092 280.906 483.116 282.95 484.393C284.993 485.672 290.577 475.175 290.577 475.175C290.577 475.175 283.901 480.404 285.397 458.263" fill="#0A4E98"/>
</svg>
