<svg width="216" height="216" viewBox="0 0 216 216" fill="none" xmlns="http://www.w3.org/2000/svg">
<path d="M180 79.2H152.554C160.951 70.5078 165.631 58.8856 165.6 46.8C165.6 44.8119 163.988 43.2 162 43.2H136.8V36C136.8 34.0119 135.188 32.4 133.2 32.4H118.8C116.812 32.4 115.2 34.0119 115.2 36V43.2H111.6V18C111.6 12.0352 116.435 7.2 122.4 7.2C128.365 7.2 133.2 12.0352 133.2 18C133.2 19.9881 134.812 21.6 136.8 21.6C138.788 21.6 140.4 19.9881 140.4 18C140.4 8.05905 132.341 0 122.4 0C112.459 0 104.4 8.05905 104.4 18V43.2H100.8V36C100.8 34.0119 99.1881 32.4 97.2 32.4H82.8C80.8119 32.4 79.2 34.0119 79.2 36V43.2H54C52.0119 43.2 50.4 44.8119 50.4 46.8C50.3955 58.8901 55.0922 70.5087 63.4968 79.2H36C34.0119 79.2 32.4 80.8119 32.4 82.8V176.4C32.4 178.388 34.0119 180 36 180H39.6V212.4C39.6 214.388 41.2119 216 43.2 216H54C55.76 215.999 57.2612 214.726 57.5496 212.99L60.1488 197.406C60.4391 195.672 61.9398 194.4 63.6984 194.4H152.302C154.06 194.4 155.561 195.672 155.851 197.406L158.45 212.99C158.739 214.726 160.24 215.999 162 216H172.8C174.788 216 176.4 214.388 176.4 212.4V180H180C181.988 180 183.6 178.388 183.6 176.4V82.8C183.6 80.8119 181.988 79.2 180 79.2ZM122.4 39.6H129.6V43.2H122.4V39.6ZM86.4 39.6H93.6V43.2H86.4V39.6ZM57.762 50.4H158.242C157.208 61.983 151.119 72.5206 141.599 79.2H74.4408C64.8977 72.5368 58.7916 61.9933 57.762 50.4ZM39.6 172.8V86.4H104.4V172.8H39.6ZM169.2 208.8H165.049L162.954 196.225C162.099 191.011 157.586 187.187 152.302 187.2H63.6984C58.4141 187.187 53.901 191.011 53.046 196.225L50.9508 208.8H46.8V180H169.2V208.8ZM176.4 172.8H111.6V86.4H176.4V172.8Z" fill="#094E98"/>
<path d="M118.8 140.4C120.788 140.4 122.4 138.788 122.4 136.8V122.4C122.4 120.412 120.788 118.8 118.8 118.8C116.812 118.8 115.2 120.412 115.2 122.4V136.8C115.2 138.788 116.812 140.4 118.8 140.4Z" fill="#094E98"/>
<path d="M97.2 118.8C95.2119 118.8 93.6 120.412 93.6 122.4V136.8C93.6 138.788 95.2119 140.4 97.2 140.4C99.1881 140.4 100.8 138.788 100.8 136.8V122.4C100.8 120.412 99.1881 118.8 97.2 118.8Z" fill="#094E98"/>
<rect x="39" y="86" width="139" height="14" fill="#094E98"/>
</svg>
