<svg width="174" height="174" viewBox="0 0 174 174" fill="none" xmlns="http://www.w3.org/2000/svg">
<path d="M147.058 168.273C147 167.966 146.905 167.664 146.785 167.376C146.665 167.084 146.517 166.806 146.344 166.548C146.171 166.284 145.97 166.039 145.75 165.819C144.638 164.707 142.984 164.194 141.426 164.51C141.119 164.568 140.817 164.663 140.525 164.783C140.237 164.903 139.959 165.052 139.7 165.225C139.437 165.396 139.192 165.598 138.972 165.818C138.751 166.039 138.55 166.284 138.377 166.547C138.205 166.806 138.056 167.084 137.936 167.376C137.816 167.664 137.72 167.966 137.663 168.272C137.601 168.579 137.567 168.895 137.567 169.207C137.567 169.518 137.601 169.835 137.663 170.141C137.72 170.448 137.816 170.75 137.936 171.038C138.056 171.329 138.205 171.607 138.377 171.866C138.55 172.13 138.751 172.375 138.972 172.595C139.192 172.816 139.437 173.017 139.7 173.195C139.959 173.362 140.237 173.511 140.53 173.631C140.817 173.751 141.119 173.841 141.426 173.903C141.733 173.966 142.049 173.999 142.36 173.999C142.672 173.999 142.988 173.966 143.295 173.903C143.602 173.841 143.904 173.751 144.196 173.631C144.484 173.511 144.762 173.362 145.021 173.195C145.284 173.017 145.529 172.816 145.749 172.595C145.97 172.375 146.171 172.13 146.344 171.866C146.516 171.607 146.665 171.329 146.785 171.038C146.905 170.749 147.001 170.448 147.058 170.141C147.12 169.834 147.154 169.518 147.154 169.207C147.154 168.896 147.121 168.579 147.058 168.273Z" fill="#094E98"/>
<path d="M36.3363 168.273C36.2782 167.966 36.183 167.664 36.0631 167.376C35.9431 167.084 35.7946 166.806 35.6219 166.548C35.4493 166.284 35.2481 166.039 35.0276 165.819C34.807 165.598 34.5627 165.397 34.2989 165.225C34.04 165.052 33.762 164.903 33.4745 164.783C33.1822 164.663 32.8801 164.568 32.5732 164.511C31.0153 164.194 29.3617 164.707 28.2497 165.819C28.0291 166.039 27.8279 166.284 27.6553 166.548C27.4826 166.807 27.3341 167.085 27.2142 167.377C27.0942 167.665 26.9984 167.966 26.9362 168.273C26.874 168.58 26.8451 168.896 26.8451 169.208C26.8451 169.519 26.874 169.836 26.9362 170.142C26.9984 170.449 27.0942 170.751 27.2142 171.038C27.3341 171.33 27.4826 171.608 27.6553 171.867C27.8279 172.131 28.0291 172.376 28.2497 172.596C28.4702 172.817 28.7146 173.018 28.9783 173.195C29.2373 173.363 29.5153 173.512 29.8028 173.631C30.095 173.751 30.3972 173.842 30.7037 173.904C31.0102 173.967 31.327 174 31.6383 174C31.9496 174 32.2663 173.966 32.5729 173.904C32.8794 173.842 33.1815 173.751 33.4738 173.631C33.7613 173.511 34.0393 173.362 34.2982 173.195C34.562 173.018 34.8063 172.817 35.0269 172.596C35.2474 172.376 35.4486 172.131 35.6213 171.867C35.7939 171.608 35.9424 171.33 36.0624 171.038C36.1824 170.75 36.2782 170.449 36.3356 170.142C36.3978 169.835 36.4315 169.519 36.4315 169.208C36.4321 168.896 36.3988 168.579 36.3363 168.273Z" fill="#094E98"/>
<path d="M152.906 63.1494H91.7933V44.655H114.237C115.795 44.655 117.256 43.8982 118.153 42.6255C119.052 41.3528 119.275 39.7229 118.753 38.2554L106.278 3.18639C105.598 1.27578 103.79 0 101.762 0H72.2383C70.2104 0 68.4024 1.27578 67.7227 3.18639L55.2477 38.2551C54.7257 39.7229 54.949 41.3524 55.8472 42.6252C56.7454 43.8979 58.206 44.6547 59.7632 44.6547H82.2073V63.1491H21.0942C18.4468 63.1491 16.301 65.2956 16.301 67.9423V90.47C16.301 93.1167 18.4468 95.2632 21.0942 95.2632H26.8461V131.212V136.005V154.828C26.8461 157.475 28.9919 159.621 31.6393 159.621C34.2867 159.621 36.4325 157.475 36.4325 154.828V140.798H137.568V154.828C137.568 157.475 139.714 159.621 142.361 159.621C145.008 159.621 147.154 157.475 147.154 154.828V136.005V131.212V95.2628H152.906C155.553 95.2628 157.699 93.1164 157.699 90.4697V67.942C157.699 65.2956 155.553 63.1494 152.906 63.1494ZM66.5554 35.0687L75.6208 9.58637H98.3795L107.444 35.0687H66.5554ZM137.568 131.212H36.4321V95.2635H137.567V131.212H137.568ZM148.113 85.6771H142.361H31.6389H25.8874V72.7355H148.113V85.6771H148.113Z" fill="#094E98"/>
<path d="M97.7844 105.089C95.1371 105.089 92.9913 107.236 92.9913 109.883V111.8H81.0083V109.883C81.0083 107.236 78.8625 105.089 76.2151 105.089C73.5677 105.089 71.4219 107.236 71.4219 109.883V116.593C71.4219 119.24 73.5677 121.386 76.2151 121.386H97.7844C100.432 121.386 102.578 119.24 102.578 116.593V109.883C102.578 107.236 100.432 105.089 97.7844 105.089Z" fill="#094E98"/>
<rect x="20" y="69" width="132" height="18" fill="#094E98"/>
</svg>
