<svg width="301" height="301" viewBox="0 0 301 301" fill="none" xmlns="http://www.w3.org/2000/svg">
<path d="M239.103 9.1123H61.8978C27.7673 9.1123 0 36.8796 0 71.0101C0 105.141 27.7673 132.908 61.8978 132.908H106.967V182.916L104.767 181.07C93.8891 171.942 76.8673 172.683 66.8255 182.726C56.3023 193.25 56.9913 209.975 68.4346 219.576L106.967 251.909V283.069C106.967 287.939 110.915 291.888 115.785 291.888H221.605C226.475 291.888 230.424 287.939 230.424 283.069V183.977C230.424 170.658 220.457 159.371 207.239 157.725L159.877 151.824V132.907H239.103C273.233 132.907 301 105.14 301 71.009C301 36.8784 273.233 9.1123 239.103 9.1123ZM124.603 274.251V256.614H212.787V274.251H124.603ZM205.059 175.226C209.465 175.775 212.788 179.537 212.788 183.977V238.978H118.995L79.7709 206.065C76.2894 203.144 76.0783 198.415 79.2964 195.197C82.9108 191.583 89.5152 191.295 93.4305 194.58L110.117 208.582C115.841 213.384 124.604 209.31 124.604 201.826V89.0654C124.604 84.203 128.56 80.2471 133.422 80.2471C138.285 80.2471 142.241 84.203 142.241 89.0654V159.612C142.241 164.061 145.555 167.813 149.969 168.363L205.059 175.226ZM239.103 115.271H159.877V89.0654C159.877 74.4781 148.009 62.6104 133.422 62.6104C118.834 62.6104 106.967 74.4781 106.967 89.0654V115.271H61.8972C37.4921 115.271 17.6367 95.4152 17.6367 71.0101C17.6367 46.605 37.4921 26.749 61.8978 26.749H239.103C263.508 26.749 283.363 46.6044 283.363 71.0101C283.363 95.4158 263.508 115.271 239.103 115.271Z" fill="white"/>
<path d="M232.39 46.9689L203.351 76.0066L191.95 64.6056C188.507 61.1618 182.923 61.1618 179.479 64.6056C176.035 68.0495 176.035 73.6327 179.479 77.0766L197.116 94.7133C200.559 98.1572 206.143 98.1577 209.587 94.7133L244.86 59.4399C248.304 55.996 248.304 50.4128 244.86 46.9689C241.417 43.5245 235.833 43.5245 232.39 46.9689Z" fill="white"/>
</svg>
