<svg width="166" height="166" viewBox="0 0 166 166" fill="none" xmlns="http://www.w3.org/2000/svg">
<path d="M109.356 34.6687C109.897 37.2757 112.363 38.9957 115.075 38.488C117.688 37.943 119.401 35.476 118.894 32.7688C118.286 29.8524 115.376 28.2553 112.715 29.0662C110.207 29.8654 108.902 32.2611 109.356 34.6687V34.6687Z" fill="#094E98"/>
<path d="M161.145 36.2989L143.735 33.9036C139.092 14.3029 121.486 0 101.156 0C77.0217 0 57.3867 19.7803 57.3867 44.0938C57.3867 58.1211 64.0689 71.1281 75.162 79.3153C60.0943 92.8906 35.9095 90.4 24.0317 74.2938C22.3014 71.9474 18.9104 71.6446 16.7906 73.633C5.96303 83.7895 0 96.3273 0 108.938C0 140.402 34.3247 166 76.5156 166C118.528 166 152.707 140.402 152.707 108.938C152.707 95.3083 146.353 82.4388 134.692 72.2194C136.048 70.6058 137.281 68.8968 138.39 67.1045C153.694 66.9136 166 56.3648 166 41.1622C166 38.4789 163.827 36.3034 161.145 36.2989V36.2989ZM124.075 141.86C111.404 151.155 94.514 156.273 76.5156 156.273C26.4028 156.273 -8.63395 116.701 19.8736 84.4026C38.2432 103.381 69.9233 102.144 86.5184 81.4023C88.4122 79.0355 87.7008 75.5238 85.0293 74.0833C73.9783 68.1239 67.1133 56.6326 67.1133 44.0938C67.1133 25.1435 82.385 9.72656 101.156 9.72656C116.775 9.72656 130.331 20.6083 134.139 35.6025C128.614 38.4501 124.824 44.2098 124.824 50.842V53.9669C124.824 57.7745 126.453 61.2076 129.048 63.6107C127.653 65.6018 126.045 67.4433 124.236 69.1124C122.001 71.1754 122.188 74.7694 124.631 76.5876C149.302 94.9514 149.084 123.515 124.075 141.86V141.86ZM137.971 57.3867C136.085 57.3867 134.551 55.8525 134.551 53.9669V50.842C134.551 46.8535 137.718 43.5912 141.67 43.4372L155.748 45.3741C153.672 53.2779 145.78 57.3867 137.971 57.3867Z" fill="#094E98"/>
<path d="M109.497 96.0903C101.51 91.7461 92.4312 93.0404 85.8029 99.4687C76.6855 108.311 59.3593 110.127 49.8431 110.423C46.6807 110.521 44.4543 113.569 45.3148 116.608C48.4337 127.631 61.4887 138.789 80.4063 138.789C90.1069 138.789 99.2952 136.675 106.279 132.836C113.914 128.639 118.422 122.723 118.971 116.176C119.963 104.373 114.366 98.7389 109.497 96.0903ZM109.279 115.362C108.723 121.978 96.9891 129.062 80.4063 129.062C69.3387 129.062 61.8733 124.42 57.8701 119.636C68.9322 118.515 83.4588 115.292 92.5745 106.451C96.1921 102.943 100.551 102.297 104.849 104.634C107.223 105.926 109.871 108.312 109.279 115.362Z" fill="#094E98"/>
</svg>
