<svg width="512" height="512" viewBox="0 0 512 512" fill="none" xmlns="http://www.w3.org/2000/svg">
<g clip-path="url(#clip0)">
<path d="M186.2 196.944C186.2 227.169 218.206 250.169 256.001 250.169C293.807 250.169 325.803 227.161 325.803 196.944C325.803 176.25 310.355 157.686 286.165 148.907C280.8 138.716 269.298 131.653 256.001 131.653C242.706 131.653 231.204 138.716 225.839 148.907C201.648 157.685 186.2 176.25 186.2 196.944V196.944ZM256.001 146.652C266.488 146.652 274.387 153.764 274.387 161.827C274.387 170.195 266.139 177.002 256.001 177.002C245.863 177.002 237.615 170.195 237.615 161.827C237.616 152.999 246.42 146.652 256.001 146.652ZM223.016 166.501C225.224 179.262 236.02 188.635 248.501 191.233V207.469C243.357 206.508 238.364 204.589 233.783 201.741C230.268 199.555 225.642 200.63 223.454 204.146C221.266 207.663 222.343 212.288 225.86 214.476C235.023 220.178 245.446 223.191 256.001 223.191C266.556 223.191 276.979 220.177 286.142 214.476C289.66 212.288 290.737 207.663 288.548 204.146C286.36 200.629 281.734 199.553 278.219 201.741C273.638 204.59 268.645 206.508 263.5 207.469V191.233C276.404 188.544 286.844 178.897 288.986 166.501C302.523 173.666 310.801 184.896 310.801 196.943C310.801 218.021 286.217 235.168 256 235.168C225.782 235.168 201.198 218.021 201.198 196.943C201.2 184.897 209.479 173.666 223.016 166.501Z" fill="#094E98"/>
<path d="M297.228 139.547C301.052 141.135 305.442 139.323 307.032 135.498C307.776 133.705 310.184 131.774 313.714 131.774C317.244 131.774 319.652 133.705 320.397 135.498C321.988 139.325 326.377 141.136 330.201 139.547C334.026 137.958 335.84 133.569 334.251 129.744C331.028 121.986 322.775 116.775 313.715 116.775C304.656 116.775 296.403 121.986 293.18 129.744C291.589 133.569 293.403 137.958 297.228 139.547V139.547Z" fill="#094E98"/>
<path d="M191.607 135.496C192.351 133.703 194.76 131.773 198.29 131.773C201.818 131.773 204.227 133.703 204.971 135.496C206.559 139.322 210.946 141.135 214.774 139.547C218.599 137.959 220.413 133.57 218.825 129.745C215.604 121.986 207.351 116.774 198.291 116.774C189.229 116.774 180.976 121.986 177.755 129.745C176.167 133.57 177.981 137.959 181.806 139.547C185.631 141.135 190.018 139.322 191.607 135.496V135.496Z" fill="#094E98"/>
<path d="M417.124 376.817C420.576 371.642 423.065 365.83 424.4 359.694C426.984 347.81 427.769 334.5 426.734 320.133C426.437 316.003 422.859 312.897 418.714 313.192C414.584 313.489 411.476 317.08 411.774 321.212C412.706 334.149 412.023 346.024 409.743 356.508C408.983 360.001 407.744 363.27 406.038 366.285C387.749 352.523 363.637 349.193 341.045 358.389C335.406 338.713 360.449 301.208 327.796 252.487C336.528 246.163 344.337 238.76 351.125 230.373C367.39 241.316 391.339 261.07 403.703 288.734C405.393 292.517 409.829 294.213 413.611 292.521C417.392 290.831 419.087 286.395 417.398 282.615C403.64 251.833 377.571 230.147 359.796 218.135C371.567 199.338 378.385 177.134 378.385 153.366C378.385 147.574 377.971 141.877 377.189 136.296C426.653 112.864 435.63 44.4824 392.424 12.9225C359.351 -11.2396 312.05 -0.337977 289.965 35.7797C267.846 29.3809 244.171 29.3759 222.037 35.7797C200.009 -0.238982 152.725 -11.2936 119.578 12.9225C76.3492 44.4984 85.3708 112.876 134.813 136.295C134.031 141.876 133.617 147.573 133.617 153.365C133.617 177.131 140.434 199.333 152.204 218.129C126.602 235.364 89.7667 268.346 85.4888 317.345C84.1399 332.791 84.8519 347.038 87.6028 359.693C88.9367 365.828 91.4256 371.641 94.8795 376.816C78.2941 396.678 72.1903 426.658 82.277 455.942C96.9084 498.423 139.194 521.201 176.149 508.472C188.509 504.215 198.806 496.48 206.552 486.539C222.352 492.956 238.955 496.215 256.001 496.215C273.047 496.215 289.65 492.956 305.45 486.539C313.196 496.481 323.493 504.215 335.853 508.472C373.001 521.268 415.164 498.219 429.725 455.942C439.742 426.865 433.84 396.837 417.124 376.817ZM364.776 97.2214C356.232 80.643 344.089 66.3415 329.078 55.181C339.565 46.8513 353.444 45.5383 363.328 52.7571C376.428 62.3277 377.146 83.0009 364.776 97.2214ZM383.578 25.0341C416.325 48.9562 410.732 100.772 374.064 121.06C373.327 118.361 372.272 115.001 371.185 111.978C394.105 91.9246 394.319 56.8219 372.174 40.6445C355.477 28.446 331.917 31.3438 316.028 46.7053C312.295 44.6004 308.443 42.6764 304.471 40.9615C322.916 14.0985 358.713 6.87076 383.578 25.0341V25.0341ZM137.938 121.06C101.2 100.735 95.7395 48.9092 128.424 25.0341C153.588 6.65276 189.396 14.4735 207.53 40.9625C203.558 42.6764 199.706 44.6014 195.974 46.7053C180.085 31.3438 156.526 28.446 139.828 40.6455C117.654 56.8439 117.925 91.9506 140.817 111.979C139.703 115.075 138.632 118.52 137.938 121.06V121.06ZM148.675 52.7571C158.809 45.3543 172.725 47.0813 182.925 55.181C167.913 66.3415 155.77 80.642 147.227 97.2204C134.906 83.0569 135.522 62.3657 148.675 52.7571ZM148.616 153.365C148.616 94.3215 196.631 45.9803 256.001 45.9803C315.238 45.9803 363.388 94.1905 363.388 153.365C363.388 212.586 315.193 260.751 256.001 260.751C196.791 260.751 148.616 212.579 148.616 153.365V153.365ZM100.431 318.651C104.194 275.547 137.675 245.92 160.873 230.367C167.662 238.757 175.474 246.161 184.206 252.487C151.512 301.262 176.595 338.703 170.957 358.389C148.352 349.187 124.256 352.521 105.964 366.285C104.258 363.271 103.019 360.002 102.259 356.508C99.8303 345.328 99.2133 332.592 100.431 318.651ZM171.265 494.292C142.217 504.298 108.386 485.689 96.4574 451.059C77.0602 394.736 128.777 346.093 176.669 378.368C176.73 378.409 176.791 378.449 176.852 378.49C220.786 408.316 216.425 478.736 171.265 494.292ZM293.457 411.689C286.625 415.017 279.448 417.418 272.08 418.838C268.013 419.622 265.351 423.554 266.136 427.622C266.922 431.703 270.869 434.351 274.92 433.567C279.976 432.592 284.95 431.219 289.812 429.474C288.234 445.503 291.212 460.978 297.356 473.616C284.09 478.663 270.215 481.216 256.001 481.216C241.786 481.216 227.911 478.663 214.646 473.616C220.778 461.004 223.774 445.554 222.19 429.473C227.051 431.218 232.024 432.591 237.081 433.566C241.147 434.357 245.081 431.689 245.865 427.622C246.649 423.555 243.988 419.622 239.921 418.838C232.552 417.418 225.376 415.017 218.546 411.689C212.895 393.356 200.953 376.419 184.434 365.512C194.529 335.648 166.146 305.713 196.877 260.537C233.402 280.722 278.288 280.893 315.126 260.537C346.083 306.706 317.257 336.502 327.569 365.512C311.019 376.427 299.06 393.484 293.457 411.689V411.689ZM415.545 451.058C403.932 484.771 370.579 504.572 340.737 494.291C312.926 484.711 297.995 451.872 306.992 418.87C319.934 371.47 371.799 352.89 402.064 382.632C402.101 382.668 402.141 382.699 402.179 382.734C417.804 398.163 424.659 424.593 415.545 451.058V451.058Z" fill="#094E98"/>
</g>
<defs>
<clipPath id="clip0">
<rect width="512" height="512" fill="white"/>
</clipPath>
</defs>
</svg>
