<svg width="126" height="126" viewBox="0 0 126 126" fill="none" xmlns="http://www.w3.org/2000/svg">
<g clip-path="url(#clip0)">
<path d="M123.137 5H2.86373C1.28085 5 0 6.23002 0 7.75009C0 9.27015 1.28085 10.5002 2.86373 10.5002H11.4546V16.0001H8.59091C7.50577 16.0001 6.51594 16.5882 6.02921 17.5202L0.302024 28.52C-0.139871 29.3713 -0.095037 30.3837 0.424982 31.1948C0.950638 32.0059 1.87362 32.5001 2.86346 32.5001H11.4544V38H8.59091C7.50577 38 6.51594 38.5881 6.02921 39.5201L0.302024 50.5199C-0.139871 51.3712 -0.095037 52.3837 0.424982 53.1947C0.950907 54.0058 1.87362 54.5001 2.86373 54.5001H11.4546V60H8.59091C7.50577 60 6.51594 60.588 6.02921 61.52L0.302024 72.5201C-0.139871 73.3714 -0.095037 74.3839 0.424982 75.1949C0.950638 76.006 1.87362 76.5003 2.86346 76.5003H11.4544V82.0002H8.59091C7.50577 82.0002 6.51594 82.5882 6.02921 83.5202L0.302024 94.5201C-0.139871 95.3714 -0.095037 96.3838 0.424982 97.1949C0.950638 98.006 1.87362 98.5002 2.86346 98.5002H11.4544V103.995H8.59091C7.50577 103.995 6.51594 104.583 6.02921 105.515L0.302024 116.515C-0.139871 117.366 -0.095037 118.379 0.424982 119.19C0.950638 120.001 1.87362 120.495 2.86346 120.495H11.4544V123.25C11.4544 124.771 12.7352 126.001 14.3181 126.001C15.901 126.001 17.1818 124.771 17.1818 123.25V120.495H97.3638V123.25C97.3638 124.771 98.6446 126.001 100.228 126.001C101.81 126.001 103.091 124.77 103.091 123.25V120.495H111.682C112.672 120.495 113.595 120 114.12 119.189C114.641 118.378 114.685 117.366 114.243 116.515L108.516 105.514C108.029 104.583 107.04 103.994 105.954 103.994H103.091V98.4997H111.682C112.672 98.4997 113.595 98.0054 114.12 97.1944C114.641 96.3833 114.685 95.3708 114.243 94.5196L108.516 83.5195C108.029 82.5875 107.04 81.9994 105.954 81.9994H103.091V76.4995H111.682C112.672 76.4995 113.595 76.0052 114.12 75.1942C114.641 74.3831 114.685 73.3707 114.243 72.5194L108.516 61.5193C108.029 60.5873 107.04 59.9992 105.954 59.9992H103.091V54.5001H111.682C112.672 54.5001 113.595 54.0058 114.12 53.1947C114.641 52.3837 114.685 51.3712 114.243 50.5199L108.516 39.5198C108.029 38.5878 107.04 37.9998 105.954 37.9998H103.091V32.4999H111.682C112.672 32.4999 113.595 32.0056 114.12 31.1945C114.641 30.3835 114.685 29.371 114.243 28.5197L108.516 17.5196C108.029 16.5877 107.04 15.9996 105.954 15.9996H103.091V10.4999H114.546V84.75C114.546 86.2701 115.826 87.5001 117.409 87.5001C118.992 87.5001 120.273 86.2701 120.273 84.75V10.4999H123.137C124.719 10.4999 126 9.2699 126 7.74983C126 6.22977 124.719 5 123.137 5ZM17.1818 10.4999H97.3638V15.9998H17.1818V10.4999ZM104.187 109.495L107.051 114.995H7.49477L10.3585 109.495H104.187ZM17.1818 103.995V98.4999H97.3638V103.995H17.1818ZM104.187 87.5001L107.051 93H7.49477L10.3582 87.5001H104.187ZM17.1818 82.0002V76.5003H97.3638V82.0002H17.1818V82.0002ZM104.187 65.5002L107.051 71.0001H7.49477L10.3585 65.5002H104.187ZM17.1818 60V54.5001H97.3638V60H17.1818ZM104.187 43.5L107.051 48.9999H7.49477L10.3585 43.5H104.187ZM17.1818 38V32.5001H97.3638V38H17.1818ZM104.187 21.5L107.051 26.9999H7.49477L10.3582 21.5H104.187Z" fill="#094E98"/>
<rect x="-1" width="127" height="9" fill="#094E98"/>
</g>
<defs>
<clipPath id="clip0">
<rect width="126" height="126" fill="white"/>
</clipPath>
</defs>
</svg>
