<svg width="181" height="181" viewBox="0 0 181 181" fill="none" xmlns="http://www.w3.org/2000/svg">
<g clip-path="url(#clip0)">
<path d="M0 0V2.91935V181H2.91935C4.7206 181 6.46637 180.066 8.67632 178.878C11.7679 177.222 15.6156 175.161 20.4355 175.161C23.5271 175.161 25.8188 176.037 28.7235 177.146C33.2281 178.863 38.8303 181 49.629 181H52.5484V178.081C52.5484 160.36 45.647 143.696 33.1142 131.164L32.1129 130.162V121.323C57.3536 106.197 72.9839 78.77 72.9839 49.27V41.4957C80.907 36.0803 87.099 28.3119 90.5 19.1831C93.9011 28.3119 100.093 36.0803 108.016 41.4957V49.27C108.016 78.773 123.646 106.197 148.887 121.323V130.162L147.886 131.164C135.353 143.696 128.452 160.36 128.452 178.081V181H131.371C142.17 181 147.772 178.863 152.276 177.146C155.181 176.037 157.473 175.161 160.565 175.161C165.384 175.161 169.232 177.222 172.324 178.878C174.534 180.066 176.279 181 178.081 181H181V2.91935V0H0ZM5.83871 25.483C12.9035 38.226 25.7516 47.3052 40.8155 49.2145C40.2579 73.7721 31.5495 97.6378 16.1119 116.774H5.83871V25.483ZM5.83871 122.613H26.2742V128.452H5.83871V122.613ZM20.4355 169.323C14.1501 169.323 9.19597 171.976 5.92045 173.734C5.89418 173.748 5.86498 173.763 5.83871 173.775V134.29H13.0933L14.9383 136.874C21.939 146.677 25.7779 158.13 26.1925 170.114C24.4584 169.641 22.6075 169.323 20.4355 169.323ZM46.6396 175.1C39.7412 174.805 35.6132 173.489 32.1129 172.184C32.1012 158.55 27.9791 145.48 20.2253 134.293H27.9879L28.9892 135.295C39.712 146.017 45.9127 160.054 46.6396 175.1ZM67.1452 49.267C67.1452 77.0126 52.2973 102.796 28.3703 116.774H23.5008C37.9195 97.3722 46.0382 73.8217 46.6455 49.6261C46.6688 49.6261 46.6892 49.629 46.7097 49.629C54.0373 49.629 60.9678 47.9183 67.1452 44.8997V49.267ZM46.7097 43.7903C25.1561 43.7903 7.44436 27.0186 5.94089 5.83871H14.7398C15.2536 11.5577 17.2592 16.9848 20.6457 21.682L25.3809 18.2664C22.7213 14.5763 21.1566 10.317 20.6603 5.83871H29.4563C30.8517 14.1092 38.045 20.4355 46.7097 20.4355C49.6349 20.4355 52.5338 19.6969 55.0911 18.3044L52.2944 13.178C50.5924 14.1063 48.6598 14.5968 46.7097 14.5968C41.2855 14.5968 36.7518 10.8629 35.4468 5.83871H57.9842C57.6076 7.30131 56.98 8.69092 56.0545 9.92289L60.7255 13.429C62.4216 11.1665 63.5193 8.57998 63.9777 5.83871H72.8116C71.352 18.9554 60.2088 29.1935 46.7097 29.1935C40.0798 29.1935 33.7507 26.7179 28.8841 22.2221L24.9225 26.5107C30.8722 32.0078 38.6085 35.0323 46.7097 35.0323C63.4317 35.0323 77.1936 22.1813 78.6737 5.83871H87.4785C85.975 27.0186 68.2633 43.7903 46.7097 43.7903ZM93.5215 5.83871H102.32C102.531 8.16835 102.98 10.4659 103.69 12.6904L109.251 10.9184C108.728 9.26895 108.431 7.56113 108.241 5.83871H117.04C118.435 14.1092 125.629 20.4355 134.293 20.4355V14.5968C128.869 14.5968 124.335 10.8629 123.03 5.83871H145.577C144.695 9.23684 142.33 12.1299 139.031 13.5954L141.402 18.932C146.814 16.5265 150.569 11.5606 151.538 5.83871H160.36C159.928 9.71853 158.679 13.4611 156.609 16.7863L161.566 19.872C164.214 15.6215 165.749 10.8133 166.202 5.83871H175.059C173.556 27.0186 155.844 43.7903 134.29 43.7903C112.737 43.7903 95.025 27.0186 93.5215 5.83871ZM113.855 49.267V44.8997C120.032 47.9183 126.963 49.629 134.29 49.629C134.311 49.629 134.331 49.6261 134.355 49.6261C134.962 73.8217 143.078 97.3722 157.496 116.774H152.63C128.703 102.796 113.855 77.0126 113.855 49.267ZM148.89 172.181C145.387 173.489 141.262 174.802 134.363 175.097C135.087 160.054 141.288 146.017 152.014 135.292L153.015 134.29H160.778C153.024 145.477 148.902 158.547 148.89 172.181ZM175.161 173.775C175.135 173.763 175.106 173.748 175.08 173.734C171.804 171.976 166.85 169.323 160.565 169.323C158.393 169.323 156.542 169.641 154.808 170.114C155.219 158.13 159.061 146.677 166.062 136.874L167.907 134.29H175.161V173.775ZM175.161 128.452H154.726V122.613H175.161V128.452ZM175.161 116.774H164.888C149.451 97.6378 140.742 73.7721 140.185 49.2145C155.248 47.3052 168.099 38.226 175.161 25.4801V116.774V116.774Z" fill="#094E98"/>
<path d="M153.576 20.7625C148.618 26.1195 141.589 29.1936 134.29 29.1936C124.89 29.1936 116.146 24.1226 111.473 15.9543L106.408 18.8561C112.118 28.8345 122.803 35.0323 134.29 35.0323C143.209 35.0323 151.801 31.278 157.861 24.7299L153.576 20.7625Z" fill="#094E98"/>
<rect x="154" y="121" width="23" height="8" fill="#094E98"/>
<rect x="4" y="120" width="24" height="11" fill="#094E98"/>
<rect y="-9" width="181" height="12" fill="#094E98"/>
</g>
<defs>
<clipPath id="clip0">
<rect width="181" height="181" fill="white"/>
</clipPath>
</defs>
</svg>
