<svg width="213" height="213" viewBox="0 0 213 213" fill="none" xmlns="http://www.w3.org/2000/svg">
<g clip-path="url(#clip0)">
<path d="M106.5 0L79.875 106.5L106.5 213H211.177C212.184 213 213 212.184 213 211.177L213 1.82298C213 0.816218 212.184 0 211.177 0H106.5Z" fill="#094E98"/>
<path d="M213 8.57159V1.82298C213 0.816218 212.184 -7.87986e-08 211.177 -7.87986e-08L106.5 -7.87986e-08L96.4262 8.57159L213 8.57159Z" fill="#094E98"/>
<path d="M106.5 159.75C121.247 159.75 134.593 153.756 144.235 144.071C146.932 141.363 144.329 136.804 140.648 137.831C137.86 138.61 134.92 139.026 131.884 139.026C121.617 139.026 112.461 134.269 106.5 126.839L96.4262 144.996L106.5 159.75Z" fill="white"/>
<path d="M106.5 86.1606C112.461 78.7305 121.617 73.9738 131.884 73.9738C134.92 73.9738 137.86 74.3898 140.648 75.1682C144.329 76.1958 146.931 71.6371 144.235 68.9288C134.593 59.2444 121.247 53.25 106.5 53.25L96.4262 69.7055L106.5 86.1606Z" fill="white"/>
<path d="M106.5 0L106.5 213H1.82257C0.816228 213 0 212.184 0 211.177L0 1.82298C0 0.816218 0.816228 0.000418961 1.82257 0.000418961H106.5V0Z" fill="#EAEAEA"/>
<path d="M1.82257 213H17.1428L17.1428 48.8169C17.1428 26.5901 35.1612 8.57117 57.3885 8.57117H106.5V0H1.82257C0.815812 0 0 0.816228 0 1.82257L0 211.177C0 212.184 0.816228 213 1.82257 213V213Z" fill="#EAEAEA"/>
<path d="M53.25 106.5C53.25 135.909 77.091 159.75 106.5 159.75L106.5 53.25C77.091 53.25 53.25 77.091 53.25 106.5Z" fill="#094E98"/>
<path d="M40.7267 106.5C40.7267 109.7 38.1328 112.293 34.9333 112.293H20.745C17.5455 112.293 14.9516 109.7 14.9516 106.5C14.9516 103.3 17.5455 100.707 20.745 100.707H34.9333C38.1332 100.707 40.7267 103.3 40.7267 106.5Z" fill="#094E98"/>
<path d="M17.1428 111.037V101.963C15.8078 103.024 14.952 104.662 14.952 106.5C14.952 108.338 15.8082 109.976 17.1428 111.037Z" fill="white"/>
<path d="M49.5387 139.386C51.1383 142.158 50.1889 145.7 47.4183 147.3L35.1309 154.394C32.3598 155.994 28.817 155.044 27.217 152.274C25.6174 149.503 26.5668 145.96 29.3374 144.36L41.6249 137.266C44.3959 135.666 47.9391 136.616 49.5387 139.386Z" fill="#094E98"/>
<path d="M73.6135 163.461C76.3846 165.061 77.334 168.604 75.734 171.375L68.6401 183.663C67.0405 186.434 63.4973 187.383 60.7262 185.783C57.9551 184.183 57.0058 180.64 58.6058 177.869L65.6997 165.582C67.2992 162.811 70.8425 161.861 73.6135 163.461Z" fill="#094E98"/>
<path d="M49.5387 73.6136C51.1383 70.8425 50.1889 67.2997 47.4183 65.6997L35.1309 58.6058C32.3598 57.0062 28.817 57.9555 27.217 60.7262C25.6174 63.4973 26.5668 67.0401 29.3374 68.6401L41.6249 75.734C44.3959 77.3336 47.9391 76.3842 49.5387 73.6136Z" fill="#094E98"/>
<path d="M73.6135 49.5387C76.3846 47.9392 77.334 44.396 75.734 41.6249L68.6401 29.3374C67.0405 26.5663 63.4973 25.617 60.7262 27.217C57.9551 28.8166 57.0058 32.3598 58.6058 35.1309L65.6997 47.4183C67.2992 50.1894 70.8425 51.1387 73.6135 49.5387Z" fill="#094E98"/>
<path d="M147.396 178.887C143.858 178.887 140.991 181.754 140.991 185.292C140.991 188.829 143.858 191.697 147.396 191.697C150.933 191.697 153.801 188.829 153.801 185.292C153.801 181.754 150.933 178.887 147.396 178.887Z" fill="white"/>
<path d="M173.038 62.2101C169.69 62.2101 166.975 64.9248 166.975 68.2736C166.975 71.6223 169.69 74.337 173.038 74.337C176.387 74.337 179.102 71.6223 179.102 68.2736C179.102 64.9248 176.387 62.2101 173.038 62.2101Z" fill="white"/>
<path d="M188.875 135.53C184.449 135.53 180.862 139.118 180.862 143.544C180.862 147.969 184.449 151.557 188.875 151.557C193.3 151.557 196.888 147.969 196.888 143.544C196.888 139.118 193.3 135.53 188.875 135.53Z" fill="white"/>
<path d="M145.588 20.478C141.198 20.478 137.639 24.0368 137.639 28.4268C137.639 32.8168 141.198 36.3756 145.588 36.3756C149.978 36.3756 153.537 32.8168 153.537 28.4268C153.537 24.0368 149.978 20.478 145.588 20.478Z" fill="white"/>
</g>
<defs>
<clipPath id="clip0">
<rect width="213" height="213" fill="white" transform="translate(213 213) rotate(-180)"/>
</clipPath>
</defs>
</svg>
