<svg width="361" height="361" viewBox="0 0 361 361" fill="none" xmlns="http://www.w3.org/2000/svg">
<path d="M342.95 121.729H324.9C334.852 121.729 342.95 113.631 342.95 103.679C342.95 93.7276 334.852 85.6292 324.9 85.6292H318.883V79.6125H276.767V121.729H234.012C249.439 114.599 258.717 104.804 258.717 93.6494C258.717 91.6699 258.356 89.6002 257.616 87.3199L255.859 81.9169L250.36 83.3669C249.066 83.7099 247.67 83.9565 246.346 84.2694C244.674 71.49 233.838 61.5625 220.613 61.5625C216.083 61.5625 211.787 62.82 207.942 64.986C202.425 58.0668 194.031 53.5423 184.513 53.5423C178.388 53.5423 172.582 55.3774 167.648 58.7527C161.548 53.0489 153.389 49.5292 144.4 49.5292C130.526 49.5292 118.306 57.9946 113.059 70.3829C101.519 67.4468 89.0647 71.4058 82.3622 81.0986C79.6125 85.0817 78.2167 89.2993 78.2167 93.6494C78.2167 104.804 87.4944 114.599 102.921 121.729H18.05C8.09843 121.729 0 129.828 0 139.779C0 149.731 8.09843 157.829 18.05 157.829H156.433V242.063H162.45V254.096H150.417V260.113C150.417 286.652 128.823 308.246 102.283 308.246H78.2167C74.8955 308.246 72.2 310.935 72.2 314.263C72.2 317.59 74.8955 320.279 78.2167 320.279H102.283H258.717H282.783C286.105 320.279 288.8 317.59 288.8 314.263C288.8 310.935 286.105 308.246 282.783 308.246H258.717C232.177 308.246 210.583 286.652 210.583 260.113V254.096H198.55V242.063H204.567V157.829H342.95C352.902 157.829 361 149.731 361 139.779C361 129.828 352.902 121.729 342.95 121.729ZM324.9 97.6625C328.215 97.6625 330.917 100.358 330.917 103.679C330.917 107 328.215 109.696 324.9 109.696H318.883V97.6625H324.9ZM288.8 91.6458H306.85V121.729H288.8V91.6458ZM213.477 75.5452C215.613 74.2697 218.062 73.5958 220.607 73.5958C228.02 73.5958 234.096 79.3658 234.602 86.646C232.279 87.0371 229.945 87.4161 227.556 87.729C226.708 87.8433 225.878 87.9877 225.017 88.09C221.425 88.5172 217.755 88.824 214.067 89.0707C214.097 88.9263 214.085 88.7819 214.109 88.6375C214.392 86.9829 214.584 85.3103 214.584 83.6256C214.584 81.8206 214.362 80.0457 214.043 78.2888C213.953 77.7895 213.85 77.2961 213.73 76.8027C213.646 76.3876 213.598 75.9604 213.477 75.5452ZM184.513 65.5756C191.829 65.5756 198.105 69.9678 200.939 76.2311C201.396 77.2359 201.721 78.2708 201.986 79.3177C202.028 79.4982 202.112 79.6606 202.148 79.8411C202.419 81.0806 202.563 82.3441 202.563 83.6256C202.563 85.0456 202.347 86.4294 202.004 87.7952C201.943 88.0479 201.877 88.2946 201.811 88.5412C201.709 88.8902 201.51 89.2151 201.384 89.5581C200.909 89.5641 200.439 89.6002 199.964 89.6002C198.051 89.6182 196.131 89.5701 194.212 89.534C192.233 89.4979 190.253 89.4738 188.292 89.3836C186.426 89.2993 184.579 89.1489 182.72 89.0226C181.168 88.9143 179.616 88.812 178.087 88.6736C178.352 86.9889 178.49 85.3103 178.49 83.6256C178.49 82.3561 178.406 81.1046 178.274 79.8712C178.232 79.4862 178.154 79.1131 178.099 78.7281C177.973 77.8737 177.841 77.0253 177.654 76.195C177.558 75.7679 177.438 75.3527 177.329 74.9315C177.119 74.1313 176.89 73.3492 176.619 72.573C176.487 72.1819 176.342 71.7969 176.192 71.4118C175.867 70.5755 175.512 69.7512 175.127 68.951C175.037 68.7584 174.971 68.5599 174.874 68.3734C177.732 66.5503 181.035 65.5756 184.513 65.5756ZM144.4 61.5625C151.831 61.5625 158.377 65.2808 162.378 70.9244C162.703 71.3817 162.967 71.8691 163.256 72.3444C163.653 73.0002 164.032 73.668 164.357 74.372C164.58 74.8533 164.778 75.3407 164.971 75.8401C165.278 76.6463 165.531 77.4706 165.741 78.3129C165.849 78.7461 165.976 79.1733 166.054 79.6125C166.295 80.9181 166.457 82.2538 166.457 83.6256C166.457 84.829 166.307 86.0383 166.084 87.2597C165.904 87.2296 165.711 87.2176 165.537 87.1875C161.854 86.6279 158.262 85.9781 154.773 85.2381C153.551 84.9794 152.414 84.6605 151.223 84.3837C148.84 83.8242 146.458 83.2586 144.195 82.6208C142.95 82.2719 141.777 81.8688 140.567 81.4957C138.474 80.8459 136.404 80.1781 134.442 79.4621C133.281 79.0409 132.18 78.5837 131.067 78.1384C129.208 77.3924 127.409 76.6222 125.7 75.816C125.153 75.5573 124.635 75.2865 124.106 75.0218C127.487 67.0136 135.429 61.5625 144.4 61.5625ZM90.25 93.6494C90.25 91.7662 90.9058 89.901 92.2656 87.9396C95.2318 83.6497 100.256 81.3273 105.538 81.3273C108.456 81.3273 111.441 82.0793 114.208 83.5594L114.774 83.8182C117.006 85.0576 119.395 86.2188 121.862 87.3439C122.517 87.6448 123.191 87.9336 123.865 88.2224C126.013 89.1489 128.239 90.0394 130.544 90.8817C131.067 91.0743 131.56 91.2788 132.09 91.4593C134.785 92.4039 137.589 93.2824 140.477 94.1067C141.422 94.3774 142.39 94.6241 143.353 94.8768C145.399 95.4183 147.487 95.9357 149.616 96.4171C150.796 96.6878 151.969 96.9586 153.172 97.2113C156 97.7949 158.876 98.3304 161.83 98.8057C161.878 98.8117 161.927 98.8237 161.975 98.8297L161.927 98.9561L169.652 99.9127C169.688 99.9188 169.724 99.9248 169.76 99.9308L174.375 100.502L174.387 100.472C176.818 100.719 179.321 100.857 181.8 101.032C182.804 101.104 183.797 101.2 184.808 101.26C188.141 101.447 191.523 101.537 194.922 101.585L194.76 101.868L205.445 101.573C205.487 101.573 205.529 101.573 205.571 101.573L208.947 101.471L208.983 101.411C210.168 101.363 211.353 101.303 212.533 101.236C215.535 101.062 218.507 100.833 221.449 100.551C222.087 100.49 222.731 100.448 223.363 100.382C226.937 100.009 230.456 99.5397 233.934 99.0042C234.849 98.8658 235.733 98.6974 236.642 98.547C238.212 98.2822 239.806 98.0416 241.353 97.7467L245.269 96.9886L245.281 96.9225C245.546 96.8683 245.823 96.8262 246.082 96.772C241.395 109.13 209.735 121.729 168.467 121.729C123.703 121.729 90.25 106.904 90.25 93.6494ZM198.851 266.129C200.566 283.313 209.536 298.391 222.659 308.246H138.347C151.464 298.391 160.44 283.313 162.155 266.129H162.45H198.55H198.851ZM186.517 254.096H174.483V242.063H186.517V254.096ZM192.533 230.029H168.467V157.829H192.533V230.029ZM342.95 145.796H204.567H156.433H18.05C14.7348 145.796 12.0333 143.1 12.0333 139.779C12.0333 136.458 14.7348 133.763 18.05 133.763H276.767H318.883H342.95C346.265 133.763 348.967 136.458 348.967 139.779C348.967 143.1 346.265 145.796 342.95 145.796Z" fill="#094E98"/>
<path d="M297.602 74.0651C298.354 74.378 299.137 74.5224 299.901 74.5224C302.265 74.5224 304.504 73.1265 305.46 70.8101C306.694 67.8318 305.358 64.4264 302.476 63.0726C310.195 59.7635 311.357 54.8418 311.357 52.1765C311.357 49.487 310.165 44.4811 302.205 41.178C299.125 39.9025 295.611 41.3645 294.341 44.433C293.108 47.4113 294.444 50.8167 297.332 52.1765C289.6 55.4796 288.439 60.4012 288.439 63.0666C288.445 65.7561 289.636 70.7619 297.602 74.0651Z" fill="#094E98"/>
<rect x="167" y="240" width="26" height="18" fill="#094E98"/>
<rect x="285" y="87" width="26" height="37" fill="#094E98"/>
</svg>
