<svg width="239" height="239" viewBox="0 0 239 239" fill="none" xmlns="http://www.w3.org/2000/svg">
<g clip-path="url(#clip0)">
<path d="M234.731 25.6064C232.375 25.6064 230.465 27.5173 230.465 29.875V38.4105C230.465 40.7681 232.375 42.6791 234.731 42.6791C237.089 42.6791 239 40.7681 239 38.4105V29.875C239 27.5173 237.089 25.6064 234.731 25.6064V25.6064Z" fill="#094E98"/>
<path d="M234.731 51.2145C232.375 51.2145 230.465 53.1255 230.465 55.4814V72.5541C230.465 74.91 232.375 76.8209 234.731 76.8209C237.089 76.8209 239 74.91 239 72.5541V55.4814C239 53.1255 237.089 51.2145 234.731 51.2145V51.2145Z" fill="#094E98"/>
<path d="M234.731 85.3564C232.375 85.3564 230.465 87.2673 230.465 89.625V106.696C230.465 109.054 232.375 110.965 234.731 110.965C237.089 110.965 239 109.054 239 106.696V89.625C239 87.2673 237.089 85.3564 234.731 85.3564V85.3564Z" fill="#094E98"/>
<path d="M234.731 119.5C232.375 119.5 230.465 121.411 230.465 123.769V140.84C230.465 143.197 232.375 145.106 234.731 145.106C237.089 145.106 239 143.197 239 140.84V123.769C239 121.411 237.089 119.5 234.731 119.5V119.5Z" fill="#094E98"/>
<path d="M234.731 153.644C232.375 153.644 230.465 155.553 230.465 157.91V174.981C230.465 177.339 232.375 179.25 234.731 179.25C237.089 179.25 239 177.339 239 174.981V157.91C239 155.553 237.089 153.644 234.731 153.644V153.644Z" fill="#094E98"/>
<path d="M234.731 187.785C232.375 187.785 230.465 189.696 230.465 192.054V209.125C230.465 211.483 232.375 213.394 234.731 213.394C237.089 213.394 239 211.483 239 209.125V192.054C239 189.696 237.089 187.785 234.731 187.785V187.785Z" fill="#094E98"/>
<path d="M230.465 0H23.2323C24.7694 2.58197 25.59 5.53045 25.6064 8.53545C25.59 11.5423 24.7694 14.4889 23.2323 17.0709H230.465C235.178 17.0709 239 13.249 239 8.53545C239 3.8219 235.178 0 230.465 0V0Z" fill="#094E98"/>
<path d="M17.0709 25.6064V234.731C17.0746 237.087 18.9837 238.996 21.3396 239H209.125C211.481 238.996 213.39 237.087 213.394 234.731V25.6064H68.2855V42.6791C68.2855 45.035 66.3745 46.9459 64.0187 46.9459C61.661 46.9459 59.75 45.035 59.75 42.6791V25.6064H51.2146V59.75C51.2146 62.1077 49.3036 64.0186 46.9459 64.0186C44.5901 64.0186 42.6791 62.1077 42.6791 59.75V25.6064H34.1437V81.0895C34.1437 83.4472 32.2327 85.3564 29.875 85.3564C27.5173 85.3564 25.6064 83.4472 25.6064 81.0895V25.6064H17.0709Z" fill="#094E98"/>
<path d="M17.0709 8.53545C17.0709 13.249 13.249 17.0709 8.53545 17.0709C3.8219 17.0709 0 13.249 0 8.53545C0 3.8219 3.8219 0 8.53545 0C13.249 0 17.0709 3.8219 17.0709 8.53545Z" fill="#094E98"/>
</g>
<defs>
<clipPath id="clip0">
<rect width="239" height="239" fill="white"/>
</clipPath>
</defs>
</svg>
