<svg width="346" height="346" viewBox="0 0 346 346" fill="none" xmlns="http://www.w3.org/2000/svg">
<path d="M300.629 26.2534H277.654L270.654 5.25352C269.608 2.11587 266.671 0 263.365 0H198.034C194.728 0 191.791 2.11587 190.745 5.25352L183.745 26.2534H162.258L155.258 5.25352C154.213 2.11587 151.277 0 147.969 0H82.6386C79.332 0 76.3957 2.11587 75.3496 5.25352L68.3499 26.2534H45.3753C41.1321 26.2534 37.6924 29.6932 37.6924 33.9364V113.884C37.6924 113.912 37.6883 113.939 37.6883 113.966C37.6883 113.994 37.6924 114.021 37.6924 114.048V318.456C37.6924 322.699 41.1321 326.139 45.3753 326.139H68.5019V338.317C68.5019 342.56 71.9416 346 76.1849 346C80.4281 346 83.8678 342.56 83.8678 338.317V326.139H262.127V338.317C262.127 342.56 265.566 346 269.81 346C274.053 346 277.493 342.56 277.493 338.317V326.139H300.627C304.87 326.139 308.31 322.699 308.31 318.456V33.9371C308.312 29.6932 304.872 26.2534 300.629 26.2534ZM203.571 15.3666H257.826L261.455 26.2534H199.941L203.571 15.3666ZM88.1766 15.3666H142.432L146.061 26.2534H84.5477L88.1766 15.3666ZM53.059 41.62H73.8872H156.72H189.282H272.115H292.945V106.282H53.059V41.62ZM292.945 310.772H53.059V121.649H292.946V310.772H292.945Z" fill="#094E98"/>
<path d="M238.114 166.98H236C231.757 166.98 228.317 170.42 228.317 174.663C228.317 178.906 231.757 182.346 236 182.346H238.114C242.357 182.346 245.797 178.906 245.797 174.663C245.797 170.42 242.357 166.98 238.114 166.98Z" fill="#094E98"/>
<path d="M269.81 166.98H259.338C255.095 166.98 251.655 170.42 251.655 174.663C251.655 178.906 255.095 182.346 259.338 182.346H262.127V280.692H83.8678V182.347H214.199C218.442 182.347 221.882 178.907 221.882 174.664C221.882 170.421 218.442 166.981 214.199 166.981H76.1856C71.9423 166.981 68.5026 170.421 68.5026 174.664V288.376C68.5026 292.619 71.9423 296.059 76.1856 296.059H269.811C274.054 296.059 277.494 292.619 277.494 288.376V174.663C277.493 170.42 274.054 166.98 269.81 166.98Z" fill="#094E98"/>
<path d="M269.81 137.4H76.1856C71.9423 137.4 68.5026 140.84 68.5026 145.083C68.5026 149.326 71.9423 152.766 76.1856 152.766H269.811C274.054 152.766 277.494 149.326 277.494 145.083C277.494 140.84 274.054 137.4 269.81 137.4Z" fill="#094E98"/>
<path d="M104.981 66.9057C100.738 66.9057 97.2983 70.3455 97.2983 74.5887C97.2983 78.2913 94.2857 81.3039 90.5831 81.3039C86.8805 81.3039 83.8678 78.292 83.8678 74.5887C83.8678 70.8854 86.8798 67.8734 90.5831 67.8734C94.8263 67.8734 98.266 64.4337 98.266 60.1905C98.266 55.9473 94.8263 52.5075 90.5831 52.5075C78.4075 52.5075 68.5013 62.4138 68.5013 74.5894C68.5013 86.7649 78.4075 96.6712 90.5831 96.6712C102.759 96.6712 112.665 86.7649 112.665 74.5894C112.665 70.3454 109.225 66.9057 104.981 66.9057Z" fill="#094E98"/>
<path d="M159.925 66.9057C155.682 66.9057 152.242 70.3455 152.242 74.5887C152.242 78.2913 149.23 81.3039 145.527 81.3039C141.824 81.3039 138.812 78.292 138.812 74.5887C138.812 70.8854 141.824 67.8734 145.527 67.8734C149.77 67.8734 153.21 64.4337 153.21 60.1905C153.21 55.9473 149.77 52.5075 145.527 52.5075C133.351 52.5075 123.445 62.4138 123.445 74.5894C123.445 86.7649 133.351 96.6712 145.527 96.6712C157.702 96.6712 167.609 86.7649 167.609 74.5894C167.609 70.3454 164.168 66.9057 159.925 66.9057Z" fill="#094E98"/>
<path d="M214.867 66.9057C210.624 66.9057 207.184 70.3455 207.184 74.5887C207.184 78.2913 204.172 81.3039 200.469 81.3039C196.767 81.3039 193.754 78.292 193.754 74.5887C193.754 70.8854 196.766 67.8734 200.469 67.8734C204.712 67.8734 208.152 64.4337 208.152 60.1905C208.152 55.9473 204.712 52.5075 200.469 52.5075C188.294 52.5075 178.387 62.4138 178.387 74.5894C178.387 86.7649 188.294 96.6712 200.469 96.6712C212.645 96.6712 222.551 86.7649 222.551 74.5894C222.55 70.3454 219.111 66.9057 214.867 66.9057Z" fill="#094E98"/>
<path d="M269.811 66.9057C265.568 66.9057 262.128 70.3455 262.128 74.5887C262.128 78.2913 259.116 81.3039 255.413 81.3039C251.71 81.3039 248.698 78.292 248.698 74.5887C248.698 70.8854 251.71 67.8734 255.413 67.8734C259.656 67.8734 263.096 64.4337 263.096 60.1905C263.096 55.9473 259.656 52.5075 255.413 52.5075C243.237 52.5075 233.331 62.4138 233.331 74.5894C233.331 86.7649 243.236 96.6712 255.413 96.6712C267.588 96.6712 277.495 86.7649 277.495 74.5894C277.494 70.3454 274.054 66.9057 269.811 66.9057Z" fill="#094E98"/>
</svg>
