<svg width="60" height="36" viewBox="0 0 60 36" fill="none" xmlns="http://www.w3.org/2000/svg">
<path d="M60 17.5C60 14.468 57.532 12 54.5 12C53.979 12 53.478 12.078 53 12.213V9.707C53 4.354 48.646 0 43.293 0H16.707C11.354 0 7 4.354 7 9.707V12.213C6.522 12.078 6.021 12 5.5 12C2.468 12 0 14.468 0 17.5C0 19.304 0.903 20.969 2.355 21.987C2.129 22.618 2 23.293 2 24C2 27.309 4.691 30 8 30V33H10V35C10 35.553 10.447 36 11 36C11.553 36 12 35.553 12 35V33H14V30H46V33H48V35C48 35.553 48.447 36 49 36C49.553 36 50 35.553 50 35V33H52V30C55.309 30 58 27.309 58 24C58 23.293 57.871 22.618 57.645 21.987C59.097 20.969 60 19.304 60 17.5ZM39.293 8.707C38.902 8.316 38.902 7.684 39.293 7.293C39.684 6.902 40.316 6.902 40.707 7.293L42.707 9.293C42.902 9.488 43 9.744 43 10C43 9.744 43.098 9.488 43.293 9.293L45.293 7.293C45.684 6.902 46.316 6.902 46.707 7.293C47.098 7.684 47.098 8.316 46.707 8.707L45.414 10L46.707 11.293C47.098 11.684 47.098 12.316 46.707 12.707C46.512 12.902 46.256 13 46 13C45.744 13 45.488 12.902 45.293 12.707L43.293 10.707C43.098 10.512 43 10.256 43 10C43 10.256 42.902 10.512 42.707 10.707L40.707 12.707C40.512 12.902 40.256 13 40 13C39.744 13 39.488 12.902 39.293 12.707C38.902 12.316 38.902 11.684 39.293 11.293L40.586 10L39.293 8.707ZM26.293 10.707C25.902 10.316 25.902 9.684 26.293 9.293C26.684 8.902 27.316 8.902 27.707 9.293L29.707 11.293C29.902 11.488 30 11.744 30 12C30 11.744 30.098 11.488 30.293 11.293L32.293 9.293C32.684 8.902 33.316 8.902 33.707 9.293C34.098 9.684 34.098 10.316 33.707 10.707L32.414 12L33.707 13.293C34.098 13.684 34.098 14.316 33.707 14.707C33.512 14.902 33.256 15 33 15C32.744 15 32.488 14.902 32.293 14.707L30.293 12.707C30.098 12.512 30 12.256 30 12C30 12.256 29.902 12.512 29.707 12.707L27.707 14.707C27.512 14.902 27.256 15 27 15C26.744 15 26.488 14.902 26.293 14.707C25.902 14.316 25.902 13.684 26.293 13.293L27.586 12L26.293 10.707ZM13.293 8.707C12.902 8.316 12.902 7.684 13.293 7.293C13.684 6.902 14.316 6.902 14.707 7.293L16.707 9.293C16.902 9.488 17 9.744 17 10C17 9.744 17.098 9.488 17.293 9.293L19.293 7.293C19.684 6.902 20.316 6.902 20.707 7.293C21.098 7.684 21.098 8.316 20.707 8.707L19.414 10L20.707 11.293C21.098 11.684 21.098 12.316 20.707 12.707C20.512 12.902 20.256 13 20 13C19.744 13 19.488 12.902 19.293 12.707L17.293 10.707C17.098 10.512 17 10.256 17 10C17 10.256 16.902 10.512 16.707 10.707L14.707 12.707C14.512 12.902 14.256 13 14 13C13.744 13 13.488 12.902 13.293 12.707C12.902 12.316 12.902 11.684 13.293 11.293L14.586 10L13.293 8.707ZM3.335 20.235C2.506 19.58 2 18.577 2 17.5C2 15.57 3.57 14 5.5 14C6.22 14 6.89 14.219 7.447 14.594C7.667 14.742 7.862 14.918 8.039 15.106C8.094 15.165 8.142 15.23 8.193 15.293C8.308 15.433 8.413 15.58 8.504 15.735C8.549 15.812 8.593 15.89 8.632 15.971C8.712 16.136 8.777 16.307 8.83 16.483C8.853 16.558 8.882 16.631 8.9 16.709C8.962 16.966 9 17.23 9 17.5C9 17.663 8.98 17.83 8.952 18H8C7.777 18 7.558 18.014 7.341 18.038C7.312 18.041 7.284 18.047 7.256 18.051C7.059 18.076 6.865 18.109 6.674 18.152C6.666 18.154 6.658 18.156 6.65 18.158C5.324 18.465 4.164 19.209 3.335 20.235ZM52 28H46H14H8C5.794 28 4 26.206 4 24C4 23.453 4.111 22.932 4.311 22.457L4.522 22.08C4.878 21.442 5.387 20.925 5.985 20.566C6.001 20.556 6.018 20.549 6.034 20.539C6.241 20.418 6.46 20.322 6.685 20.241C6.811 20.197 6.938 20.153 7.07 20.121C7.15 20.101 7.232 20.085 7.313 20.07C7.537 20.03 7.765 20 8 20H8.31H10.432H49.569H51.691H52C52.235 20 52.463 20.03 52.687 20.069C52.769 20.084 52.85 20.1 52.93 20.12C53.062 20.152 53.188 20.195 53.315 20.24C53.54 20.321 53.759 20.417 53.966 20.538C53.982 20.547 53.999 20.555 54.015 20.565C54.613 20.924 55.122 21.441 55.478 22.079L55.689 22.456C55.889 22.932 56 23.453 56 24C56 26.206 54.206 28 52 28ZM56.665 20.235C55.836 19.209 54.676 18.465 53.349 18.158C53.341 18.156 53.333 18.154 53.325 18.152C53.134 18.109 52.94 18.075 52.743 18.051C52.714 18.047 52.686 18.041 52.658 18.038C52.442 18.014 52.223 18 52 18H51.048C51.02 17.83 51 17.663 51 17.5C51 17.23 51.038 16.966 51.098 16.709C51.116 16.632 51.145 16.559 51.168 16.484C51.222 16.308 51.286 16.136 51.367 15.971C51.407 15.89 51.45 15.812 51.495 15.735C51.587 15.58 51.692 15.433 51.807 15.292C51.858 15.23 51.905 15.164 51.961 15.106C52.139 14.917 52.333 14.742 52.554 14.594C53.11 14.219 53.78 14 54.5 14C56.43 14 58 15.57 58 17.5C58 18.577 57.494 19.58 56.665 20.235Z" fill="#094E98"/>
</svg>
