<svg width="92" height="89" viewBox="0 0 92 89" fill="none" xmlns="http://www.w3.org/2000/svg">
<g clip-path="url(#clip0)">
<path d="M19.8528 87.8894L22.6963 82.9565H86.1062L87.4763 88.1477L19.8528 87.8894Z" fill="#DFEEF0"/>
<path d="M0.64624 6.92165H5.68698L22.6963 82.285L19.465 88.3543L0.64624 6.92165Z" fill="#DFEEF0"/>
<path d="M3.87748 1.49797L27.1424 1.42049L64.0562 1.31718L72.5091 1.29135C73.3363 1.29135 73.3363 0 72.5091 0L49.2442 0.0774811L12.3304 0.180789L3.87748 0.206616C3.05028 0.206616 3.05028 1.49797 3.87748 1.49797Z" fill="#094E98"/>
<path d="M0.646278 7.56733H68.6575C69.4847 7.56733 69.4847 6.27597 68.6575 6.27597H0.646278C-0.180921 6.27597 -0.180921 7.56733 0.646278 7.56733Z" fill="#094E98"/>
<path d="M71.9662 0.309924L68.1146 6.5859C67.6751 7.30905 68.7867 7.95473 69.2261 7.23157L73.0778 0.9556C73.4914 0.25827 72.3798 -0.387406 71.9662 0.309924Z" fill="#094E98"/>
<path d="M1.18895 7.23245L4.44604 1.16309L3.87735 1.49884L27.1423 1.42136L64.056 1.31805L72.509 1.29222L71.8886 0.827338L78.2735 28.4106L88.3809 72.1358L90.7074 82.2342C90.8883 83.0348 92.1291 82.6991 91.9482 81.8984L85.5632 54.2893L75.4559 10.59L73.1294 0.491586C73.0518 0.207488 72.7933 0.0266991 72.509 0.0266991L49.244 0.10418L12.3561 0.181661L3.9032 0.207488C3.67055 0.207488 3.46375 0.336624 3.3345 0.517413L0.0774012 6.58677C-0.310348 7.30993 0.8012 7.98143 1.18895 7.23245Z" fill="#094E98"/>
<path d="M23.0064 83.7055L44.2551 83.6538L78.0669 83.5505L85.796 83.5247C86.6232 83.5247 86.6232 82.2333 85.796 82.2333L64.5732 82.285L30.7356 82.3883L23.0064 82.4141C22.1792 82.4141 22.1792 83.7055 23.0064 83.7055Z" fill="#094E98"/>
<path d="M19.465 89H87.4762C88.3034 89 88.3034 87.7086 87.4762 87.7086H19.465C18.6378 87.7086 18.6378 89 19.465 89Z" fill="#094E98"/>
<path d="M88.045 88.6642L91.8966 82.3883C92.3361 81.6651 91.2245 81.0194 90.7851 81.7426L86.9334 88.0186C86.494 88.7417 87.6055 89.3874 88.045 88.6642Z" fill="#094E98"/>
<path d="M22.3085 82.3624L19.0773 87.9927C18.6637 88.7159 19.7752 89.3616 20.1888 88.6384L23.4201 83.0339C23.8337 82.285 22.7221 81.6393 22.3085 82.3624Z" fill="#094E98"/>
<path d="M5.06661 7.07661L10.8053 32.4904L19.982 73.1422L22.0759 82.4399C22.2568 83.2406 23.4976 82.9048 23.3167 82.1042L17.578 56.6904L8.4271 16.0386L6.33326 6.74086C6.12646 5.91439 4.88566 6.27597 5.06661 7.07661Z" fill="#094E98"/>
<path d="M88.1484 88.1219L81.7893 60.6935L71.6561 17.0458L69.3555 7.07661C69.2779 6.79251 69.0194 6.61172 68.7351 6.61172H0.775521C0.413622 6.61172 0.129272 6.92165 0.129272 7.28323C0.129272 7.33488 0.129272 7.38654 0.155122 7.43819L6.48836 34.8149L16.4923 78.0751L18.7671 87.9411C18.948 88.7417 20.2147 88.406 20.0079 87.6053L13.6747 60.2287L3.67072 16.9425L1.39592 7.07661L0.775521 7.90308H68.7092L68.0888 7.41236L74.4479 34.8407L84.5811 78.4884L86.8817 88.4318C87.0885 89.2583 88.3293 88.9225 88.1484 88.1219Z" fill="#094E98"/>
<path d="M11.1155 12.0871L15.8977 34.1692L23.5493 69.4231L25.3071 77.5586C25.4881 78.3593 26.7289 78.0235 26.5479 77.2229L21.7657 55.1407L14.1141 19.8868L12.3563 11.7255C12.1754 10.9248 10.9346 11.2864 11.1155 12.0871Z" fill="#094E98"/>
<path d="M65.0385 11.0798L47.0211 11.1573L18.3018 11.2606L11.7359 11.2864C10.9087 11.2864 10.9087 12.5778 11.7359 12.5778L29.7533 12.5003L58.4726 12.397L65.0385 12.3712C65.8657 12.3712 65.8657 11.0798 65.0385 11.0798Z" fill="#094E98"/>
<path d="M25.9275 78.0493L44.2551 78.101L73.4397 78.2043L80.109 78.2301C80.9362 78.2301 80.9362 76.9388 80.109 76.9388L61.7814 76.8871L32.5968 76.7838L25.9275 76.758C25.1003 76.758 25.1003 78.0493 25.9275 78.0493Z" fill="#094E98"/>
<path d="M64.4956 12.0354L69.5622 34.2467L77.6274 69.6297L79.4628 77.7394C79.6437 78.54 80.8845 78.2043 80.7036 77.4037L75.637 55.1924L67.5718 19.8093L65.7364 11.6997C65.5555 10.899 64.3147 11.2348 64.4956 12.0354Z" fill="#094E98"/>
<path d="M3.98089 0.955602L72.6125 0.748985L68.1405 6.81834L1.08569 6.35345L3.98089 0.955602Z" fill="#094E98"/>
<path d="M11.7359 11.9063L65.0385 11.7255L72.2248 43.0795L18.4569 42.9246" fill="#094E98"/>
<path d="M72.6125 1.65293L68.7609 7.38654L86.9592 87.8894L91.3279 82.0783L72.6125 1.65293Z" fill="#094E98"/>
<path d="M18.8446 43.4411L36.8879 43.5444L65.6589 43.6994L72.2248 43.7252C73.052 43.7252 73.052 42.4338 72.2248 42.4338L54.1815 42.3305L25.4105 42.1756L18.8187 42.1497C17.9915 42.1497 17.9915 43.4411 18.8446 43.4411Z" fill="#094E98"/>
<path d="M66.7705 9.22026C71.2942 26.8343 75.0166 44.6291 78.041 62.5273C78.8682 67.4861 79.6954 72.4449 80.5226 77.4037C80.9362 79.8572 84.6586 78.8242 84.2709 76.3706C81.324 58.5758 78.2478 40.8067 74.1894 23.2185C73.0261 18.1822 71.8112 13.1718 70.5187 8.16135C69.8983 5.75943 66.1501 6.79252 66.7705 9.22026Z" fill="#094E98"/>
<path d="M72.9227 1.75624L69.0711 7.46402L87.2695 87.9928L91.6381 82.1558L72.9227 1.75624Z" fill="#EAEAEA"/>
<path d="M11.3998 13.6625C12.925 12.7327 14.6569 12.7327 16.3889 12.7327C18.5086 12.7586 20.6024 12.7844 22.7221 12.8102C27.0908 12.8619 31.4853 12.9394 35.8539 12.991C38.3613 13.0168 38.3613 9.14277 35.8539 9.11695C31.1234 9.03947 26.4187 8.98781 21.6881 8.91033C17.7072 8.85868 12.9767 8.13552 9.43524 10.305C7.31554 11.5963 9.25429 14.9539 11.3998 13.6625Z" fill="#094E98"/>
<path d="M11.6842 10.9765C30.3996 11.1315 49.1149 11.3122 67.8303 11.4672C67.2099 10.6407 66.5895 9.84011 65.9691 9.01364C65.0126 12.1387 65.3745 15.3671 66.8738 18.2597C67.8561 20.1193 70.3119 19.0345 70.4928 17.2783C70.6479 15.9095 70.7772 14.5406 70.9323 13.1718C69.6398 13.1718 68.3473 13.1718 67.0548 13.1718C67.1582 18.0015 67.7269 22.8569 68.8384 27.5575C69.3554 29.7528 69.9758 31.9222 70.6996 34.0659C71.1132 35.3056 71.6302 36.4936 71.9146 37.785C72.1731 38.9472 72.4316 40.1352 72.6901 41.2975C74.8873 51.1634 77.0587 61.0293 79.256 70.9211C79.7988 73.3488 83.5212 72.3157 83.0042 69.888C80.8587 60.177 78.7131 50.4919 76.5676 40.7809C76.0506 38.4565 75.5853 36.1837 74.7839 33.9626C73.9567 31.6898 73.2846 29.3654 72.7159 27.0151C71.6302 22.4695 71.0615 17.8465 70.9581 13.1976C70.9064 10.6407 67.3391 10.7699 67.0806 13.1976C66.9255 14.5665 66.7963 15.9353 66.6412 17.3041C67.8561 16.9684 69.0452 16.6584 70.2602 16.3227C69.2262 14.3598 69.0969 12.1904 69.7432 10.0725C70.1051 8.85868 69.0969 7.61898 67.882 7.61898C49.1666 7.46402 30.4513 7.28323 11.7359 7.12827C9.20259 7.10244 9.17674 10.9765 11.6842 10.9765Z" fill="#094E98"/>
<path d="M6.90191 9.09112C10.9345 26.6535 14.9412 44.2417 18.9738 61.8041C19.982 66.1431 20.9643 70.5078 21.9724 74.8468C22.386 76.6547 22.6962 78.6175 23.7561 80.1671C24.8159 81.7168 26.4445 82.5949 28.2798 82.9048C30.1669 83.2147 32.0798 83.0339 33.9668 82.9823C36.1899 82.9048 38.3872 82.8015 40.6103 82.724C45.134 82.5432 49.6319 82.4399 54.1556 82.4658C64.2371 82.5432 74.3186 82.6465 84.4001 82.724C85.6667 82.724 86.5973 81.4843 86.2613 80.2705C85.3824 77.1454 84.5035 73.9945 83.6504 70.8694C82.4096 71.2052 81.1688 71.5667 79.9022 71.9025C80.445 73.1938 81.5566 75.5183 80.7035 76.9129C79.8246 78.3593 76.6192 77.7911 75.275 77.7911C69.9758 77.7394 64.6766 77.7136 59.3773 77.6619C48.7788 77.5844 38.2062 77.4811 27.6077 77.4037C25.1003 77.3778 25.1003 81.2519 27.6077 81.2777C36.8362 81.3552 46.0646 81.4327 55.293 81.5102C59.8168 81.536 64.3405 81.5876 68.8643 81.6135C71.1649 81.6393 73.4655 81.6393 75.792 81.6651C77.7049 81.6909 79.7212 81.8201 81.5307 81.0453C85.7443 79.2374 85.098 74.3302 83.6504 70.8694C83.2368 69.9138 82.3579 69.2165 81.2722 69.5264C80.2641 69.8105 79.6437 70.8952 79.928 71.9025C80.8069 75.0276 81.6858 78.1785 82.5389 81.3035C83.1593 80.4771 83.7797 79.6764 84.4001 78.85C75.7662 78.7725 67.1582 78.695 58.5243 78.6175C54.259 78.5917 49.9938 78.4626 45.7285 78.6434C41.3857 78.7983 37.0688 78.9791 32.726 79.1341C31.2267 79.1857 29.3655 79.4698 27.9696 78.7983C26.522 78.1268 26.3152 76.1898 25.9792 74.7951C24.9969 70.5337 24.0146 66.2722 23.0581 61.9849C21.1194 53.5395 19.1806 45.094 17.2677 36.6228C15.0963 27.0926 12.8991 17.5366 10.7277 8.00638C10.0815 5.6303 6.35906 6.66338 6.90191 9.09112Z" fill="#094E98"/>
<path d="M22.7479 80.5545C22.8255 80.8903 22.8772 81.226 22.9547 81.5618C23.0581 82.0267 23.4459 82.4916 23.8336 82.724C24.2472 82.9565 24.8676 83.0598 25.3329 82.9306C25.7982 82.7757 26.2635 82.4916 26.4962 82.0525C26.7547 81.5618 26.8064 81.0969 26.703 80.5545C26.6254 80.2188 26.5737 79.883 26.4962 79.5473C26.3928 79.0824 26.005 78.6175 25.6173 78.3851C25.2037 78.1526 24.5833 78.0493 24.118 78.1785C23.6527 78.3334 23.1874 78.6175 22.9547 79.0566C22.6962 79.5473 22.6445 80.038 22.7479 80.5545Z" fill="#094E98"/>
<path d="M20.2664 87.7345L23.1357 82.8015H86.5457L87.9157 87.9928L20.2664 87.7345Z" fill="#EAEAEA"/>
<path d="M1.05981 6.74086H6.12641L23.1357 82.1042L19.8786 88.1735L1.05981 6.74086Z" fill="#EAEAEA"/>
<path d="M4.29111 1.34301C12.0461 1.31718 19.8011 1.29135 27.5561 1.26553C39.8607 1.2397 52.1652 1.18804 64.4698 1.16222C67.2875 1.16222 70.1051 1.13639 72.9228 1.13639C73.75 1.13639 73.75 -0.154963 72.9228 -0.154963C65.1678 -0.129135 57.4128 -0.103308 49.6578 -0.0774814C37.3532 -0.0516543 25.0486 -0.0258273 12.7441 0.0258268C9.92641 0.0258268 7.10876 0.0516538 4.29111 0.0516538C3.46392 0.0516538 3.46392 1.34301 4.29111 1.34301Z" fill="#13455E"/>
<path d="M1.62854 7.07661C2.71424 5.0621 3.79994 3.02176 4.85978 1.00725C4.67883 1.11056 4.49788 1.21387 4.29108 1.31718C12.0461 1.29135 19.8011 1.26552 27.556 1.2397C39.8606 1.21387 52.1652 1.16222 64.4698 1.13639C67.2874 1.13639 70.1051 1.11056 72.9227 1.11056C72.7159 0.9556 72.5091 0.800638 72.3023 0.645676C74.422 9.8401 76.5675 19.0604 78.6872 28.2548C82.0477 42.8212 85.4341 57.4135 88.7946 71.98C89.5701 75.3375 90.3456 78.7208 91.1211 82.0783C91.302 82.879 92.5428 82.5432 92.3619 81.7426C90.2422 72.5482 88.0966 63.3279 85.9769 54.1335C82.6164 39.567 79.2301 24.9748 75.8696 10.4083C75.0941 7.05078 74.3186 3.66744 73.5431 0.309924C73.4914 0.0258268 73.2071 -0.154963 72.9227 -0.154963C65.1677 -0.129135 57.4127 -0.103308 49.6578 -0.0774814C37.3532 -0.0516544 25.0486 -0.0258273 12.744 0.0258268C9.92637 0.0258268 7.10873 0.0516538 4.29108 0.0516538C4.05843 0.0516538 3.85164 0.180789 3.72239 0.361578C2.66254 2.37609 1.57684 4.41642 0.491141 6.43093C0.103392 7.15409 1.21494 7.82559 1.62854 7.07661Z" fill="#094E98"/>
<path d="M23.4201 83.5247C30.503 83.4988 37.5859 83.473 44.6429 83.473C55.9135 83.4472 67.1841 83.3955 78.4547 83.3697C81.0396 83.3697 83.5988 83.3439 86.1838 83.3439C87.011 83.3439 87.011 82.0525 86.1838 82.0525C79.1009 82.0784 72.018 82.1042 64.961 82.1042C53.6904 82.13 42.4198 82.1817 31.1492 82.2075C28.5642 82.2075 26.0051 82.2333 23.4201 82.2333C22.5929 82.2591 22.5929 83.5505 23.4201 83.5247Z" fill="#094E98"/>
<path d="M19.8786 88.8192C27.5302 88.8192 35.1818 88.8192 42.8334 88.8192C55.0346 88.8192 67.2358 88.8192 79.4628 88.8192C82.2804 88.8192 85.0981 88.8192 87.9157 88.8192C88.7429 88.8192 88.7429 87.5278 87.9157 87.5278C80.2641 87.5278 72.6126 87.5278 64.961 87.5278C52.7598 87.5278 40.5586 87.5278 28.3316 87.5278C25.5139 87.5278 22.6963 87.5278 19.8786 87.5278C19.0514 87.5278 19.0514 88.8192 19.8786 88.8192Z" fill="#094E98"/>
<path d="M88.4586 88.5093C89.7511 86.4173 91.0177 84.3253 92.3102 82.2333C92.7496 81.5101 91.6381 80.8645 91.1987 81.5876C89.9062 83.6796 88.6395 85.7716 87.347 87.8636C86.9076 88.5609 88.0191 89.2066 88.4586 88.5093Z" fill="#094E98"/>
<path d="M22.7221 82.1817C21.6364 84.0412 20.5507 85.9266 19.4908 87.7861C19.0772 88.5093 20.1888 89.1549 20.6024 88.4318C21.6881 86.5722 22.7738 84.6869 23.8336 82.8273C24.2731 82.13 23.1357 81.4843 22.7221 82.1817Z" fill="#094E98"/>
<path d="M5.50601 6.92165C7.41891 15.3929 9.3318 23.8642 11.2447 32.3355C14.295 45.8947 17.3711 59.428 20.4214 72.9872C21.1194 76.0865 21.8173 79.1857 22.5153 82.285C22.6962 83.0856 23.937 82.7499 23.7561 81.9492C21.8432 73.4779 19.9303 65.0067 18.0174 56.5354C14.9671 42.9762 11.8909 29.417 8.84065 15.8578C8.14271 12.7586 7.44476 9.65932 6.74681 6.56007C6.56586 5.75943 5.32506 6.12101 5.50601 6.92165Z" fill="#094E98"/>
<path d="M88.562 87.9669C86.4423 78.8241 84.3226 69.6814 82.2029 60.5386C78.8166 45.998 75.4561 31.4315 72.0697 16.8909C71.2942 13.5592 70.5187 10.2533 69.7691 6.92165C69.7174 6.63755 69.433 6.45676 69.1487 6.45676C61.4971 6.45676 53.8713 6.45676 46.2198 6.45676C34.0186 6.45676 21.8432 6.45676 9.64206 6.45676C6.82441 6.45676 4.00677 6.45676 1.21497 6.45676C0.77552 6.45676 0.491171 6.86999 0.594571 7.28323C2.71427 16.4002 4.80811 25.5429 6.92781 34.6599C10.2108 49.0714 13.5454 63.4829 16.88 77.8944C17.6297 81.1744 18.4052 84.4803 19.1548 87.7603C19.3358 88.5609 20.5766 88.2252 20.3956 87.4245C18.2759 78.3076 16.1821 69.1648 14.0624 60.0479C10.7536 45.6364 7.41896 31.2249 4.08432 16.7876C3.33467 13.5075 2.55917 10.2275 1.80952 6.92165C1.60272 7.20574 1.39592 7.46402 1.18912 7.74811C8.84071 7.74811 16.4664 7.74811 24.118 7.74811C36.3192 7.74811 48.4946 7.74811 60.6957 7.74811C63.5134 7.74811 66.331 7.74811 69.1228 7.74811C68.916 7.59315 68.7092 7.43819 68.5024 7.28323C70.6221 16.426 72.7418 25.5688 74.8615 34.7115C78.2479 49.2522 81.6084 63.8186 84.9947 78.3593C85.7702 81.6909 86.5457 84.9968 87.2954 88.3285C87.5022 89.1033 88.7429 88.7676 88.562 87.9669Z" fill="#094E98"/>
<path d="M11.5291 11.9321C13.1318 19.2928 14.7086 26.6535 16.3113 34.0142C18.8704 45.7655 21.4037 57.5168 23.9629 69.2682C24.5574 71.98 25.152 74.6918 25.7207 77.4295C25.9016 78.2301 27.1424 77.8944 26.9615 77.0937C25.3588 69.733 23.7819 62.3723 22.1792 55.0116C19.6201 43.2603 17.0868 31.509 14.5277 19.7577C13.9331 17.0459 13.3386 14.334 12.7699 11.5963C12.6148 10.7699 11.3481 11.1056 11.5291 11.9321Z" fill="#094E98"/>
<path d="M65.4521 10.9248C59.4549 10.9507 53.4318 10.9765 47.4346 11.0023C37.8702 11.0281 28.3057 11.0798 18.7153 11.1056C16.5439 11.0798 14.3467 11.1056 12.1495 11.1056C11.3223 11.1056 11.3223 12.397 12.1495 12.397C18.1466 12.3712 24.1697 12.3453 30.1669 12.3195C39.7314 12.2937 49.2958 12.242 58.8862 12.2162C61.0834 12.2162 63.2548 12.1904 65.4521 12.1904C66.3051 12.1904 66.3051 10.899 65.4521 10.9248Z" fill="#094E98"/>
<path d="M26.3411 77.8944C32.4417 77.9202 38.5681 77.946 44.6687 77.946C54.3883 77.9718 64.1337 77.9977 73.8533 78.0493C76.0764 78.0493 78.2995 78.0752 80.5226 78.0752C81.3498 78.0752 81.3498 76.7838 80.5226 76.7838C74.422 76.758 68.2956 76.7322 62.195 76.7322C52.4754 76.7063 42.73 76.6805 33.0104 76.6288C30.7873 76.6288 28.5642 76.603 26.3411 76.603C25.5139 76.603 25.5139 77.8944 26.3411 77.8944Z" fill="#094E98"/>
<path d="M4.39452 0.800639L73.0262 0.568195L68.58 6.9733L1.49933 6.48259L4.39452 0.800639Z" fill="#EAEAEA"/>
<path d="M12.1495 11.7513L65.4521 11.5705L72.6384 42.9245L18.8705 42.7696" fill="#EAEAEA"/>
<path d="M12.1495 11.7513L65.4521 11.5705L72.6384 42.9245L18.8705 42.7696" stroke="#094E98" stroke-miterlimit="10"/>
<path d="M18.8446 43.2603C24.8935 43.2861 30.9424 43.312 36.9913 43.3636C46.6334 43.4153 56.3012 43.4669 65.9433 43.5186C68.1664 43.5186 70.4153 43.5444 72.6384 43.5444C73.4656 43.5444 73.4656 42.253 72.6384 42.253C66.5895 42.2272 60.5406 42.2014 54.4917 42.1497C44.8497 42.0981 35.1818 42.0464 25.5398 41.9948C23.3167 41.9948 21.0677 41.9689 18.8446 41.9689C18.0174 41.9689 18.0174 43.2603 18.8446 43.2603Z" fill="#094E98"/>
<path d="M72.3799 0.154961C71.165 2.37609 69.95 4.59721 68.7351 6.81834C68.3473 7.5415 69.4589 8.18717 69.8466 7.46401C71.0616 5.24289 72.2765 3.02176 73.4914 0.800637C73.8792 0.0774794 72.7677 -0.568197 72.3799 0.154961Z" fill="#094E98"/>
<path d="M64.9093 11.8804C66.5895 19.2928 68.2956 26.6793 69.9759 34.0917C72.6643 45.8947 75.3526 57.6718 78.041 69.4748C78.6614 72.1866 79.2818 74.8726 79.8764 77.5844C80.0573 78.3851 81.2981 78.0493 81.1172 77.2487C79.4369 69.8363 77.7309 62.4498 76.0506 55.0374C73.3622 43.2345 70.6738 31.4573 67.9854 19.6544C67.365 16.9425 66.7446 14.2565 66.1501 11.5447C65.9691 10.7441 64.7283 11.0798 64.9093 11.8804Z" fill="#094E98"/>
</g>
<defs>
<clipPath id="clip0">
<rect width="92" height="89" fill="white"/>
</clipPath>
</defs>
</svg>
