<svg width="301" height="301" viewBox="0 0 301 301" fill="none" xmlns="http://www.w3.org/2000/svg">
<g clip-path="url(#clip0)">
<path d="M217.479 164.898L197.419 184.958L177.338 164.877L225.518 116.697C230.815 118.188 236.222 118.917 241.599 118.917C257.069 118.916 272.259 112.871 283.606 101.523C300.298 84.8318 305.516 59.835 296.901 37.8414L291.988 25.2975L260.453 56.8324L247.721 53.4203L244.309 40.6871L275.842 9.15281L263.3 4.23995C241.308 -4.37415 216.311 0.843669 199.618 17.5354C184.327 32.8263 178.664 55.0861 184.445 75.6224L136.265 123.803L71.5658 59.1034L88.7311 41.9387L35.5276 0.00282425L0 35.5298L41.9353 88.734L59.1012 71.5686L123.8 136.268L81.2681 178.8C59.1794 171.881 35.0804 177.661 18.4545 194.287C6.64802 206.094 0.145723 221.791 0.145723 238.488C0.145723 255.184 6.64802 270.882 18.4545 282.688C30.6406 294.874 46.6472 300.967 62.655 300.967C78.6621 300.967 94.6693 294.874 106.855 282.688C123.481 266.062 129.262 241.963 122.343 219.875L164.875 177.342L184.956 197.423L164.896 217.483L237.518 290.105C244.541 297.128 253.879 300.996 263.811 300.996C273.742 300.996 283.08 297.128 290.103 290.105C304.6 275.608 304.6 252.019 290.103 237.522L217.479 164.898ZM23.5407 36.9195L36.9172 23.5429L62.2384 43.5017L43.4995 62.2406L23.5407 36.9195ZM204.84 80.1569L202.736 74.7869C196.677 59.3179 200.345 41.7377 212.083 29.9994C220.226 21.8566 231.178 17.5994 242.292 17.7746L224.648 35.4194L233.328 67.8127L265.722 76.4932L283.365 58.849C283.543 69.9604 279.284 80.9155 271.141 89.0583C259.403 100.795 241.823 104.465 226.353 98.404L220.984 96.301L164.874 152.411L148.729 136.267L204.84 80.1569ZM101.713 215.573L104.015 221.037C111.14 237.944 107.362 257.251 94.3902 270.223C85.6392 278.973 74.1489 283.348 62.6544 283.347C51.1628 283.346 39.6672 278.972 30.9185 270.223C22.4419 261.746 17.7729 250.476 17.7729 238.487C17.7729 226.498 22.4413 215.228 30.9185 206.751C39.5385 198.132 50.9519 193.572 62.6033 193.572C68.4862 193.572 74.4315 194.736 80.1041 197.127L85.5675 199.429L136.264 148.732L152.409 164.876L101.713 215.573ZM217.479 189.827L233.624 205.972L205.97 233.627L189.825 217.482L217.479 189.827ZM277.638 277.641C273.944 281.334 269.034 283.368 263.811 283.368C258.588 283.368 253.677 281.334 249.983 277.641L218.434 246.092L246.089 218.437L277.638 249.986C285.262 257.61 285.262 270.016 277.638 277.641V277.641Z" fill="white"/>
<path d="M62.6544 209.444C54.8964 209.444 47.6026 212.465 42.1174 217.951C36.6317 223.437 33.6103 230.73 33.6103 238.488C33.6103 246.246 36.6317 253.539 42.1168 259.025C47.6026 264.511 54.8964 267.532 62.6544 267.532C70.4124 267.532 77.7055 264.511 83.1919 259.025C94.5154 247.701 94.5154 229.274 83.1919 217.951C77.7061 212.465 70.4124 209.444 62.6544 209.444V209.444ZM70.7273 246.56C68.5708 248.716 65.704 249.904 62.655 249.904C59.6054 249.904 56.7391 248.716 54.5826 246.56C52.4267 244.404 51.2392 241.537 51.2392 238.488C51.2392 235.439 52.4267 232.572 54.5832 230.415C56.7391 228.259 59.6059 227.072 62.6555 227.072C65.7046 227.072 68.5714 228.26 70.7279 230.415C75.1777 234.866 75.1777 242.109 70.7273 246.56Z" fill="white"/>
</g>
<defs>
<clipPath id="clip0">
<rect width="301" height="301" fill="white"/>
</clipPath>
</defs>
</svg>
