<svg width="206" height="206" viewBox="0 0 206 206" fill="none" xmlns="http://www.w3.org/2000/svg">
<path d="M187.895 72.4219H182.262V12.0703H188.699C192.033 12.0703 194.734 9.36864 194.734 6.03516C194.734 2.70168 192.033 0 188.699 0H6.03516C2.70168 0 0 2.70168 0 6.03516C0 9.36864 2.70168 12.0703 6.03516 12.0703H12.4727V169.789H6.03516C2.70168 169.789 0 172.491 0 175.824C0 179.156 2.70168 181.859 6.03516 181.859H121.508V187.895C121.508 197.878 129.63 206 139.613 206H187.895C197.878 206 206 197.878 206 187.895V90.5273C206 80.5442 197.878 72.4219 187.895 72.4219ZM193.93 90.5273V169.789H134.383C134.109 169.789 133.842 169.814 133.578 169.849V90.5273C133.578 87.2001 136.286 84.4922 139.613 84.4922H187.895C191.222 84.4922 193.93 87.2001 193.93 90.5273ZM24.543 72.4219V60.3516H170.191V72.4219H24.543ZM170.191 48.2812H24.543V36.2109H170.191V48.2812ZM24.543 84.4922H122.545C121.876 86.3813 121.508 88.4119 121.508 90.5273V96.5625H24.543V84.4922ZM170.191 12.0703V24.1406H24.543V12.0703H170.191ZM24.543 169.789V108.633H121.508V169.789H24.543ZM187.895 193.93H139.613C136.286 193.93 133.578 191.222 133.578 187.895V181.8C133.842 181.836 134.109 181.859 134.383 181.859H193.93V187.895C193.93 191.222 191.222 193.93 187.895 193.93Z" fill="#094E98"/>
<path d="M163.774 96.5625C162.156 96.5625 160.606 97.2116 159.471 98.3652L147.418 110.616C145.08 112.993 145.111 116.813 147.487 119.152C148.661 120.307 150.191 120.884 151.72 120.884C153.28 120.884 154.839 120.282 156.021 119.083L163.773 111.204L171.521 119.081C173.858 121.458 177.68 121.489 180.055 119.152C182.431 116.815 182.464 112.994 180.126 110.618L168.076 98.3652C166.941 97.2116 165.392 96.5625 163.774 96.5625V96.5625Z" fill="#094E98"/>
<path d="M171.521 135.2L163.773 143.077L156.021 135.199C153.684 132.822 149.862 132.792 147.487 135.129C145.111 137.466 145.08 141.289 147.418 143.663L159.471 155.916C160.606 157.07 162.156 157.719 163.774 157.719C165.392 157.719 166.941 157.068 168.076 155.916L180.126 143.663C182.464 141.287 182.431 137.466 180.057 135.129C177.679 132.792 173.858 132.824 171.521 135.2V135.2Z" fill="#094E98"/>
</svg>
