<svg width="241" height="175" viewBox="0 0 241 175" fill="none" xmlns="http://www.w3.org/2000/svg">
<path d="M93.8532 83.8449V75.8273H135.356V0.83905H22.638V75.8273H64.1409V83.8449H0V174.161H7.07436V90.9193H233.926V174.161H241V83.8449H93.8532ZM47.3482 7.91341L57.6278 18.1929L62.6298 13.1909L57.3523 7.91341H128.282V53.661H103.1L70.1701 20.7312L65.1681 25.7333L93.0958 53.661H29.7123V7.91341H47.3482ZM29.7123 60.7353H128.282V68.7529H29.7123V60.7353ZM71.2153 75.8273H86.7789V83.8449H71.2153V75.8273Z" fill="#094E98"/>
<path d="M135.828 174.161H142.902V166.379H218.834V174.161H225.908V98.9369H135.828V174.161ZM142.902 159.305V136.195H218.834V159.305H142.902ZM218.834 106.011V129.121H142.902V106.011H218.834Z" fill="#094E98"/>
<path d="M192.187 144.213H173.322V151.287H192.187V144.213Z" fill="#094E98"/>
<path d="M192.187 114.029H173.322V121.103H192.187V114.029Z" fill="#094E98"/>
<path d="M226.144 72.5259H173.322V79.6003H226.144V72.5259Z" fill="#094E98"/>
<path d="M226.144 61.207H173.322V68.2813H226.144V61.207Z" fill="#094E98"/>
<path d="M218.598 49.888H173.322V56.9623H218.598V49.888Z" fill="#094E98"/>
<rect x="4" y="90" width="232" height="15" fill="#094E98"/>
<rect x="28" y="57" width="102" height="16" fill="#094E98"/>
</svg>
