<svg width="243" height="243" viewBox="0 0 243 243" fill="none" xmlns="http://www.w3.org/2000/svg">
<g clip-path="url(#clip0)">
<path d="M62.3518 56.9531C78.0547 56.9531 90.8284 44.1795 90.8284 28.4766C90.8284 12.7737 78.0547 0 62.3518 0C46.6508 0 33.8752 12.7737 33.8752 28.4766C33.8752 44.1795 46.6508 56.9531 62.3518 56.9531ZM62.3518 18.9844C67.5855 18.9844 71.844 23.2429 71.844 28.4766C71.844 33.7102 67.5855 37.9688 62.3518 37.9688C57.1181 37.9688 52.8596 33.7102 52.8596 28.4766C52.8596 23.2429 57.1181 18.9844 62.3518 18.9844ZM160.405 177.448L177.784 237.514L159.547 242.79L142.17 182.723C140.714 177.695 136.04 174.182 130.805 174.182H94.8718C78.4385 174.358 66.0004 166.16 62.3574 152.787L48.8792 103.331C44.7375 88.129 53.6605 72.4039 68.7794 68.2288C83.8297 63.8405 99.6439 72.3928 104.058 87.3337L104.117 87.5413L117.303 136.213H97.6342L85.8264 92.6267C84.3322 87.7453 79.0744 84.9829 74.0595 86.4642L73.8648 86.5198C68.874 87.8806 65.8205 93.2923 67.1962 98.3405L80.6725 147.794C82.5283 154.604 91.0935 155.238 94.7105 155.199L94.8218 155.197H130.805C144.444 155.197 156.616 164.346 160.405 177.448ZM126.899 193.186V243H107.914V212.136C101.073 212.126 92.5989 212.123 89.9793 212.15C89.7512 212.152 89.5213 212.154 89.2952 212.154C75.7855 212.154 63.0155 207.981 52.385 200.706V243H33.4006V180.769C30.1544 175.485 27.6071 169.678 25.9126 163.457L25.8736 163.312L0 62.1534L18.393 57.4481L44.2462 158.534C49.8544 178.993 68.3271 193.17 89.297 193.17C89.4583 193.17 89.6196 193.168 89.7809 193.166C94.4955 193.118 126.899 193.186 126.899 193.186ZM185.75 0C154.346 0 128.797 25.5492 128.797 56.9531C128.797 88.3571 154.346 113.906 185.75 113.906C217.154 113.906 242.703 88.3571 242.703 56.9531C242.703 25.5492 217.154 0 185.75 0ZM185.75 94.9219C164.816 94.9219 147.781 77.8897 147.781 56.9531C147.781 36.0165 164.816 18.9844 185.75 18.9844C206.687 18.9844 223.719 36.0165 223.719 56.9531C223.719 77.8897 206.687 94.9219 185.75 94.9219ZM195.242 47.4609H209.481V66.4453H176.258V33.2227H195.242V47.4609Z" fill="white"/>
</g>
<defs>
<clipPath id="clip0">
<rect width="243" height="243" fill="white"/>
</clipPath>
</defs>
</svg>
