<svg width="140" height="140" viewBox="0 0 140 140" fill="none" xmlns="http://www.w3.org/2000/svg">
<g clip-path="url(#clip0)">
<path d="M137.5 14.9995C136.12 14.9995 135 16.1189 135 17.5V22.4998C135 23.8809 136.12 25.0003 137.5 25.0003C138.881 25.0003 140 23.8809 140 22.4998V17.5C140 16.1189 138.881 14.9995 137.5 14.9995V14.9995Z" fill="#094E98"/>
<path d="M137.5 30.0002C136.12 30.0002 135 31.1195 135 32.4995V42.5003C135 43.8803 136.12 44.9997 137.5 44.9997C138.881 44.9997 140 43.8803 140 42.5003V32.4995C140 31.1195 138.881 30.0002 137.5 30.0002V30.0002Z" fill="#094E98"/>
<path d="M137.5 49.9995C136.12 49.9995 135 51.1189 135 52.5V62.4997C135 63.8808 136.12 65.0002 137.5 65.0002C138.881 65.0002 140 63.8808 140 62.4997V52.5C140 51.1189 138.881 49.9995 137.5 49.9995V49.9995Z" fill="#094E98"/>
<path d="M137.5 70C136.12 70 135 71.1194 135 72.5005V82.5002C135 83.8812 136.12 84.9995 137.5 84.9995C138.881 84.9995 140 83.8812 140 82.5002V72.5005C140 71.1194 138.881 70 137.5 70V70Z" fill="#094E98"/>
<path d="M137.5 90.0005C136.12 90.0005 135 91.1188 135 92.4998V102.5C135 103.881 136.12 105 137.5 105C138.881 105 140 103.881 140 102.5V92.4998C140 91.1188 138.881 90.0005 137.5 90.0005V90.0005Z" fill="#094E98"/>
<path d="M137.5 110C136.12 110 135 111.119 135 112.5V122.5C135 123.881 136.12 125 137.5 125C138.881 125 140 123.881 140 122.5V112.5C140 111.119 138.881 110 137.5 110V110Z" fill="#094E98"/>
<path d="M16.5025 132.5C15.9494 132.499 15.501 132.051 15.4997 131.498V10.4995H17.4995V41.5002C17.4995 43.7105 19.2913 45.4995 21.5 45.4995C23.7087 45.4995 25.5005 43.7105 25.5005 41.5002V10.4995H27.5003V29C27.5003 31.2091 29.2908 33.0005 31.4997 33.0005C33.7092 33.0005 35.5002 31.2095 35.5002 29V10.4995H37.5V19.0003C37.5 21.2092 39.2914 22.9997 41.5005 22.9997C43.7089 22.9997 45.4998 21.2087 45.4998 19.0003V10.4995H127.5V131.497C127.5 132.051 127.051 132.499 126.498 132.5H16.5025Z" fill="#E8EAED" stroke="#094E98" stroke-width="3"/>
<path d="M135 0H13.6089C14.5093 1.51245 14.99 3.23959 14.9996 4.99985C14.99 6.76117 14.5093 8.48724 13.6089 9.99969H135C137.761 9.99969 140 7.76093 140 4.99985C140 2.23877 137.761 0 135 0V0Z" fill="#094E98"/>
<path d="M9.99969 4.99985C9.99969 7.76093 7.76093 9.99969 4.99985 9.99969C2.23877 9.99969 0 7.76093 0 4.99985C0 2.23877 2.23877 0 4.99985 0C7.76093 0 9.99969 2.23877 9.99969 4.99985Z" fill="#094E98"/>
<rect x="13" y="125" width="117" height="6" fill="#094E98"/>
</g>
<defs>
<clipPath id="clip0">
<rect width="140" height="140" fill="white"/>
</clipPath>
</defs>
</svg>
