<svg width="110" height="110" viewBox="0 0 110 110" fill="none" xmlns="http://www.w3.org/2000/svg">
<g clip-path="url(#clip0)">
<path d="M108.976 65.2448C109.034 65.479 109.064 65.7132 109.064 65.9766C109.064 67.6158 107.747 68.933 106.137 68.933H96.8609V21.3385H103.152V38.8717C103.152 42.2086 103.591 45.5455 104.469 48.7946L108.859 64.9814C108.917 65.0399 108.947 65.1277 108.976 65.2448Z" fill="#F5F9FA"/>
<path d="M108.976 85.3246C109.034 85.5588 109.064 85.793 109.064 86.0564C109.064 87.6956 107.747 89.0128 106.108 89.0128H96.8609V68.9329H104.469L108.859 85.0905C108.917 85.149 108.947 85.2368 108.976 85.3246Z" fill="#F5F9FA"/>
<path d="M96.8609 88.9835H104.469L108.859 105.141C108.888 105.229 108.917 105.317 108.947 105.404C109.005 105.639 109.034 105.873 109.034 106.136C109.034 107.775 107.717 109.093 106.079 109.093H9.77388C11.4126 109.093 12.7295 107.775 12.7295 106.136C12.7295 105.902 12.7002 105.668 12.6417 105.434C12.6124 105.346 12.5831 105.258 12.5539 105.17L7.98883 88.3981C8.4863 88.7786 9.13009 88.9835 9.77388 88.9835H96.8609ZM99.875 101.746V98.0868C99.875 96.5647 98.6459 95.3646 97.1535 95.3646C95.3977 95.3646 93.9931 96.7696 93.9931 98.5258V101.746C93.9931 102.565 94.6369 103.209 95.4563 103.209H98.4118C99.2019 103.209 99.875 102.565 99.875 101.746Z" fill="#F5F9FA"/>
<path d="M96.8609 68.9037V88.9835H9.77388C11.4126 88.9835 12.7295 87.6663 12.7295 86.0271C12.7295 85.793 12.7002 85.5295 12.6417 85.2954C12.6124 85.2076 12.5831 85.1197 12.5539 85.0319L7.98883 68.289C8.4863 68.6695 9.13009 68.8744 9.77388 68.8744L96.8609 68.9037Z" fill="#F5F9FA"/>
<path d="M96.8609 21.3385V68.9037H9.77387C11.4126 68.9037 12.7294 67.5865 12.7294 65.9766C12.7294 65.7424 12.7002 65.479 12.6417 65.2448C12.6124 65.157 12.5831 65.0692 12.5539 64.9814L6.8183 43.9063V21.3385H96.8609Z" fill="#F5F9FA"/>
<path d="M96.8609 96.3012C96.3341 96.3012 95.9245 95.8914 95.9245 95.3645V21.3385C95.8952 20.8116 96.3049 20.3725 96.8023 20.3433C97.3291 20.314 97.768 20.7238 97.7973 21.2214C97.7973 21.2507 97.7973 21.2799 97.7973 21.3385V95.3645C97.7973 95.8914 97.3876 96.3012 96.8609 96.3012Z" fill="#094E98"/>
<path d="M98.4118 104.175H95.4563C94.1101 104.175 93.0567 103.092 93.0274 101.746V98.5258C93.0274 96.272 94.871 94.4279 97.1242 94.4279C99.1434 94.4279 100.782 96.0671 100.811 98.0868V101.746C100.811 103.092 99.7287 104.175 98.4118 104.175ZM97.1535 96.3012C95.9245 96.3012 94.9295 97.2964 94.9295 98.5258V101.746C94.9295 102.038 95.1636 102.272 95.4563 102.272H98.4118C98.7045 102.272 98.9386 102.038 98.9386 101.746V98.0868C98.9386 97.0916 98.1192 96.3012 97.1535 96.3012Z" fill="#094E98"/>
<path d="M109.034 22.2751H0.936419C0.409683 22.2751 0 21.8654 0 21.3385V0.936669C0 0.409792 0.409683 0 0.936419 0H109.034C109.561 0 109.971 0.409792 109.971 0.936669V21.3092C110 21.8361 109.59 22.2751 109.034 22.2751C109.034 22.2751 109.064 22.2751 109.034 22.2751ZM1.87284 20.3725H108.098V1.87334H1.87284V20.3725Z" fill="#094E98"/>
<path d="M106.108 110.029H9.77388C9.24715 110 8.86673 109.561 8.89599 109.034C8.92525 108.566 9.30567 108.185 9.77388 108.156H106.108C106.635 108.185 107.015 108.624 106.986 109.151C106.957 109.619 106.576 110 106.108 110.029Z" fill="#094E98"/>
<path d="M6.81832 107.073C6.29158 107.073 5.8819 106.663 5.8819 106.136V21.3385C5.91116 20.8116 6.35011 20.4311 6.87684 20.4604C7.34505 20.4896 7.72547 20.8701 7.75474 21.3385V106.136C7.75474 106.634 7.34505 107.073 6.81832 107.073Z" fill="#094E98"/>
<path d="M9.77389 110.029C7.63768 110.029 5.8819 108.302 5.8819 106.136C5.91116 105.609 6.35011 105.229 6.87684 105.258C7.34505 105.287 7.72547 105.668 7.75474 106.136C7.75474 107.249 8.66189 108.156 9.77389 108.156C10.8859 108.156 11.793 107.249 11.793 106.136C11.793 105.961 11.7638 105.814 11.7345 105.668C11.7053 105.58 11.676 105.522 11.676 105.434C11.5004 104.936 11.793 104.409 12.2905 104.234C12.788 104.058 13.3147 104.351 13.4903 104.848C13.5196 104.965 13.5781 105.082 13.5781 105.2C13.6659 105.492 13.6951 105.814 13.6951 106.136C13.6659 108.244 11.9394 110 9.77389 110.029C9.77389 110.029 9.80315 110 9.77389 110.029Z" fill="#094E98"/>
<path d="M12.5539 106.078C12.1442 106.078 11.7638 105.785 11.6467 105.375L7.11093 88.6323C6.99388 88.1346 7.31577 87.6078 7.81324 87.4907C8.28145 87.3736 8.77893 87.6663 8.92524 88.1347L13.461 104.907C13.6073 105.404 13.2854 105.931 12.788 106.048C12.7002 106.078 12.6124 106.078 12.5539 106.078Z" fill="#094E98"/>
<path d="M9.7739 89.9202C7.63769 89.9202 5.88191 88.1932 5.88191 86.0272C5.85265 85.5003 6.26233 85.0612 6.7598 85.0319C7.28654 85.0027 7.72548 85.4125 7.75475 85.9101C7.75475 85.9393 7.75475 85.9686 7.75475 86.0272C7.75475 87.1394 8.6619 88.0176 9.7739 88.0468C10.8859 88.0468 11.7638 87.1394 11.7931 86.0272C11.7931 85.8515 11.7638 85.7052 11.7345 85.5588C11.7053 85.471 11.7053 85.4125 11.676 85.3247C11.5004 84.827 11.7931 84.3002 12.2905 84.1245C12.788 83.9489 13.3147 84.2416 13.4903 84.7392C13.5196 84.8563 13.5781 84.9734 13.5781 85.0905C13.6659 85.3832 13.6952 85.7052 13.6952 86.0272C13.6659 88.1639 11.9101 89.9202 9.7739 89.9202Z" fill="#094E98"/>
<path d="M12.5539 85.9979C12.1442 85.9979 11.7638 85.7052 11.6467 85.2954L7.11093 68.5524C6.96462 68.0548 7.22798 67.528 7.72546 67.3816C8.22293 67.2352 8.74967 67.4987 8.89598 67.9963C8.89598 68.0256 8.89598 68.0256 8.92525 68.0548L13.461 84.7978C13.6073 85.2954 13.2854 85.8223 12.788 85.9393C12.7002 85.9686 12.6417 85.9979 12.5539 85.9979Z" fill="#094E98"/>
<path d="M9.77389 69.8403C7.63768 69.8403 5.8819 68.1134 5.8819 65.9473C5.91116 65.4204 6.35011 65.0399 6.87684 65.0692C7.34505 65.0985 7.72547 65.479 7.75474 65.9473C7.75474 67.0596 8.66189 67.9377 9.77389 67.9377C10.8859 67.9377 11.7638 67.0303 11.7638 65.918C11.7638 65.7424 11.7345 65.5961 11.7053 65.4497V65.3912C11.7053 65.3326 11.676 65.2741 11.6467 65.2448C11.5004 64.7472 11.793 64.2203 12.2905 64.074C12.7587 63.9276 13.2562 64.1911 13.4318 64.6301C13.461 64.7472 13.4903 64.8643 13.5196 64.9814C13.6074 65.2741 13.6366 65.5961 13.6366 65.918C13.6659 68.0841 11.9394 69.8403 9.77389 69.8403Z" fill="#094E98"/>
<path d="M12.5539 65.918C12.1442 65.918 11.7638 65.6253 11.6467 65.2155L5.91117 44.1405C5.76486 43.6429 6.08675 43.116 6.58422 42.9697C7.08169 42.8233 7.60843 43.1453 7.75475 43.6429L13.4903 64.7179C13.6366 65.2155 13.3147 65.7424 12.8173 65.8595C12.7002 65.8888 12.6124 65.918 12.5539 65.918Z" fill="#094E98"/>
<path d="M106.108 110.029C105.581 110 105.201 109.561 105.23 109.034C105.259 108.566 105.64 108.185 106.108 108.156C107.22 108.156 108.098 107.249 108.098 106.136C108.098 105.99 108.069 105.814 108.039 105.668C108.039 105.609 108.01 105.58 107.981 105.522L107.952 105.434C107.776 104.936 108.039 104.409 108.537 104.234C109.034 104.058 109.561 104.321 109.737 104.819C109.737 104.848 109.737 104.848 109.766 104.878L109.795 104.995C109.795 105.024 109.824 105.082 109.824 105.112C109.824 105.141 109.824 105.17 109.854 105.2C109.941 105.522 109.971 105.814 109.971 106.136C110 108.273 108.244 110 106.108 110.029Z" fill="#094E98"/>
<path d="M108.888 106.078C108.478 106.078 108.098 105.785 107.981 105.375L103.591 89.2177C103.445 88.7201 103.708 88.1932 104.206 88.0468C104.703 87.9005 105.23 88.1639 105.376 88.6615C105.376 88.6908 105.376 88.6908 105.406 88.7201L109.795 104.878C109.942 105.375 109.62 105.902 109.122 106.019C109.034 106.078 108.976 106.078 108.888 106.078Z" fill="#094E98"/>
<path d="M106.108 89.9202C105.581 89.8909 105.201 89.4518 105.23 88.925C105.259 88.4566 105.64 88.0761 106.108 88.0468C107.22 88.0468 108.098 87.1394 108.098 86.0271C108.098 85.8808 108.069 85.7052 108.039 85.5588C108.039 85.5003 108.01 85.471 107.981 85.4125L107.952 85.3246C107.776 84.827 108.039 84.3002 108.537 84.1245C109.034 83.9489 109.561 84.2123 109.737 84.71C109.737 84.7392 109.737 84.7392 109.766 84.7685L109.795 84.8856C109.795 84.9149 109.824 84.9734 109.824 85.0027C109.824 85.0319 109.854 85.0612 109.854 85.0905C109.941 85.4125 109.971 85.7052 109.971 86.0271C110 88.1932 108.244 89.9202 106.108 89.9202Z" fill="#094E98"/>
<path d="M108.888 85.9979C108.478 85.9979 108.098 85.7052 107.981 85.2954L103.591 69.1378C103.445 68.6402 103.708 68.1134 104.206 67.967C104.703 67.8207 105.23 68.0841 105.376 68.5817C105.376 68.611 105.376 68.611 105.406 68.6402L109.795 84.7978C109.942 85.2954 109.62 85.8223 109.122 85.9393C109.034 85.9686 108.976 85.9979 108.888 85.9979Z" fill="#094E98"/>
<path d="M106.108 69.8403C105.581 69.8111 105.201 69.372 105.23 68.8451C105.259 68.3768 105.64 67.9963 106.108 67.967C107.22 67.967 108.098 67.0596 108.098 65.9473C108.098 65.801 108.069 65.6253 108.039 65.479L107.981 65.2741C107.776 64.7765 108.039 64.2496 108.508 64.0447C108.976 63.8398 109.532 64.1032 109.737 64.5716C109.737 64.6009 109.766 64.6301 109.766 64.6887C109.795 64.7472 109.795 64.8057 109.824 64.8643L109.854 64.9814C109.854 65.0106 109.854 65.0106 109.883 65.0399C109.971 65.3619 110 65.6546 110 65.9766C109.971 68.1134 108.244 69.8403 106.108 69.8403Z" fill="#094E98"/>
<path d="M108.888 65.918C108.478 65.918 108.098 65.6253 107.981 65.2155L103.591 49.0287C102.684 45.7211 102.245 42.2964 102.245 38.8717V21.3385C102.275 20.8116 102.714 20.4311 103.24 20.4604C103.708 20.4896 104.089 20.8701 104.118 21.3385V38.8717C104.118 42.1208 104.557 45.3699 105.406 48.5311L109.795 64.7179C109.942 65.2155 109.649 65.7424 109.151 65.8888C109.034 65.8888 108.976 65.918 108.888 65.918Z" fill="#094E98"/>
<path d="M106.108 89.9202H9.77389C9.24715 89.9494 8.80821 89.5396 8.77894 89.042C8.74968 88.5152 9.15936 88.0761 9.65684 88.0468C9.6861 88.0468 9.71536 88.0468 9.77389 88.0468H106.108C106.635 88.0761 107.015 88.5152 106.986 89.042C106.957 89.5104 106.576 89.8909 106.108 89.9202Z" fill="#094E98"/>
<path d="M106.108 69.8403H9.77389C9.24715 69.8696 8.80821 69.4598 8.77894 68.9622C8.74968 68.4353 9.15936 67.9963 9.65684 67.967C9.6861 67.967 9.71536 67.967 9.77389 67.967H106.108C106.635 67.9963 107.015 68.4353 106.986 68.9622C106.957 69.4306 106.576 69.8111 106.108 69.8403Z" fill="#094E98"/>
<path d="M103.474 21.2799H97.212H7.16942H1.28754V0.907402H109.385V21.2799H103.474Z" fill="#094E98"/>
<path d="M109.298 65.1863C109.356 65.4205 109.385 65.6546 109.385 65.9181C109.385 67.5572 108.069 68.8744 106.43 68.8744H104.82H103.474H97.1827V21.2799H103.474V38.8132C103.474 42.1501 103.913 45.487 104.791 48.736L109.181 64.9228C109.239 65.0107 109.268 65.0985 109.298 65.1863Z" fill="#EAEAEA"/>
<path d="M109.298 85.2661C109.356 85.5003 109.385 85.7344 109.385 85.9979C109.385 87.6078 108.069 88.9542 106.43 88.9542H104.82H103.474H97.1827V68.8744H103.474H104.82L109.21 85.0319C109.239 85.0905 109.268 85.2076 109.298 85.2661Z" fill="#EAEAEA"/>
<path d="M97.212 88.9542H103.504H104.85L109.239 105.112C109.268 105.2 109.298 105.287 109.327 105.375C109.385 105.609 109.415 105.844 109.415 106.107C109.415 107.717 108.098 109.063 106.459 109.063H10.0957C11.7345 109.063 13.0513 107.746 13.0513 106.107C13.0513 105.844 13.022 105.609 12.9635 105.375C12.9342 105.287 12.905 105.2 12.8757 105.112L8.31067 88.3688C8.80814 88.7493 9.42267 88.9542 10.0957 88.9542H97.212ZM100.197 101.716V98.0575C100.197 96.5354 98.9677 95.3353 97.4753 95.3353C95.7195 95.3353 94.3149 96.7403 94.3149 98.4965V101.716C94.3149 102.536 94.988 103.18 95.7781 103.18H98.7336C99.553 103.18 100.197 102.536 100.197 101.716Z" fill="#EAEAEA"/>
<path d="M100.197 98.0575V101.716C100.197 102.536 99.5237 103.18 98.7336 103.18H95.7781C94.9587 103.18 94.3149 102.507 94.3149 101.716V98.4965C94.3149 96.7403 95.7195 95.3353 97.4753 95.3353C98.997 95.3353 100.197 96.5647 100.197 98.0575Z" fill="#094E98"/>
<path d="M97.212 68.8744V88.9542H10.0957C11.7345 88.9542 13.0513 87.637 13.0513 85.9979C13.0513 85.7344 13.022 85.5003 12.9635 85.2661C12.9342 85.1783 12.905 85.0905 12.8757 85.0027L8.31067 68.2597C8.80814 68.6402 9.42267 68.8451 10.0957 68.8451H97.212V68.8744Z" fill="#EAEAEA"/>
<path d="M97.212 21.2799V68.8451H10.0957C11.7344 68.8451 13.0513 67.528 13.0513 65.8888C13.0513 65.6546 13.022 65.3912 12.9635 65.157C12.9342 65.0692 12.905 64.9814 12.8757 64.8936L7.14014 43.8185V40.8622V21.2799H97.212Z" fill="#EAEAEA"/>
<path d="M12.9635 65.1863C13.022 65.4205 13.0513 65.6546 13.0513 65.9181C13.0513 67.5572 11.7344 68.8744 10.0957 68.8744C9.42266 68.8744 8.80813 68.6403 8.31066 68.289C7.60835 67.7621 7.14014 66.9133 7.14014 65.9473V43.9063L12.8757 64.9814C12.905 65.0107 12.9342 65.0985 12.9635 65.1863Z" fill="#094E98"/>
<path d="M12.9635 85.2661C13.022 85.5003 13.0513 85.7344 13.0513 85.9979C13.0513 87.6078 11.7344 88.9542 10.0957 88.9542C9.42266 88.9542 8.80813 88.7201 8.31066 88.3688C7.60835 87.8419 7.14014 86.9931 7.14014 86.0271V68.8744V65.918C7.14014 66.884 7.60835 67.7328 8.31066 68.2597L12.8757 85.0027C12.905 85.0905 12.9342 85.2076 12.9635 85.2661Z" fill="#094E98"/>
<path d="M12.9635 105.375C13.022 105.609 13.0513 105.844 13.0513 106.107C13.0513 107.717 11.7344 109.063 10.0957 109.063C8.45698 109.063 7.14014 107.746 7.14014 106.107V88.9542V85.9979C7.14014 86.9638 7.60835 87.8127 8.31066 88.3396L12.8757 105.112C12.905 105.2 12.9342 105.287 12.9635 105.375Z" fill="#094E98"/>
<path d="M97.212 96.272C96.6853 96.272 96.2756 95.8622 96.2756 95.3353V21.2799C96.2756 20.7531 96.6853 20.3433 97.212 20.3433C97.7387 20.3433 98.1484 20.7531 98.1484 21.2799V95.306C98.1484 95.8329 97.7095 96.272 97.212 96.272Z" fill="#094E98"/>
<path d="M98.7337 104.146H95.7781C94.4613 104.146 93.3785 103.063 93.3785 101.746V98.5258C93.3785 96.272 95.2221 94.4279 97.4754 94.4279C99.4945 94.4279 101.163 96.0671 101.163 98.116V101.775C101.133 103.063 100.051 104.146 98.7337 104.146ZM97.4754 96.272C96.2463 96.272 95.2514 97.2672 95.2514 98.4966V101.716C95.2514 102.009 95.4855 102.243 95.7781 102.243H98.7337C99.0263 102.243 99.2604 102.009 99.2604 101.716V98.0575C99.2604 97.0623 98.4703 96.272 97.4754 96.272Z" fill="#094E98"/>
<path d="M109.385 22.2459H1.28755C0.760819 22.2459 0.351135 21.8361 0.351135 21.3092V0.907402C0.351135 0.380526 0.760819 -0.0292664 1.28755 -0.0292664H109.385C109.912 -0.0292664 110.322 0.380526 110.322 0.907402V21.2799C110.322 21.8068 109.883 22.2459 109.385 22.2459ZM2.22397 20.3433H108.449V1.84407H2.22397V20.3433Z" fill="#094E98"/>
<path d="M106.43 109.971H10.0958C9.56905 109.971 9.15936 109.561 9.15936 109.034C9.15936 108.507 9.56905 108.097 10.0958 108.097H106.43C106.957 108.097 107.366 108.507 107.366 109.034C107.366 109.561 106.957 109.971 106.43 109.971Z" fill="#094E98"/>
<path d="M7.16945 107.044C6.64272 107.044 6.23303 106.634 6.23303 106.107V21.2799C6.23303 20.7531 6.64272 20.3433 7.16945 20.3433C7.69619 20.3433 8.10587 20.7531 8.10587 21.2799V106.078C8.10587 106.605 7.66693 107.044 7.16945 107.044Z" fill="#094E98"/>
<path d="M10.0957 109.971C7.95952 109.971 6.20374 108.214 6.20374 106.078C6.20374 105.551 6.61342 105.141 7.14015 105.141C7.66689 105.141 8.07657 105.551 8.07657 106.078C8.07657 107.19 8.98373 108.068 10.0957 108.068C11.2077 108.068 12.1149 107.161 12.1149 106.078C12.1149 105.902 12.0856 105.726 12.0564 105.58C12.0271 105.492 12.0271 105.434 11.9978 105.375C11.8515 104.878 12.1149 104.351 12.6124 104.204C13.1098 104.058 13.6366 104.321 13.7829 104.819C13.8121 104.936 13.8414 105.053 13.8707 105.17C13.9292 105.434 13.9877 105.756 13.9877 106.107C13.9877 108.244 12.2612 109.971 10.0957 109.971Z" fill="#094E98"/>
<path d="M12.8758 106.048C12.4661 106.048 12.0857 105.785 11.9686 105.346L7.40355 88.603C7.25724 88.1054 7.54987 87.5785 8.07661 87.4614C8.57408 87.3151 9.10081 87.6078 9.21787 88.1347L13.7829 104.878C13.9292 105.375 13.6366 105.902 13.1099 106.019C13.0513 106.019 12.9635 106.048 12.8758 106.048Z" fill="#094E98"/>
<path d="M10.0957 89.8909C9.2471 89.8909 8.42773 89.6275 7.75468 89.1006C6.789 88.3688 6.20374 87.2273 6.20374 85.9979C6.20374 85.471 6.61342 85.0612 7.14015 85.0612C7.66689 85.0612 8.07657 85.471 8.07657 85.9979C8.07657 86.6418 8.3692 87.198 8.86668 87.5785C9.21783 87.842 9.62752 87.9883 10.0665 87.9883C11.1785 87.9883 12.0856 87.0809 12.0856 85.9979C12.0856 85.8223 12.0564 85.6466 12.0271 85.5003C11.9978 85.4125 11.9978 85.3539 11.9686 85.2954C11.8223 84.7978 12.0856 84.2709 12.5831 84.1245C13.0806 83.9782 13.6073 84.2416 13.7536 84.7392C13.7829 84.8563 13.8121 84.9734 13.8414 85.0905C13.8999 85.3539 13.9585 85.6759 13.9585 86.0272C13.9877 88.1347 12.2612 89.8909 10.0957 89.8909Z" fill="#094E98"/>
<path d="M12.8758 85.9686C12.4661 85.9686 12.0857 85.7052 11.9686 85.2661L7.40355 68.5232C7.25724 68.0256 7.54987 67.4987 8.07661 67.3816C8.57408 67.2352 9.10081 67.5279 9.21787 68.0548L13.7829 84.7978C13.9292 85.2954 13.6366 85.8222 13.1099 85.9393C13.0513 85.9393 12.9635 85.9686 12.8758 85.9686Z" fill="#094E98"/>
<path d="M10.0957 69.8111C9.2471 69.8111 8.42773 69.5476 7.75468 69.0208C6.75973 68.289 6.20374 67.1474 6.20374 65.918C6.20374 65.3912 6.61342 64.9814 7.14015 64.9814C7.66689 64.9814 8.07657 65.3912 8.07657 65.918C8.07657 66.562 8.3692 67.1474 8.86668 67.5279C9.21783 67.7914 9.62752 67.9377 10.0665 67.9377C11.1785 67.9377 12.0856 67.0303 12.0856 65.9473C12.0856 65.7717 12.0564 65.6253 12.0271 65.479C12.0271 65.4497 12.0271 65.4497 12.0271 65.4204C12.0271 65.3619 11.9978 65.3034 11.9686 65.2741C11.793 64.7765 12.0564 64.2496 12.5538 64.074C13.0513 63.8984 13.578 64.1618 13.7536 64.6594C13.7829 64.7765 13.8121 64.8936 13.8414 65.0106C13.9292 65.3034 13.9585 65.6253 13.9585 65.9473C13.9877 68.0548 12.2612 69.8111 10.0957 69.8111Z" fill="#094E98"/>
<path d="M12.8757 65.8888C12.4661 65.8888 12.0856 65.6254 11.9686 65.1863L6.23302 44.1112C6.08671 43.6136 6.37934 43.0868 6.90607 42.9697C7.40355 42.8233 7.93028 43.116 8.04734 43.6429L13.7829 64.718C13.9292 65.2156 13.6366 65.7424 13.1099 65.8595C13.0513 65.8595 12.9635 65.8888 12.8757 65.8888Z" fill="#094E98"/>
<path d="M106.43 109.971C105.903 109.971 105.493 109.561 105.493 109.034C105.493 108.507 105.903 108.097 106.43 108.097C107.542 108.097 108.42 107.19 108.42 106.107C108.42 105.931 108.391 105.785 108.361 105.639C108.332 105.58 108.332 105.551 108.332 105.492L108.303 105.404C108.156 104.907 108.42 104.38 108.917 104.234C109.415 104.087 109.941 104.351 110.088 104.848L110.117 104.965C110.117 104.995 110.146 105.053 110.146 105.082C110.146 105.112 110.176 105.141 110.176 105.17C110.263 105.463 110.293 105.785 110.293 106.107C110.322 108.244 108.566 109.971 106.43 109.971Z" fill="#094E98"/>
<path d="M109.21 106.048C108.8 106.048 108.42 105.785 108.303 105.346L103.913 89.1884C103.767 88.6908 104.06 88.1639 104.586 88.0468C105.084 87.9005 105.611 88.1932 105.728 88.7201L110.117 104.878C110.263 105.375 109.971 105.902 109.444 106.019C109.385 106.019 109.298 106.048 109.21 106.048Z" fill="#094E98"/>
<path d="M106.43 89.8909C105.903 89.8909 105.493 89.4811 105.493 88.9542C105.493 88.4274 105.903 88.0176 106.43 88.0176C107.542 88.0176 108.42 87.1102 108.42 86.0272C108.42 85.8515 108.391 85.7052 108.361 85.5588C108.332 85.5003 108.332 85.471 108.332 85.4125L108.303 85.3247C108.156 84.8271 108.42 84.3002 108.917 84.1538C109.415 84.0075 109.941 84.2709 110.088 84.7685L110.117 84.8856C110.117 84.9149 110.146 84.9734 110.146 85.0027C110.146 85.0319 110.176 85.0612 110.176 85.0905C110.263 85.3832 110.293 85.7052 110.293 86.0272C110.322 88.1347 108.566 89.8909 106.43 89.8909Z" fill="#094E98"/>
<path d="M109.21 85.9686C108.8 85.9686 108.42 85.7052 108.303 85.2661L103.913 69.1086C103.767 68.611 104.06 68.0841 104.586 67.967C105.084 67.8207 105.611 68.1134 105.728 68.6402L110.117 84.7978C110.263 85.2954 109.971 85.8222 109.444 85.9393C109.385 85.9393 109.298 85.9686 109.21 85.9686Z" fill="#094E98"/>
<path d="M106.43 69.8111C105.903 69.8111 105.493 69.4013 105.493 68.8744C105.493 68.3475 105.903 67.9377 106.43 67.9377C107.542 67.9377 108.42 67.0303 108.42 65.9473C108.42 65.7717 108.391 65.6253 108.361 65.479L108.303 65.2741C108.127 64.7765 108.42 64.2496 108.888 64.074C109.385 63.8984 109.912 64.1911 110.088 64.6594C110.117 64.7179 110.117 64.7765 110.146 64.835L110.176 64.9228C110.176 64.9521 110.176 64.9521 110.205 64.9814C110.293 65.2741 110.322 65.5961 110.322 65.9181C110.322 68.0548 108.566 69.8111 106.43 69.8111Z" fill="#094E98"/>
<path d="M109.21 65.8888C108.8 65.8888 108.42 65.6253 108.303 65.1863L103.913 48.9995C103.006 45.6919 102.567 42.2672 102.567 38.8425V21.2799C102.567 20.7531 102.977 20.3433 103.504 20.3433C104.03 20.3433 104.44 20.7531 104.44 21.2799V38.8132C104.44 42.0915 104.879 45.3406 105.728 48.4726L110.117 64.6594C110.263 65.157 109.971 65.6839 109.444 65.801C109.385 65.8595 109.298 65.8888 109.21 65.8888Z" fill="#094E98"/>
<path d="M106.43 89.8909H10.0958C9.56905 89.8909 9.15936 89.4811 9.15936 88.9542C9.15936 88.4274 9.56905 88.0176 10.0958 88.0176H106.43C106.957 88.0176 107.366 88.4274 107.366 88.9542C107.366 89.4811 106.957 89.8909 106.43 89.8909Z" fill="#094E98"/>
<path d="M106.43 69.8111H10.0958C9.56905 69.8111 9.15936 69.4013 9.15936 68.8744C9.15936 68.3475 9.56905 67.9377 10.0958 67.9377H106.43C106.957 67.9377 107.366 68.3475 107.366 68.8744C107.366 69.372 106.957 69.8111 106.43 69.8111Z" fill="#094E98"/>
</g>
<defs>
<clipPath id="clip0">
<rect width="110" height="110" fill="white"/>
</clipPath>
</defs>
</svg>
