<svg width="290" height="200" viewBox="0 0 290 200" fill="none" xmlns="http://www.w3.org/2000/svg">
<path d="M199.375 0.878906C150.655 0.878906 109.316 40.1161 109.316 91.5039H99.6875C94.9954 91.5039 91.1914 95.3079 91.1914 100C91.1914 104.692 94.9954 108.496 99.6875 108.496H109.316V145.879H81.5625C76.8704 145.879 73.0664 149.683 73.0664 154.375V159.473H8.49609C3.80398 159.473 0 163.277 0 167.969V190.625C0 195.317 3.80398 199.121 8.49609 199.121C13.1882 199.121 16.9922 195.317 16.9922 190.625V176.465H73.0664V190.625C73.0664 195.317 76.8704 199.121 81.5625 199.121H281.504C286.196 199.121 290 195.317 290 190.625V90.9375C290 41.279 249.346 0.878906 199.375 0.878906ZM90.0586 162.871H109.316V182.129H90.0586V162.871ZM273.008 182.129H126.309C126.309 171.217 126.309 99.002 126.309 90.9375C126.309 50.6485 159.086 17.8711 199.375 17.8711C239.976 17.8711 273.008 50.6485 273.008 90.9375V182.129Z" fill="white"/>
<path d="M199.375 37.1289C169.705 37.1289 145.566 61.2674 145.566 90.9375C145.566 120.608 169.705 144.746 199.375 144.746C229.045 144.746 253.184 120.608 253.184 90.9375C253.184 61.2674 229.045 37.1289 199.375 37.1289ZM199.375 127.754C179.074 127.754 162.559 111.238 162.559 90.9375C162.559 70.6369 179.074 54.1211 199.375 54.1211C219.676 54.1211 236.191 70.6369 236.191 90.9375C236.191 111.238 219.676 127.754 199.375 127.754Z" fill="white"/>
</svg>
