<svg width="256" height="256" viewBox="0 0 256 256" fill="none" xmlns="http://www.w3.org/2000/svg">
<rect x="2" y="4" width="247" height="165" fill="#EAEAEA"/>
<path d="M174.123 189.393C172.498 188.09 170.127 188.352 168.824 189.975L154.35 208.021C152.357 210.506 154.166 214.15 157.287 214.15C158.393 214.15 159.486 213.666 160.23 212.738L174.705 194.691C176.008 193.066 175.748 190.695 174.123 189.393V189.393Z" fill="#094E98"/>
<path d="M195.18 180.369C193.555 179.066 191.184 179.328 189.881 180.951L175.406 198.998C173.414 201.482 175.223 205.127 178.344 205.127C179.449 205.127 180.543 204.643 181.287 203.715L195.762 185.668C197.064 184.045 196.805 181.672 195.18 180.369V180.369Z" fill="#094E98"/>
<path d="M55.875 212.025C56.9297 212.025 57.9785 211.586 58.7246 210.727L78.5312 187.904C79.8965 186.332 79.7285 183.951 78.1562 182.588C76.584 181.223 74.2012 181.391 72.8379 182.963L53.0293 205.785C50.9023 208.236 52.6816 212.025 55.875 212.025V212.025Z" fill="#094E98"/>
<path d="M98.3105 189.393C96.6855 188.09 94.3125 188.352 93.0098 189.975L85.7734 198.998C84.4707 200.623 84.7324 202.996 86.3555 204.297C87.9902 205.609 90.3613 205.328 91.6543 203.715L98.8926 194.691C100.195 193.066 99.9336 190.695 98.3105 189.393V189.393Z" fill="#094E98"/>
<path d="M218.996 198.416C217.371 197.113 215 197.375 213.697 198.998L206.459 208.021C205.156 209.646 205.418 212.018 207.041 213.32C208.676 214.631 211.047 214.352 212.342 212.738L219.578 203.715C220.881 202.092 220.619 199.719 218.996 198.416Z" fill="#094E98"/>
<path d="M58.2363 182.492C56.6113 181.189 54.2402 181.451 52.9375 183.074L45.6992 192.1C44.3965 193.723 44.6582 196.096 46.2813 197.398C47.916 198.709 50.2871 198.43 51.5801 196.816L58.8164 187.793C60.1211 186.168 59.8594 183.795 58.2363 182.492Z" fill="#094E98"/>
<path d="M252.23 1C243.604 1 18.9336 1 3.76953 1C1.68945 1 0 2.68359 0 4.76953V251.703C0 253.789 1.68945 255.473 3.76953 255.473H214.875C216.955 255.473 218.645 253.789 218.645 251.703C218.645 249.621 216.955 247.932 214.875 247.932H7.53906V175.99H14.7227V221.469C14.7227 223.551 16.4102 225.238 18.4922 225.238H81.6934C83.7734 225.238 85.4629 223.551 85.4629 221.469C85.4629 219.389 83.7734 217.699 81.6934 217.699H22.2617V175.99H29.5312V189.051C29.5312 191.133 31.2188 192.82 33.3008 192.82C35.3828 192.82 37.0703 191.133 37.0703 189.051V175.99H113.926V217.699H96.7715C94.6914 217.699 93.002 219.389 93.002 221.469C93.002 223.551 94.6914 225.238 96.7715 225.238H237.508C239.59 225.238 241.277 223.551 241.277 221.469V175.99H248.461V247.932H229.953C227.873 247.932 226.184 249.621 226.184 251.703C226.184 253.789 227.873 255.473 229.953 255.473H252.23C254.311 255.473 256 253.789 256 251.703C256 224.771 256 32.9551 256 4.76953C256 2.68359 254.311 1 252.23 1V1ZM29.5312 168.451C22.6738 168.451 14.502 168.451 7.53906 168.451C7.53906 163.676 7.53906 160.322 7.53906 155.061H29.5312V168.451ZM29.5312 147.521H7.53906V134.127H29.5312V147.521ZM29.5312 126.588H7.53906V113.197H29.5312V126.588ZM29.5312 105.658H7.53906V92.2637H29.5312V105.658ZM29.5312 84.7227H7.53906V71.334H29.5312V84.7227ZM29.5312 63.793C24.6797 63.793 12.5723 63.793 7.53906 63.793V50.3984H29.5312V63.793ZM29.5312 42.8594H7.53906V29.4688H29.5312V42.8594ZM29.5312 21.9297H7.53906V8.53906H29.5312V21.9297ZM37.0703 8.53906H218.93V21.9297H37.0703V8.53906ZM37.0703 50.3984H181.721C183.803 50.3984 185.49 48.7148 185.49 46.6289C185.49 44.5488 183.803 42.8594 181.721 42.8594C181.104 42.8594 40.25 42.8594 37.0703 42.8594V29.4688H218.93V42.8594H196.801C194.719 42.8594 193.031 44.5488 193.031 46.6289C193.031 48.7148 194.719 50.3984 196.801 50.3984H218.93V63.793C213.117 63.793 41.6836 63.793 37.0703 63.793V50.3984ZM37.0703 71.334H218.93V84.7227H37.0703V71.334ZM37.0703 92.2637H218.93V105.658H37.0703V92.2637ZM37.0703 113.197H218.93V126.588H37.0703V113.197ZM37.0703 134.127H218.93V147.521H37.0703V134.127ZM37.0703 168.451V155.061H218.93V168.451C201.121 168.451 55.4531 168.451 37.0703 168.451ZM233.738 217.699H142.074V197.365C142.074 195.283 140.387 193.596 138.305 193.596C136.223 193.596 134.535 195.283 134.535 197.365V217.699H121.465V175.992H134.535V182.285C134.535 184.369 136.223 186.055 138.305 186.055C140.387 186.055 142.074 184.369 142.074 182.285V175.99H218.93V189.051C218.93 191.133 220.617 192.82 222.699 192.82C224.781 192.82 226.469 191.133 226.469 189.051V175.99H233.738V217.699ZM248.461 168.451C241.566 168.451 233.527 168.451 226.469 168.451V155.061H248.461V168.451ZM248.461 147.521H226.469V134.127H248.461V147.521ZM248.461 126.588H226.469V113.197H248.461V126.588ZM248.461 105.658H226.469V92.2637H248.461V105.658ZM248.461 84.7227H226.469V71.334H248.461V84.7227ZM248.461 63.793H226.469V50.3984H248.461V63.793ZM248.461 42.8594H226.469V29.4688H248.461V42.8594ZM248.461 21.9297H226.469V8.53906H248.461V21.9297Z" fill="#094E98"/>
</svg>
