<svg width="245" height="245" viewBox="0 0 245 245" fill="none" xmlns="http://www.w3.org/2000/svg">
<path d="M179.553 168.628C180.743 166.982 182.068 165.423 183.52 163.971C184.973 162.518 186.531 161.193 188.178 160.004C186.531 158.815 184.972 157.489 183.52 156.037C182.068 154.584 180.743 153.025 179.553 151.379C178.364 153.025 177.038 154.584 175.586 156.037C174.134 157.489 172.575 158.815 170.929 160.004C172.575 161.193 174.134 162.518 175.586 163.971C177.038 165.423 178.364 166.982 179.553 168.628Z" fill="#094E98"/>
<path d="M237.822 0H7.17773C3.21371 0 0 3.21371 0 7.17773V237.822C0 241.786 3.21371 245 7.17773 245H237.822C241.786 245 245 241.786 245 237.822V7.17773C245 3.21371 241.786 0 237.822 0ZM36.0083 86.4917C40.0321 86.4917 43.0119 89.7805 43.186 93.6694C43.3597 97.5459 39.7627 100.847 36.0083 100.847C31.9845 100.847 29.0047 97.5583 28.8306 93.6694C28.6569 89.793 32.2539 86.4917 36.0083 86.4917ZM28.8306 36.0083C28.6569 32.1318 32.2539 28.8306 36.0083 28.8306C40.0321 28.8306 43.0119 32.1194 43.186 36.0083C43.3597 39.8848 39.7627 43.186 36.0083 43.186C31.9845 43.186 29.0047 39.8972 28.8306 36.0083ZM36.0083 172.983C40.0321 172.983 43.0119 176.272 43.186 180.161C43.3597 184.038 39.7627 187.339 36.0083 187.339C31.9845 187.339 29.0047 184.05 28.8306 180.161C28.6569 176.285 32.2539 172.983 36.0083 172.983ZM93.6694 57.6611C97.6335 57.6611 100.847 60.8748 100.847 64.8389C100.847 68.8029 97.6335 72.0166 93.6694 72.0166H86.4319V79.2542C86.4319 83.2182 83.2182 86.4319 79.2542 86.4319C75.2901 86.4319 72.0764 83.2182 72.0764 79.2542V72.0166H64.8389C60.8748 72.0166 57.6611 68.8029 57.6611 64.8389C57.6611 60.8748 60.8748 57.6611 64.8389 57.6611H72.0764V50.4236C72.0764 46.4596 75.2901 43.2458 79.2542 43.2458C83.2182 43.2458 86.4319 46.4596 86.4319 50.4236V57.6611H93.6694ZM64.8389 129.738C68.8029 129.738 72.0166 132.951 72.0166 136.915V144.153H79.2542C83.2182 144.153 86.4319 147.367 86.4319 151.331C86.4319 155.295 83.2182 158.508 79.2542 158.508H72.0166V165.746C72.0166 169.71 68.8029 172.924 64.8389 172.924C60.8748 172.924 57.6611 169.71 57.6611 165.746V158.508H50.4236C46.4596 158.508 43.2458 155.295 43.2458 151.331C43.2458 147.367 46.4596 144.153 50.4236 144.153H57.6611V136.915C57.6611 132.951 60.8748 129.738 64.8389 129.738ZM86.4319 208.992C86.6056 212.868 83.0086 216.169 79.2542 216.169C75.2303 216.169 72.2506 212.881 72.0764 208.992C71.9027 205.115 75.4997 201.814 79.2542 201.814C83.278 201.814 86.2577 205.103 86.4319 208.992ZM108.085 172.983C112.109 172.983 115.088 176.272 115.262 180.161C115.436 184.038 111.839 187.339 108.085 187.339C104.061 187.339 101.081 184.05 100.907 180.161C100.733 176.285 104.33 172.983 108.085 172.983ZM100.907 36.0083C100.733 32.1318 104.33 28.8306 108.085 28.8306C112.109 28.8306 115.088 32.1194 115.262 36.0083C115.436 39.8848 111.839 43.186 108.085 43.186C104.061 43.186 101.081 39.8972 100.907 36.0083ZM115.322 108.085C115.149 104.208 118.746 100.907 122.5 100.907C126.524 100.907 129.504 104.196 129.678 108.085C129.851 111.961 126.254 115.262 122.5 115.262C118.476 115.262 115.496 111.974 115.322 108.085ZM150.207 152.845C162.006 151.995 171.545 142.457 172.394 130.658C172.664 126.903 175.789 123.995 179.553 123.995C183.317 123.995 186.442 126.903 186.712 130.658C187.561 142.457 197.1 151.995 208.898 152.845C212.653 153.114 215.561 156.24 215.561 160.004C215.561 163.768 212.653 166.892 208.898 167.163C197.1 168.012 187.561 177.55 186.712 189.35C186.442 193.104 183.316 196.012 179.553 196.012C175.788 196.012 172.664 193.104 172.394 189.35C171.545 177.55 162.006 168.012 150.207 167.163C146.453 166.893 143.545 163.768 143.545 160.004C143.545 156.24 146.453 153.115 150.207 152.845ZM144.153 64.8389C143.979 60.9624 147.576 57.6611 151.331 57.6611C155.354 57.6611 158.334 60.95 158.508 64.8389C158.682 68.7153 155.085 72.0166 151.331 72.0166C147.307 72.0166 144.327 68.7278 144.153 64.8389ZM201.754 64.8389V72.0764H208.992C212.956 72.0764 216.169 75.2901 216.169 79.2542C216.169 83.2182 212.956 86.4319 208.992 86.4319H201.754V93.6694C201.754 97.6335 198.54 100.847 194.576 100.847C190.612 100.847 187.399 97.6335 187.399 93.6694V86.4319H180.161C176.197 86.4319 172.983 83.2182 172.983 79.2542C172.983 75.2901 176.197 72.0764 180.161 72.0764H187.399V64.8389C187.399 60.8748 190.612 57.6611 194.576 57.6611C198.54 57.6611 201.754 60.8748 201.754 64.8389ZM201.206 36.0083C201.032 32.1318 204.629 28.8306 208.384 28.8306C212.407 28.8306 215.387 32.1194 215.561 36.0083C215.735 39.8848 212.138 43.186 208.384 43.186C204.36 43.186 201.38 39.8972 201.206 36.0083ZM158.508 207.516C158.682 211.393 155.085 214.694 151.331 214.694C147.307 214.694 144.327 211.405 144.153 207.516C143.979 203.64 147.576 200.339 151.331 200.339C155.354 200.339 158.334 203.628 158.508 207.516Z" fill="#094E98"/>
</svg>
