<svg width="240" height="168" viewBox="0 0 240 168" fill="none" xmlns="http://www.w3.org/2000/svg">
<path d="M181.26 106.689C164.579 106.689 151.008 120.26 151.008 136.941C151.008 153.622 164.579 167.193 181.26 167.193C197.945 167.193 211.513 153.622 211.513 136.941C211.513 120.26 197.942 106.689 181.26 106.689ZM181.26 152.067C172.919 152.067 166.134 145.283 166.134 136.941C166.134 128.599 172.919 121.815 181.26 121.815C189.602 121.815 196.387 128.599 196.387 136.941C196.387 145.283 189.602 152.067 181.26 152.067Z" fill="#094E98"/>
<path d="M77.8992 106.689C61.2178 106.689 47.647 120.26 47.647 136.941C47.647 153.622 61.2178 167.193 77.8992 167.193C94.5806 167.193 108.151 153.622 108.151 136.941C108.151 120.26 94.5806 106.689 77.8992 106.689ZM77.8992 152.067C69.5573 152.067 62.7731 145.283 62.7731 136.941C62.7731 128.599 69.5573 121.815 77.8992 121.815C86.2388 121.815 93.0253 128.599 93.0253 136.941C93.0253 145.283 86.2411 152.067 77.8992 152.067Z" fill="#094E98"/>
<path d="M201.633 20.0976C200.347 17.5439 197.733 15.9328 194.874 15.9328H155.042V31.0589H190.21L210.804 72.0201L224.322 65.2233L201.633 20.0976Z" fill="#094E98"/>
<path d="M158.572 129.63H101.345V144.757H158.572V129.63Z" fill="#094E98"/>
<path d="M55.2098 129.63H28.9917C24.8142 129.63 21.4289 133.016 21.4289 137.193C21.4289 141.371 24.8147 144.756 28.9917 144.756H55.2103C59.3878 144.756 62.7731 141.37 62.7731 137.193C62.7731 133.016 59.3873 129.63 55.2098 129.63Z" fill="#094E98"/>
<path d="M238.412 83.3949L223.536 64.2352C222.106 62.3897 219.9 61.3107 217.563 61.3107H162.605V8.36957C162.605 4.19207 159.219 0.806763 155.042 0.806763H28.9917C24.8142 0.806763 21.4289 4.19254 21.4289 8.36957C21.4289 12.5466 24.8147 15.9324 28.9917 15.9324H147.479V68.8735C147.479 73.051 150.865 76.4363 155.042 76.4363H213.86L224.874 90.6244V129.63H203.949C199.772 129.63 196.387 133.015 196.387 137.192C196.387 141.37 199.772 144.755 203.949 144.755H232.437C236.614 144.755 240 141.369 240 137.192V88.0336C240 86.3546 239.44 84.721 238.412 83.3949Z" fill="#094E98"/>
<path d="M54.7059 91.3111H19.9158C15.7383 91.3111 12.353 94.6969 12.353 98.8739C12.353 103.051 15.7387 106.437 19.9158 106.437H54.7055C58.883 106.437 62.2683 103.051 62.2683 98.8739C62.2688 94.6969 58.883 91.3111 54.7059 91.3111Z" fill="#094E98"/>
<path d="M72.1008 61.5628H7.56281C3.38578 61.5628 0 64.9486 0 69.1261C0 73.3036 3.38578 76.6889 7.56281 76.6889H72.1008C76.2783 76.6889 79.6636 73.3031 79.6636 69.1261C79.6636 64.9491 76.2783 61.5628 72.1008 61.5628Z" fill="#094E98"/>
<path d="M84.4537 31.815H19.9158C15.7383 31.815 12.353 35.2008 12.353 39.3778C12.353 43.5553 15.7387 46.9406 19.9158 46.9406H84.4537C88.6312 46.9406 92.0166 43.5548 92.0166 39.3778C92.017 35.2008 88.6312 31.815 84.4537 31.815Z" fill="#094E98"/>
</svg>
