<svg width="117" height="119" viewBox="0 0 117 119" fill="none" xmlns="http://www.w3.org/2000/svg">
<path d="M115.975 1.0289V12.1998H112.666H109.503V1.0289H115.975Z" fill="#EAEAEA"/>
<path d="M109.503 1.0289V12.1998H86.3369H79.7182H30.9852H24.3957H7.49738V1.0289H109.503Z" fill="#094E98"/>
<path d="M24.3957 107.182H86.3369H103.47V117.971H7.23376V107.182H24.3957Z" fill="#EAEAEA"/>
<path d="M24.3957 96.3935H86.3369H103.47V107.182H86.3369H24.3957H7.23376V96.3935H24.3957Z" fill="#EAEAEA"/>
<path d="M86.3369 85.6047H103.47V96.3935H86.3369H24.3957H7.23376V85.6047H24.3957H86.3369Z" fill="#EAEAEA"/>
<path d="M24.3957 74.816H86.3369H103.47V85.6047H86.3369H24.3957H7.23376V74.816H24.3957Z" fill="#EAEAEA"/>
<path d="M24.3957 64.0272H86.3369H103.47V74.816H86.3369H24.3957H7.23376V64.0272H24.3957Z" fill="#EAEAEA"/>
<path d="M24.3957 53.2384H86.3369H103.47V64.0272H86.3369H24.3957H7.23376V53.2384H24.3957Z" fill="#EAEAEA"/>
<path d="M24.3957 42.4496H86.3369H103.47V53.2384H86.3369H24.3957H7.23376V42.4496H24.3957Z" fill="#EAEAEA"/>
<path d="M24.3957 31.6902H86.3369H103.47V42.4496H86.3369H24.3957H7.23376V31.6902H24.3957Z" fill="#EAEAEA"/>
<path d="M24.3957 18.3439H30.9852H79.7181H86.3369H103.47V31.6902H86.3369H24.3957H7.23376V18.3439H24.3957Z" fill="#EAEAEA"/>
<path d="M86.3369 12.1998H79.7181V18.3145H86.3369V12.1998Z" fill="#EAEAEA"/>
<path d="M31.0145 12.1998H24.3958V18.3145H31.0145V12.1998Z" fill="#EAEAEA"/>
<path d="M7.52665 1.0289H1.02502V12.2292H7.52665V1.0289Z" fill="#EAEAEA"/>
<path d="M115.975 13.2288H1.02503C0.468586 13.2288 0 12.7878 0 12.1999V1.0289C0 0.470356 0.468586 0 1.02503 0H115.975C116.531 0 117 0.470356 117 1.0289V12.2292C117 12.7878 116.531 13.2288 115.975 13.2288ZM2.02078 11.2003H114.95V2.02841H2.02078V11.2003Z" fill="#094E98"/>
<path d="M109.503 13.2288C108.946 13.2288 108.478 12.7584 108.478 12.1999V1.0289C108.478 0.470356 108.946 0 109.503 0C110.059 0 110.528 0.470356 110.528 1.0289V12.2292C110.498 12.7878 110.059 13.2288 109.503 13.2288Z" fill="#094E98"/>
<path d="M7.49738 13.2288C6.94094 13.2288 6.47235 12.7584 6.47235 12.1999V1.0289C6.47235 0.470356 6.94094 0 7.49738 0C8.05383 0 8.52241 0.470356 8.52241 1.0289V12.2292C8.52241 12.7878 8.08311 13.2288 7.49738 13.2288Z" fill="#094E98"/>
<path d="M112.666 13.7579C112.109 13.7579 111.641 13.2875 111.641 12.729V12.1998C111.641 11.6413 112.109 11.1709 112.666 11.1709C113.222 11.1709 113.691 11.6413 113.691 12.1998V12.729C113.691 13.3169 113.222 13.7579 112.666 13.7579Z" fill="#094E98"/>
<path d="M112.666 97.0403C112.109 97.0403 111.641 96.5699 111.641 96.0114V94.9531C111.641 94.3945 112.109 93.9242 112.666 93.9242C113.222 93.9242 113.691 94.3945 113.691 94.9531V96.0408C113.691 96.5993 113.222 97.0403 112.666 97.0403ZM112.666 89.4558C112.109 89.4558 111.641 88.9854 111.641 88.4269V87.3392C111.641 86.7807 112.109 86.3103 112.666 86.3103C113.222 86.3103 113.691 86.7807 113.691 87.3392V88.4269C113.691 89.0148 113.222 89.4558 112.666 89.4558ZM112.666 81.9007C112.109 81.9007 111.641 81.4304 111.641 80.8718V79.7841C111.641 79.2256 112.109 78.7552 112.666 78.7552C113.222 78.7552 113.691 79.2256 113.691 79.7841V80.8718C113.691 81.4304 113.222 81.9007 112.666 81.9007ZM112.666 74.3162C112.109 74.3162 111.641 73.8459 111.641 73.2873V72.1996C111.641 71.6411 112.109 71.1707 112.666 71.1707C113.222 71.1707 113.691 71.6411 113.691 72.1996V73.2873C113.691 73.8753 113.222 74.3162 112.666 74.3162ZM112.666 66.7611C112.109 66.7611 111.641 66.2908 111.641 65.7322V64.6445C111.641 64.086 112.109 63.6156 112.666 63.6156C113.222 63.6156 113.691 64.086 113.691 64.6445V65.7322C113.691 66.2908 113.222 66.7611 112.666 66.7611ZM112.666 59.1766C112.109 59.1766 111.641 58.7063 111.641 58.1477V57.06C111.641 56.5015 112.109 56.0311 112.666 56.0311C113.222 56.0311 113.691 56.5015 113.691 57.06V58.1477C113.691 58.7357 113.222 59.1766 112.666 59.1766ZM112.666 51.6216C112.109 51.6216 111.641 51.1512 111.641 50.5926V49.5049C111.641 48.9464 112.109 48.476 112.666 48.476C113.222 48.476 113.691 48.9464 113.691 49.5049V50.5926C113.691 51.1512 113.222 51.6216 112.666 51.6216ZM112.666 44.0371C112.109 44.0371 111.641 43.5667 111.641 43.0082V41.9205C111.641 41.3619 112.109 40.8916 112.666 40.8916C113.222 40.8916 113.691 41.3619 113.691 41.9205V43.0082C113.691 43.5961 113.222 44.0371 112.666 44.0371ZM112.666 36.482C112.109 36.482 111.641 36.0116 111.641 35.4531V34.3654C111.641 33.8068 112.109 33.3365 112.666 33.3365C113.222 33.3365 113.691 33.8068 113.691 34.3654V35.4531C113.691 36.0116 113.222 36.482 112.666 36.482ZM112.666 28.8975C112.109 28.8975 111.641 28.4271 111.641 27.8686V26.7809C111.641 26.2223 112.109 25.752 112.666 25.752C113.222 25.752 113.691 26.2223 113.691 26.7809V27.8686C113.691 28.4565 113.222 28.8975 112.666 28.8975ZM112.666 21.3424C112.109 21.3424 111.641 20.872 111.641 20.3135V19.2258C111.641 18.6672 112.109 18.1969 112.666 18.1969C113.222 18.1969 113.691 18.6672 113.691 19.2258V20.3135C113.691 20.872 113.222 21.3424 112.666 21.3424Z" fill="#094E98"/>
<path d="M112.666 104.066C112.109 104.066 111.641 103.596 111.641 103.037V102.508C111.641 101.95 112.109 101.479 112.666 101.479C113.222 101.479 113.691 101.95 113.691 102.508V103.037C113.691 103.596 113.222 104.066 112.666 104.066Z" fill="#094E98"/>
<path d="M103.47 32.6897H7.23377C6.67733 32.6897 6.20874 32.2194 6.20874 31.6608V18.3439C6.20874 17.7853 6.67733 17.315 7.23377 17.315H103.47C104.026 17.315 104.495 17.7853 104.495 18.3439V31.6902C104.495 32.2488 104.026 32.6897 103.47 32.6897ZM8.2588 30.6613H102.474V19.3434H8.2588V30.6613Z" fill="#094E98"/>
<path d="M103.47 43.4785H7.23377C6.67733 43.4785 6.20874 43.0081 6.20874 42.4496V31.6608C6.20874 31.1023 6.67733 30.6319 7.23377 30.6319C7.79022 30.6319 8.2588 31.1023 8.2588 31.6608V41.4501H102.474V31.6902C102.474 31.1317 102.942 30.6613 103.499 30.6613C104.055 30.6613 104.524 31.1317 104.524 31.6902V42.479C104.495 43.0375 104.026 43.4785 103.47 43.4785Z" fill="#094E98"/>
<path d="M103.47 54.2673H7.23377C6.67733 54.2673 6.20874 53.7969 6.20874 53.2384V42.4496C6.20874 41.8911 6.67733 41.4207 7.23377 41.4207C7.79022 41.4207 8.2588 41.8911 8.2588 42.4496V52.2095H102.474V42.4496C102.474 41.8911 102.942 41.4207 103.499 41.4207C104.055 41.4207 104.524 41.8911 104.524 42.4496V53.2384C104.495 53.7969 104.026 54.2673 103.47 54.2673Z" fill="#094E98"/>
<path d="M103.47 65.0561H7.23377C6.67733 65.0561 6.20874 64.5857 6.20874 64.0272V53.2384C6.20874 52.6798 6.67733 52.2095 7.23377 52.2095C7.79022 52.2095 8.2588 52.6798 8.2588 53.2384V62.9983H102.474V53.2384C102.474 52.6798 102.942 52.2095 103.499 52.2095C104.055 52.2095 104.524 52.6798 104.524 53.2384V64.0272C104.495 64.5857 104.026 65.0561 103.47 65.0561Z" fill="#094E98"/>
<path d="M103.47 75.8449H7.23377C6.67733 75.8449 6.20874 75.3745 6.20874 74.816V64.0272C6.20874 63.4686 6.67733 62.9983 7.23377 62.9983C7.79022 62.9983 8.2588 63.4686 8.2588 64.0272V73.7871H102.474V64.0272C102.474 63.4686 102.942 62.9983 103.499 62.9983C104.055 62.9983 104.524 63.4686 104.524 64.0272V74.816C104.495 75.3745 104.026 75.8449 103.47 75.8449Z" fill="#094E98"/>
<path d="M103.47 86.6337H7.23377C6.67733 86.6337 6.20874 86.1633 6.20874 85.6047V74.816C6.20874 74.2574 6.67733 73.787 7.23377 73.787C7.79022 73.787 8.2588 74.2574 8.2588 74.816V84.5758H102.474V74.816C102.474 74.2574 102.942 73.787 103.499 73.787C104.055 73.787 104.524 74.2574 104.524 74.816V85.6047C104.495 86.1633 104.026 86.6337 103.47 86.6337Z" fill="#094E98"/>
<path d="M103.47 97.4224H7.23377C6.67733 97.4224 6.20874 96.9521 6.20874 96.3935V85.6047C6.20874 85.0462 6.67733 84.5758 7.23377 84.5758C7.79022 84.5758 8.2588 85.0462 8.2588 85.6047V95.3646H102.474V85.6047C102.474 85.0462 102.942 84.5758 103.499 84.5758C104.055 84.5758 104.524 85.0462 104.524 85.6047V96.3935C104.495 96.9521 104.026 97.4224 103.47 97.4224Z" fill="#094E98"/>
<path d="M103.47 108.211H7.23377C6.67733 108.211 6.20874 107.741 6.20874 107.182V96.3935C6.20874 95.835 6.67733 95.3646 7.23377 95.3646C7.79022 95.3646 8.2588 95.835 8.2588 96.3935V106.153H102.474V96.3935C102.474 95.835 102.942 95.3646 103.499 95.3646C104.055 95.3646 104.524 95.835 104.524 96.3935V107.182C104.495 107.741 104.026 108.211 103.47 108.211Z" fill="#094E98"/>
<path d="M103.47 119H7.23377C6.67733 119 6.20874 118.53 6.20874 117.971V107.182C6.20874 106.624 6.67733 106.153 7.23377 106.153C7.79022 106.153 8.2588 106.624 8.2588 107.182V116.942H102.474V107.182C102.474 106.624 102.942 106.153 103.499 106.153C104.055 106.153 104.524 106.624 104.524 107.182V117.971C104.495 118.53 104.026 119 103.47 119Z" fill="#094E98"/>
<path d="M86.3369 24.8995C85.7805 24.8995 85.3119 24.4291 85.3119 23.8705V12.1998C85.3119 11.6413 85.7805 11.1709 86.3369 11.1709C86.8934 11.1709 87.3619 11.6413 87.3619 12.1998V23.8705C87.3327 24.4585 86.8934 24.8995 86.3369 24.8995Z" fill="#094E98"/>
<path d="M24.3958 24.8995C23.8393 24.8995 23.3707 24.4291 23.3707 23.8705V12.1998C23.3707 11.6413 23.8393 11.1709 24.3958 11.1709C24.9522 11.1709 25.4208 11.6413 25.4208 12.1998V23.8705C25.3915 24.4585 24.9522 24.8995 24.3958 24.8995Z" fill="#094E98"/>
<path d="M86.3369 38.2458C85.7805 38.2458 85.3119 37.7754 85.3119 37.2169V31.6608C85.3119 31.1023 85.7805 30.6319 86.3369 30.6319C86.8934 30.6319 87.3619 31.1023 87.3619 31.6608V37.2169C87.3327 37.8048 86.8934 38.2458 86.3369 38.2458Z" fill="#094E98"/>
<path d="M24.3958 38.2458C23.8393 38.2458 23.3707 37.7754 23.3707 37.2169V31.6608C23.3707 31.1023 23.8393 30.6319 24.3958 30.6319C24.9522 30.6319 25.4208 31.1023 25.4208 31.6608V37.2169C25.3915 37.8048 24.9522 38.2458 24.3958 38.2458Z" fill="#094E98"/>
<path d="M86.3369 49.0346C85.7805 49.0346 85.3119 48.5642 85.3119 48.0057V42.4496C85.3119 41.8911 85.7805 41.4207 86.3369 41.4207C86.8934 41.4207 87.3619 41.8911 87.3619 42.4496V48.0057C87.3327 48.5936 86.8934 49.0346 86.3369 49.0346Z" fill="#094E98"/>
<path d="M24.3958 49.0346C23.8393 49.0346 23.3707 48.5642 23.3707 48.0057V42.4496C23.3707 41.8911 23.8393 41.4207 24.3958 41.4207C24.9522 41.4207 25.4208 41.8911 25.4208 42.4496V48.0057C25.3915 48.5936 24.9522 49.0346 24.3958 49.0346Z" fill="#094E98"/>
<path d="M86.3369 59.8234C85.7805 59.8234 85.3119 59.353 85.3119 58.7945V53.2384C85.3119 52.6798 85.7805 52.2095 86.3369 52.2095C86.8934 52.2095 87.3619 52.6798 87.3619 53.2384V58.7945C87.3327 59.3824 86.8934 59.8234 86.3369 59.8234Z" fill="#094E98"/>
<path d="M24.3958 59.8234C23.8393 59.8234 23.3707 59.353 23.3707 58.7945V53.2384C23.3707 52.6798 23.8393 52.2095 24.3958 52.2095C24.9522 52.2095 25.4208 52.6798 25.4208 53.2384V58.7945C25.3915 59.3824 24.9522 59.8234 24.3958 59.8234Z" fill="#094E98"/>
<path d="M86.3369 70.6122C85.7805 70.6122 85.3119 70.1418 85.3119 69.5833V64.0272C85.3119 63.4686 85.7805 62.9983 86.3369 62.9983C86.8934 62.9983 87.3619 63.4686 87.3619 64.0272V69.5833C87.3327 70.1712 86.8934 70.6122 86.3369 70.6122Z" fill="#094E98"/>
<path d="M24.3958 70.6122C23.8393 70.6122 23.3707 70.1418 23.3707 69.5833V64.0272C23.3707 63.4686 23.8393 62.9983 24.3958 62.9983C24.9522 62.9983 25.4208 63.4686 25.4208 64.0272V69.5833C25.3915 70.1712 24.9522 70.6122 24.3958 70.6122Z" fill="#094E98"/>
<path d="M86.3369 81.4009C85.7805 81.4009 85.3119 80.9306 85.3119 80.372V74.816C85.3119 74.2574 85.7805 73.787 86.3369 73.787C86.8934 73.787 87.3619 74.2574 87.3619 74.816V80.372C87.3327 80.96 86.8934 81.4009 86.3369 81.4009Z" fill="#094E98"/>
<path d="M24.3958 81.4009C23.8393 81.4009 23.3707 80.9306 23.3707 80.372V74.816C23.3707 74.2574 23.8393 73.787 24.3958 73.787C24.9522 73.787 25.4208 74.2574 25.4208 74.816V80.372C25.3915 80.96 24.9522 81.4009 24.3958 81.4009Z" fill="#094E98"/>
<path d="M86.3369 92.1897C85.7805 92.1897 85.3119 91.7194 85.3119 91.1608V85.6047C85.3119 85.0462 85.7805 84.5758 86.3369 84.5758C86.8934 84.5758 87.3619 85.0462 87.3619 85.6047V91.1608C87.3327 91.7194 86.8934 92.1897 86.3369 92.1897Z" fill="#094E98"/>
<path d="M24.3958 92.1897C23.8393 92.1897 23.3707 91.7194 23.3707 91.1608V85.6047C23.3707 85.0462 23.8393 84.5758 24.3958 84.5758C24.9522 84.5758 25.4208 85.0462 25.4208 85.6047V91.1608C25.3915 91.7194 24.9522 92.1897 24.3958 92.1897Z" fill="#094E98"/>
<path d="M86.3369 102.979C85.7805 102.979 85.3119 102.508 85.3119 101.95V96.3935C85.3119 95.835 85.7805 95.3646 86.3369 95.3646C86.8934 95.3646 87.3619 95.835 87.3619 96.3935V101.95C87.3327 102.508 86.8934 102.979 86.3369 102.979Z" fill="#094E98"/>
<path d="M24.3958 102.979C23.8393 102.979 23.3707 102.508 23.3707 101.95V96.3935C23.3707 95.835 23.8393 95.3646 24.3958 95.3646C24.9522 95.3646 25.4208 95.835 25.4208 96.3935V101.95C25.3915 102.508 24.9522 102.979 24.3958 102.979Z" fill="#094E98"/>
<path d="M86.3369 113.767C85.7805 113.767 85.3119 113.297 85.3119 112.738V107.182C85.3119 106.624 85.7805 106.153 86.3369 106.153C86.8934 106.153 87.3619 106.624 87.3619 107.182V112.738C87.3327 113.297 86.8934 113.767 86.3369 113.767Z" fill="#094E98"/>
<path d="M24.3958 113.767C23.8393 113.767 23.3707 113.297 23.3707 112.738V107.182C23.3707 106.624 23.8393 106.153 24.3958 106.153C24.9522 106.153 25.4208 106.624 25.4208 107.182V112.738C25.3915 113.297 24.9522 113.767 24.3958 113.767Z" fill="#094E98"/>
<path d="M79.7181 19.3434C79.1617 19.3434 78.6931 18.873 78.6931 18.3145V12.1998C78.6931 11.6413 79.1617 11.1709 79.7181 11.1709C80.2746 11.1709 80.7432 11.6413 80.7432 12.1998V18.3145C80.7139 18.9024 80.2746 19.3434 79.7181 19.3434Z" fill="#094E98"/>
<path d="M30.9852 19.3434C30.4288 19.3434 29.9602 18.873 29.9602 18.3145V12.1998C29.9602 11.6413 30.4288 11.1709 30.9852 11.1709C31.5417 11.1709 32.0103 11.6413 32.0103 12.1998V18.3145C32.0103 18.9024 31.571 19.3434 30.9852 19.3434Z" fill="#094E98"/>
</svg>
