<svg width="156" height="156" viewBox="0 0 156 156" fill="none" xmlns="http://www.w3.org/2000/svg">
<path d="M148.688 4.875H7.3125C6.66604 4.87503 6.04608 5.13185 5.58896 5.58896C5.13185 6.04608 4.87503 6.66604 4.875 7.3125V21.9375C4.87503 22.584 5.13185 23.2039 5.58896 23.661C6.04608 24.1182 6.66604 24.375 7.3125 24.375H17.0625V29.5586C14.9709 30.1017 13.1185 31.3231 11.7953 33.0316C10.4721 34.74 9.75279 36.8391 9.75 39V148.688C9.75003 149.334 10.0068 149.954 10.464 150.411C10.9211 150.868 11.541 151.125 12.1875 151.125H143.812C144.459 151.125 145.079 150.868 145.536 150.411C145.993 149.954 146.25 149.334 146.25 148.688V99.9375H141.375V146.25H131.625V99.9375H126.75V146.25H117V39C116.997 36.8391 116.278 34.74 114.955 33.0316C113.631 31.3231 111.779 30.1017 109.688 29.5586V24.375H121.875V82.875C121.875 86.1073 123.159 89.2073 125.445 91.4929C127.73 93.7785 130.83 95.0625 134.062 95.0625C137.295 95.0625 140.395 93.7785 142.68 91.4929C144.966 89.2073 146.25 86.1073 146.25 82.875V68.25H141.375V82.875C141.375 84.8144 140.605 86.6744 139.233 88.0457C137.862 89.4171 136.002 90.1875 134.062 90.1875C132.123 90.1875 130.263 89.4171 128.892 88.0457C127.52 86.6744 126.75 84.8144 126.75 82.875V24.375H141.375V53.625H146.25V24.375H148.688C149.334 24.375 149.954 24.1182 150.411 23.661C150.868 23.2039 151.125 22.584 151.125 21.9375V7.3125C151.125 6.66604 150.868 6.04608 150.411 5.58896C149.954 5.13185 149.334 4.87503 148.688 4.875V4.875ZM19.5 19.5V9.75H136.5V19.5H19.5ZM90.1875 29.5586C88.2989 30.0497 86.6008 31.0957 85.3125 32.5614C84.0242 31.0957 82.3261 30.0497 80.4375 29.5586V24.375H90.1875V29.5586ZM70.6875 32.5614C69.3992 31.0957 67.7011 30.0497 65.8125 29.5586V24.375H75.5625V29.5586C73.6739 30.0497 71.9758 31.0957 70.6875 32.5614V32.5614ZM56.0625 32.5614C54.7742 31.0957 53.0761 30.0497 51.1875 29.5586V24.375H60.9375V29.5586C59.0489 30.0497 57.3508 31.0957 56.0625 32.5614V32.5614ZM41.4375 32.5614C40.1492 31.0957 38.4511 30.0497 36.5625 29.5586V24.375H46.3125V29.5586C44.4239 30.0497 42.7258 31.0957 41.4375 32.5614V32.5614ZM9.75 9.75H14.625V19.5H9.75V9.75ZM31.6875 24.375V29.5586C29.7989 30.0497 28.1008 31.0957 26.8125 32.5614C25.5242 31.0957 23.8261 30.0497 21.9375 29.5586V24.375H31.6875ZM14.625 39C14.626 38.1453 14.8518 37.306 15.2796 36.5661C15.7074 35.8262 16.3223 35.2119 17.0625 34.7846V39C17.0625 39.6465 17.3193 40.2665 17.7764 40.7236C18.2335 41.1807 18.8535 41.4375 19.5 41.4375C20.1465 41.4375 20.7665 41.1807 21.2236 40.7236C21.6807 40.2665 21.9375 39.6465 21.9375 39V34.7846C22.6777 35.2119 23.2926 35.8262 23.7204 36.5661C24.1482 37.306 24.374 38.1453 24.375 39V146.25H14.625V39ZM29.25 39C29.251 38.1453 29.4768 37.306 29.9046 36.5661C30.3324 35.8262 30.9473 35.2119 31.6875 34.7846V39C31.6875 39.6465 31.9443 40.2665 32.4014 40.7236C32.8585 41.1807 33.4785 41.4375 34.125 41.4375C34.7715 41.4375 35.3915 41.1807 35.8486 40.7236C36.3057 40.2665 36.5625 39.6465 36.5625 39V34.7846C37.3027 35.2119 37.9176 35.8262 38.3454 36.5661C38.7732 37.306 38.999 38.1453 39 39V146.25H29.25V39ZM43.875 39C43.876 38.1453 44.1018 37.306 44.5296 36.5661C44.9574 35.8262 45.5723 35.2119 46.3125 34.7846V39C46.3125 39.6465 46.5693 40.2665 47.0264 40.7236C47.4835 41.1807 48.1035 41.4375 48.75 41.4375C49.3965 41.4375 50.0165 41.1807 50.4736 40.7236C50.9307 40.2665 51.1875 39.6465 51.1875 39V34.7846C51.9277 35.2119 52.5426 35.8262 52.9704 36.5661C53.3982 37.306 53.624 38.1453 53.625 39V146.25H43.875V39ZM58.5 39C58.501 38.1453 58.7268 37.306 59.1546 36.5661C59.5824 35.8262 60.1973 35.2119 60.9375 34.7846V39C60.9375 39.6465 61.1943 40.2665 61.6514 40.7236C62.1085 41.1807 62.7285 41.4375 63.375 41.4375C64.0215 41.4375 64.6415 41.1807 65.0986 40.7236C65.5557 40.2665 65.8125 39.6465 65.8125 39V34.7846C66.5527 35.2119 67.1676 35.8262 67.5954 36.5661C68.0232 37.306 68.249 38.1453 68.25 39V146.25H58.5V39ZM73.125 39C73.126 38.1453 73.3518 37.306 73.7796 36.5661C74.2074 35.8262 74.8223 35.2119 75.5625 34.7846V39C75.5625 39.6465 75.8193 40.2665 76.2764 40.7236C76.7335 41.1807 77.3535 41.4375 78 41.4375C78.6465 41.4375 79.2665 41.1807 79.7236 40.7236C80.1807 40.2665 80.4375 39.6465 80.4375 39V34.7846C81.1777 35.2119 81.7926 35.8262 82.2204 36.5661C82.6482 37.306 82.874 38.1453 82.875 39V146.25H73.125V39ZM87.75 39C87.751 38.1453 87.9768 37.306 88.4046 36.5661C88.8324 35.8262 89.4473 35.2119 90.1875 34.7846V39C90.1875 39.6465 90.4443 40.2665 90.9014 40.7236C91.3585 41.1807 91.9785 41.4375 92.625 41.4375C93.2715 41.4375 93.8915 41.1807 94.3486 40.7236C94.8057 40.2665 95.0625 39.6465 95.0625 39V34.7846C95.8027 35.2119 96.4176 35.8262 96.8454 36.5661C97.2732 37.306 97.499 38.1453 97.5 39V146.25H87.75V39ZM112.125 39V146.25H102.375V39C102.376 38.1453 102.602 37.306 103.03 36.5661C103.457 35.8262 104.072 35.2119 104.812 34.7846V39C104.812 39.6465 105.069 40.2665 105.526 40.7236C105.984 41.1807 106.604 41.4375 107.25 41.4375C107.896 41.4375 108.516 41.1807 108.974 40.7236C109.431 40.2665 109.688 39.6465 109.688 39V34.7846C110.428 35.2119 111.043 35.8262 111.47 36.5661C111.898 37.306 112.124 38.1453 112.125 39V39ZM104.812 29.5586C102.924 30.0497 101.226 31.0957 99.9375 32.5614C98.6492 31.0957 96.9511 30.0497 95.0625 29.5586V24.375H104.812V29.5586ZM146.25 19.5H141.375V9.75H146.25V19.5Z" fill="#094E98"/>
<path d="M146.25 58.5H141.375V63.375H146.25V58.5Z" fill="#094E98"/>
<rect x="18" y="8" width="120" height="13" fill="#094E98"/>
</svg>
