<svg width="1440" height="120" viewBox="0 0 1440 120" fill="none" xmlns="http://www.w3.org/2000/svg">
<path d="M0 55.4446L30 39.4446C60 23.4446 120 -8.55545 180 2.14455C240 12.4446 300 66.4446 360 66.1446C420 66.4446 480 12.4446 540 7.44456C600 2.44456 660 44.4446 720 55.4446C780 66.4446 840 44.4446 900 44.7446C960 44.4446 1020 66.4445 1080 60.7445C1140 55.4445 1200 23.4446 1260 12.7446C1320 2.44456 1380 16.8 1410 22.5L1425.5 27L1439 32L1440 119.445H1410C1380 119.445 1320 119.445 1260 119.445C1200 119.445 1140 119.445 1080 119.445C1020 119.445 960 119.445 900 119.445C840 119.445 780 119.445 720 119.445C660 119.445 600 119.445 540 119.445C480 119.445 420 119.445 360 119.445C300 119.445 240 119.445 180 119.445C120 119.445 60 119.445 30 119.445H0V55.4446Z" fill="#0C1821"/>
</svg>
