<svg width="128" height="128" viewBox="0 0 128 128" fill="none" xmlns="http://www.w3.org/2000/svg">
<path d="M34.2855 112.571H93.7122V124H34.2855V112.571Z" fill="#094E98"/>
<path d="M25.1422 16.573H29.7134V28.0017H25.1422V16.573Z" fill="#094E98"/>
<path d="M25.1422 48.5725H29.7134V60.0012H25.1422V48.5725Z" fill="#094E98"/>
<path d="M25.1422 32.5728H29.7134V44.0015H25.1422V32.5728Z" fill="#094E98"/>
<path d="M34.2855 48.5725H93.7122V60.001H34.2855V48.5725Z" fill="#094E98"/>
<path d="M25.1422 64.5722H29.7134V76.0009H25.1422V64.5722Z" fill="#094E98"/>
<path d="M34.2855 64.5722H93.7122V76.0007H34.2855V64.5722Z" fill="#094E98"/>
<path d="M34.2855 96.5716H93.7122V108H34.2855V96.5716Z" fill="#094E98"/>
<path d="M34.2855 80.5719H93.7122V92.0004H34.2855V80.5719Z" fill="#094E98"/>
<path d="M20.571 48.5723H8.1825L1.65234 60.0008H20.571V48.5723Z" fill="#094E98"/>
<path d="M25.1422 80.5719H29.7134V92.0006H25.1422V80.5719Z" fill="#094E98"/>
<path d="M34.2855 32.5728H93.7122V44.0013H34.2855V32.5728Z" fill="#094E98"/>
<path d="M20.5709 80.5719H8.18247L1.65231 92.0004H20.5709V80.5719Z" fill="#094E98"/>
<path d="M20.5709 96.5716H8.18247L1.65231 108H20.5709V96.5716Z" fill="#094E98"/>
<path d="M20.5709 112.571H8.18247L1.65231 124H20.5709V112.571Z" fill="#094E98"/>
<path d="M20.571 64.5723H8.1825L1.65234 76.0008H20.571V64.5723Z" fill="#094E98"/>
<path d="M25.1422 112.571H29.7134V124H25.1422V112.571Z" fill="#094E98"/>
<path d="M25.1422 96.5716H29.7134V108H25.1422V96.5716Z" fill="#094E98"/>
<path d="M20.5709 16.573H8.18247L1.65231 28.0015H20.5709V16.573Z" fill="#094E98"/>
<path d="M20.5709 32.5728H8.18247L1.65231 44.0013H20.5709V32.5728Z" fill="#094E98"/>
<path d="M98.2844 16.573H102.856V28.0017H98.2844V16.573Z" fill="#094E98"/>
<path d="M107.427 108H126.342L119.815 96.5716H107.427V108Z" fill="#094E98"/>
<path d="M107.427 16.573H111.998V28.0017H107.427V16.573Z" fill="#094E98"/>
<path d="M107.427 124H126.342L119.815 112.571H107.427V124Z" fill="#094E98"/>
<path d="M107.427 32.5728H111.998V44.0015H107.427V32.5728Z" fill="#094E98"/>
<path d="M107.427 48.5725H111.998V60.0012H107.427V48.5725Z" fill="#094E98"/>
<path d="M116.569 60.0012H126.343L119.815 48.5725H116.569V60.0012Z" fill="#094E98"/>
<path d="M107.427 92.0004H126.342L119.815 80.5719H107.427V92.0004Z" fill="#094E98"/>
<path d="M126.343 28.0017L119.815 16.573H116.569V28.0017H126.343Z" fill="#094E98"/>
<path d="M107.427 76.0007H126.343L119.815 64.5722H116.569V69.1434C116.569 70.4061 115.546 71.4295 114.284 71.4295C113.021 71.4295 111.998 70.4061 111.998 69.1434V64.5722H107.427V76.0007Z" fill="#094E98"/>
<path d="M116.569 44.0015H126.343L119.815 32.5728H116.569V44.0015Z" fill="#094E98"/>
<path d="M98.2844 96.5716H102.856V108H98.2844V96.5716Z" fill="#094E98"/>
<path d="M98.2844 80.5719H102.856V92.0006H98.2844V80.5719Z" fill="#094E98"/>
<path d="M98.2844 112.571H102.856V124H98.2844V112.571Z" fill="#094E98"/>
<path d="M98.2844 64.5722H102.856V76.0009H98.2844V64.5722Z" fill="#094E98"/>
<path d="M98.2844 48.5725H102.856V60.0012H98.2844V48.5725Z" fill="#094E98"/>
<path d="M34.2855 16.573H93.7122V28.0015H34.2855V16.573Z" fill="#094E98"/>
<path d="M98.2844 32.5728H102.856V44.0015H98.2844V32.5728Z" fill="#094E98"/>
<rect x="3.5" y="1.5" width="123" height="14" fill="#E8EAED" stroke="#094E98" stroke-width="3"/>
</svg>
